<svg xmlns="http://www.w3.org/2000/svg" id="Layer_1" data-name="Layer 1" viewBox="0 0 511.84 453.84"><path d="M914.59,767.87h-5.66L789.45,768c-11.73,0-14.69-3-14.69-14.8q0-95,0-190c0-3.29.51-5.71,3.39-8.08,22.34-18.42,44.47-37.07,66.64-55.68q35.55-29.85,71.06-59.75c15.8-13.27,31.65-26.48,47.81-40,7.67,6.78,15.24,13.47,22.79,20.18q53.19,47.27,106.35,94.55c15.3,13.6,30.55,27.25,45.92,40.78a8.76,8.76,0,0,1,3.27,7.27q-.15,94.25-.08,188.49c0,11.33-4.52,16.21-15.35,16.23q-60.49.09-121,0c-1,0-2-.11-3.57-.22,0-1.86,0-3.62,0-5.39,0-32.66-.17-65.33.17-98,.1-9.66-5.55-18.84-17.15-18.75-19.14.13-38.3-.12-57.44.17-7.43.11-12,4.61-12.45,12.25-.57,9.44-.45,18.94-.47,28.41C914.56,712.83,914.59,740,914.59,767.87Z" transform="translate(-705.06 -314.15)"/><path d="M705.06,543.3,965.22,314.15l251.68,228c-7.87,11.85-19.71,15.63-34.18,11.3s-25.19-14.4-36-24.24c-21-19-42.1-37.78-63.15-56.67l-73.56-66q-21-18.84-42-37.7c-.83-.75-1.82-1.33-3-2.17l-32.09,27.12q-31.83,26.87-63.65,53.74-36.94,31.25-73.84,62.54c-14.35,12.13-28.49,24.53-43.31,36.07a53.63,53.63,0,0,1-19.34,9.58C721.27,558.59,712.58,554,705.06,543.3Z" transform="translate(-705.06 -314.15)"/><path d="M1106.13,366.16h50.25V469.43c-4.08-3.31-8-6.36-11.76-9.56-11.68-9.89-23.28-19.87-35-29.73a9,9,0,0,1-3.59-7.62C1106.23,403.89,1106.13,385.26,1106.13,366.16Z" transform="translate(-705.06 -314.15)"/></svg>
