<svg xmlns="http://www.w3.org/2000/svg" id="Layer_1" data-name="Layer 1" viewBox="0 0 800.58 505.67"><path d="M1106.58,357.35,794.8,663.58l-248.87-124c12.8-8.68,25-16.94,37.2-25.24q86.36-58.86,172.68-117.73Q832.51,344.34,909.16,292c3.12-2.14,5.43-1.33,8.22-.38q35.6,12.25,71.2,24.5,57.87,20,115.73,39.93A17.93,17.93,0,0,1,1106.58,357.35Z" transform="translate(-545.93 -290.68)"/><path d="M1133.21,709.16,936.55,551.08c5-4.7,9.83-9,14.35-13.58Q1002.5,484.9,1054,432.19c21.77-22.24,43.61-44.44,65.29-66.78,2.5-2.58,4.48-3.27,8-2q108,38,216.06,75.67a26.71,26.71,0,0,1,3.12,1.64Z" transform="translate(-545.93 -290.68)"/><path d="M814,672.32,926,563.59,1122.81,726l-60,70.39Z" transform="translate(-545.93 -290.68)"/></svg>
