<svg xmlns="http://www.w3.org/2000/svg" id="Layer_1" data-name="Layer 1" viewBox="0 0 424.83 424.84"><defs><style>.cls-1{fill:#fff;}</style></defs><path class="cls-1" d="M1136.48,585.72a26,26,0,0,1,10.78-3.55,30.68,30.68,0,0,1,15.44,2.18,34.62,34.62,0,0,1,10.53,7.52c4.64,4.75,9.37,9.42,14.08,14.1q20.45,20.34,40.92,40.66c6.81,6.75,13.67,13.44,20.46,20.2a30.14,30.14,0,0,1,6,34.09,30.69,30.69,0,0,1-6.17,8.73c-4.5,4.56-9.06,9.08-13.6,13.61a31.49,31.49,0,0,1-15.77,8.87,29.89,29.89,0,0,1-17.53-1.51,31.41,31.41,0,0,1-10.8-7.33c-5.42-5.46-10.89-10.87-16.31-16.32q-20.91-21-41.81-42.09c-6.14-6.19-12.33-12.34-18.34-18.66a28.23,28.23,0,0,1-7.24-14.09,29.48,29.48,0,0,1,2.29-19.42,1.21,1.21,0,0,0-.26-1.7c-4.27-4.22-8.54-8.45-12.73-12.75a1.56,1.56,0,0,0-2.46-.18c-3.79,2.75-7.51,5.6-11.44,8.13-4.27,2.74-8.69,5.26-13.14,7.69A134.94,134.94,0,0,1,1042,625.2c-6.31,1.81-12.72,3.34-19.17,4.6a114.87,114.87,0,0,1-15,1.92c-6.77.43-13.57.58-20.36.54a96.82,96.82,0,0,1-11.24-1c-4.47-.55-9-1.08-13.38-2a131.16,131.16,0,0,1-13.56-3.41c-5.89-1.85-11.78-3.77-17.45-6.18s-11.28-5.36-16.75-8.35a127.86,127.86,0,0,1-12.35-7.69c-4.45-3.13-8.77-6.48-12.93-10-4-3.35-7.78-6.9-11.43-10.59a150.21,150.21,0,0,1-14.74-17.49,165,165,0,0,1-11.75-18.79A151.29,151.29,0,0,1,840,518.5c-1.76-5.86-3.26-11.83-4.48-17.83-1-4.8-1.33-9.73-2-14.6-1-7.47-.92-15-.77-22.49a111,111,0,0,1,1.06-11.79c.61-4.78,1.26-9.56,2.21-14.28s2.19-9.62,3.57-14.35a154,154,0,0,1,8.42-21.89,133.55,133.55,0,0,1,11.71-20.67c3.83-5.44,7.85-10.75,12.08-15.88a130.19,130.19,0,0,1,10.79-11.61,136.53,136.53,0,0,1,20.67-16.69c5.07-3.23,10.19-6.38,15.41-9.35a129.19,129.19,0,0,1,27.64-11.61c6.64-1.94,13.41-3.48,20.19-4.9,4.1-.86,8.32-1.13,12.48-1.7a133.75,133.75,0,0,1,22.63-.74c5.36.18,10.71,1,16.05,1.58a139.58,139.58,0,0,1,24.48,5.34,164.46,164.46,0,0,1,20.9,8,146.72,146.72,0,0,1,22.33,12.61c4.47,3.1,8.86,6.35,13,9.85,4.72,4,9.32,8.15,13.64,12.56a151.41,151.41,0,0,1,15.85,19.31,158.91,158.91,0,0,1,13.62,23.45,142.66,142.66,0,0,1,10,27.52c1.4,5.83,2.7,11.7,3.77,17.6a85.69,85.69,0,0,1,1.12,11c.31,6.15.59,12.3.52,18.45,0,4.53-.64,9.05-1,13.57a122.77,122.77,0,0,1-4.45,23.47c-1.86,6.48-4.16,12.84-6.52,19.16a109.89,109.89,0,0,1-5.08,11.3,151.21,151.21,0,0,1-13.78,22.56c-1.24,1.64-2.38,3.34-3.65,5-.5.64-.37,1,.13,1.48Zm-9.07-114.81c-.43-36.08-12.49-66.92-37-92.43s-54.68-39.15-90-40.57c-37.56-1.51-70.35,10.91-97.45,36.94-25.31,24.32-39,54.48-40.4,89.58-1.54,37.49,10.76,70.28,36.7,97.41,24.24,25.34,54.29,39,89.35,40.63,37.38,1.68,70.17-10.4,97.32-36.16C1113.34,540.33,1126.86,508,1127.41,470.91Z" transform="translate(-832.7 -307.97)"/><path class="cls-1" d="M1039.13,550.07c-32.77,23.15-79,21.5-110.14-5.89-16.49-14.47-26.7-32.55-30-54.19s.62-41.94,12-61.13c0,.72.09,1.09.1,1.46.09,4.3-.06,8.63.34,12.9.48,5.06,1.26,10.1,2.23,15.09a97.25,97.25,0,0,0,6.84,21.55,151,151,0,0,0,8.3,15.71,88.51,88.51,0,0,0,8.68,12.18,143.34,143.34,0,0,0,13.07,13.36,128.32,128.32,0,0,0,14,10.77A106,106,0,0,0,987,543.11a124.7,124.7,0,0,0,19.09,5.35,83.48,83.48,0,0,0,11,1.39c5.68.35,11.39.44,17.08.56C1035.82,550.45,1037.48,550.19,1039.13,550.07Z" transform="translate(-832.7 -307.97)"/></svg>
