<?xml version="1.0" standalone="no"?>
<!DOCTYPE svg PUBLIC "-//W3C//DTD SVG 20010904//EN"
 "http://www.w3.org/TR/2001/REC-SVG-20010904/DTD/svg10.dtd">
<svg version="1.0" xmlns="http://www.w3.org/2000/svg"
 width="512.000000pt" height="512.000000pt" viewBox="0 0 512.000000 512.000000"
 preserveAspectRatio="xMidYMid meet">

<g transform="translate(0.000000,512.000000) scale(0.100000,-0.100000)"
fill="#000000" stroke="none">
<path d="M2494 5086 l-34 -34 0 -526 0 -526 -515 0 c-560 0 -558 0 -583 -55
-9 -19 -12 -170 -12 -570 l0 -545 28 -31 c21 -23 37 -31 64 -32 42 -1 85 24
98 59 6 15 10 222 10 500 l0 474 680 0 680 0 0 -200 0 -200 -190 0 -190 0 -32
-29 c-44 -39 -46 -98 -5 -138 l27 -28 195 -3 195 -3 0 -180 0 -179 -190 0
-190 0 -32 -29 c-44 -39 -46 -98 -5 -139 l27 -27 195 -3 195 -3 0 -180 0 -179
-190 0 -190 0 -32 -29 c-44 -39 -46 -98 -5 -139 l27 -27 195 -3 195 -3 0 -180
0 -179 -190 0 -190 0 -32 -29 c-44 -39 -46 -98 -5 -138 l27 -28 195 -3 195 -3
0 -180 0 -179 -190 0 -190 0 -32 -29 c-44 -39 -46 -98 -5 -138 l27 -28 195 -3
195 -3 0 -180 0 -179 -190 0 -190 0 -32 -29 c-44 -39 -46 -98 -5 -139 l27 -27
195 -3 195 -3 0 -100 0 -99 -255 0 -255 0 -2 941 -3 941 -33 29 -33 29 -1035
-2 -1036 -3 -29 -33 -29 -32 0 -934 0 -934 -71 -4 c-65 -3 -74 -6 -100 -36
-38 -42 -38 -82 0 -124 l29 -33 2496 -3 2496 -2 32 29 c27 24 33 36 33 71 0
35 -6 47 -33 71 -29 26 -40 29 -97 29 l-65 0 0 1281 c0 1177 -1 1283 -17 1309
-9 16 -27 33 -40 39 -15 7 -115 11 -273 11 l-250 0 0 655 c0 545 -2 661 -14
683 -15 28 -1 20 -1301 709 -279 148 -450 233 -468 233 -20 0 -40 -11 -63 -34z
m916 -629 l725 -385 3 -616 2 -616 -309 0 c-202 0 -318 -4 -334 -11 -13 -6
-31 -23 -40 -39 -16 -26 -17 -132 -17 -1309 l0 -1281 -165 0 -165 0 -2 1870
-3 1870 -28 27 -27 28 -195 3 -195 3 0 426 c0 336 3 424 13 420 6 -3 338 -178
737 -390z m1310 -1997 l0 -180 -280 0 c-179 0 -288 -4 -303 -11 -60 -27 -71
-112 -21 -160 l26 -24 289 -3 289 -3 0 -179 0 -180 -280 0 c-179 0 -288 -4
-303 -11 -60 -27 -71 -112 -21 -160 l26 -24 289 -3 289 -3 0 -179 0 -180 -280
0 c-179 0 -288 -4 -303 -11 -60 -27 -71 -112 -21 -160 l26 -24 289 -3 289 -3
0 -179 0 -180 -160 0 c-170 0 -208 -8 -230 -49 -15 -30 -12 -83 8 -107 31 -39
55 -44 221 -44 l161 0 0 -100 0 -100 -540 0 -540 0 0 1220 0 1220 540 0 540 0
0 -180z m-2520 -1390 l0 -870 -900 0 -900 0 0 870 0 870 900 0 900 0 0 -870z"/>
<path d="M3404 3980 c-12 -4 -31 -21 -43 -36 -19 -24 -21 -39 -21 -143 0 -133
9 -158 63 -184 36 -18 38 -18 74 0 57 27 64 50 61 191 l-3 124 -33 29 c-33 29
-60 35 -98 19z"/>
<path d="M3804 3980 c-12 -4 -31 -21 -43 -36 -19 -24 -21 -39 -21 -143 0 -133
9 -158 63 -184 36 -18 38 -18 74 0 57 27 64 50 61 191 l-3 124 -33 29 c-33 29
-60 35 -98 19z"/>
<path d="M3394 3389 c-43 -22 -54 -59 -54 -189 0 -160 20 -200 100 -200 80 0
100 40 100 200 0 96 -4 128 -17 150 -26 45 -81 62 -129 39z"/>
<path d="M3794 3389 c-43 -22 -54 -59 -54 -189 0 -160 20 -200 100 -200 80 0
100 40 100 200 0 96 -4 128 -17 150 -26 45 -81 62 -129 39z"/>
<path d="M3920 587 c-38 -18 -63 -77 -50 -113 16 -42 39 -63 75 -70 111 -21
159 133 58 185 -28 14 -52 14 -83 -2z"/>
<path d="M663 1720 c-18 -11 -36 -32 -40 -47 -5 -15 -8 -118 -8 -228 0 -283
-8 -275 287 -275 208 0 245 8 267 56 7 16 11 99 11 237 -1 291 13 277 -282
277 -184 0 -206 -2 -235 -20z m317 -265 l0 -85 -80 0 -80 0 0 85 0 85 80 0 80
0 0 -85z"/>
<path d="M1494 1730 c-12 -4 -31 -21 -43 -36 -21 -27 -22 -35 -19 -246 l3
-218 28 -27 27 -28 204 -3 c311 -5 306 -10 306 285 0 206 -9 245 -60 270 -29
15 -411 17 -446 3z m306 -275 l0 -85 -85 0 -85 0 0 85 0 85 85 0 85 0 0 -85z"/>
<path d="M675 956 c-54 -24 -60 -48 -60 -265 0 -108 3 -209 8 -224 4 -15 22
-36 40 -47 29 -18 51 -20 228 -20 114 0 209 4 227 11 58 20 62 36 62 268 0
136 -4 219 -11 235 -22 49 -59 56 -271 56 -136 -1 -202 -5 -223 -14z m305
-271 l0 -85 -80 0 -80 0 0 85 0 85 80 0 80 0 0 -85z"/>
<path d="M1495 961 c-11 -5 -29 -19 -40 -31 -18 -20 -20 -39 -23 -240 l-3
-218 30 -34 29 -33 214 -3 c237 -3 252 0 280 58 15 30 18 64 18 223 0 292 4
287 -292 286 -106 0 -202 -4 -213 -8z m305 -276 l0 -85 -85 0 -85 0 0 85 0 85
85 0 85 0 0 -85z"/>
<path d="M1383 2536 c-23 -20 -28 -32 -28 -71 0 -39 5 -51 28 -71 53 -45 131
-27 157 35 39 94 -79 174 -157 107z"/>
</g>
</svg>
