<svg id="Layer_1" data-name="Layer 1" xmlns="http://www.w3.org/2000/svg" viewBox="0 0 336.95 384"><path d="M950.25,348.75h21c1,.21,1.93.45,2.9.63,11.75,2.19,23.8,3.36,35.2,6.73,66.39,19.61,120,82.58,119.87,162.41-.14,69.09,0,138.18-.14,207.27,0,2.32-1.68,4.64-2.58,7H795c-2.39-1.89-2.73-4.45-2.73-7.33q.08-103.26.06-206.52c0-46.24,16-86.22,48.31-119.36,24.84-25.5,54.89-41.62,90-48C937.15,350.41,943.72,349.68,950.25,348.75ZM838.54,713.35c1-1.3,1.56-1.93,2-2.6q29.22-41.52,58.36-83.1a10.27,10.27,0,0,0,1.61-5.53c.14-19-.24-38,.21-57,.85-35.75,35.56-63.53,70.66-56.95,30.13,5.65,50.54,30.08,50.68,60.79.08,17.62-.05,35.24.1,52.86a12.4,12.4,0,0,0,2,6.53q28.11,40.92,56.47,81.68c.6.86,1.26,1.68,2.35,3.14.09-1.91.18-3,.18-4.08q0-84,0-168a128.72,128.72,0,0,0-1.14-18.31,122.48,122.48,0,0,0-141.53-103.6c-57.82,9.62-101.3,59.39-101.93,118.1-.62,57.86-.17,115.72-.18,173.58C838.34,711.42,838.42,711.91,838.54,713.35Zm281.65,10.21v-4.23c0-66.61.14-133.23-.13-199.85a174.28,174.28,0,0,0-3.08-33.13c-14.07-70.73-71.77-121.86-144.07-128-31.74-2.69-61.89,3.55-89.35,19.59-53.95,31.52-81.65,79-82.14,141.54-.51,66.61-.11,133.23-.11,199.85v4.23h28v-4.92c0-58.75-.12-117.49.12-176.23a144.62,144.62,0,0,1,2.66-29c15.24-72.48,85.82-117.62,158.18-101.52,57.54,12.79,101.1,65.54,101.67,124.55.59,60.73.18,121.48.21,182.22v4.93Zm-277.37-.1h236c-.84-1.3-1.42-2.25-2-3.15q-29.76-43-59.45-86a6.06,6.06,0,0,0-5.8-2.91q-50.22.12-100.45,0a6.45,6.45,0,0,0-6,3.21q-29.85,42.66-59.87,85.21C844.42,720.92,843.73,722.06,842.82,723.46Zm170.07-101.21c.1-1.1.22-1.82.22-2.54,0-17.49.11-35-.1-52.45a51.28,51.28,0,0,0-1.82-12.55c-6.83-25.5-31-41.4-57.38-37.88-24.89,3.32-43.92,25.14-44.15,50.84-.15,17.11,0,34.22,0,51.33,0,1.06.18,2.12.29,3.25Z" transform="translate(-792.27 -348.75)"/><path d="M960.76,658.59c-11,0-22,0-33,0-4,0-6.07-1.62-6-4.51s2.17-4.47,6.16-4.47c21.85,0,43.7-.08,65.54.1a9.24,9.24,0,0,1,5.58,2.71c.68.65.39,3.45-.45,4.28a7.69,7.69,0,0,1-4.92,1.81C982.73,658.67,971.74,658.59,960.76,658.59Z" transform="translate(-792.27 -348.75)"/><path d="M960.68,696.51q15.92,0,31.82,0c1.25,0,2.78-.32,3.67.27,1.4.94,3.18,2.46,3.29,3.85s-1.35,3.32-2.66,4.29c-1,.77-2.87.56-4.35.56q-31.63,0-63.28,0c-.74,0-1.49,0-2.24,0-3-.15-5.19-1.49-5.07-4.73.11-3,2.23-4.24,5.12-4.24Z" transform="translate(-792.27 -348.75)"/><path d="M960.35,682c-11,0-22,0-33,0-2.63,0-4.81-.69-5.45-3.47a4,4,0,0,1,3.11-5.16,17.32,17.32,0,0,1,4.45-.37q31.26,0,62.52,0c.87,0,1.75,0,2.62,0,2.83.17,5,1.42,5,4.46,0,3.23-2.14,4.51-5.22,4.51Z" transform="translate(-792.27 -348.75)"/></svg>