<svg id="Layer_1" data-name="Layer 1" xmlns="http://www.w3.org/2000/svg" viewBox="0 0 384 343.96"><defs><style>.cls-1{fill:#505050;}</style></defs><path class="cls-1" d="M546.75,605.64c2-11.47,8.43-20.9,14.09-30.69q68.73-118.82,137.4-237.67c6.83-11.83,16.16-20.22,29.57-23.49,20-4.87,39.52,3.37,50,21.29,13.57,23.12,26.9,46.37,40.32,69.58q52.35,90.48,104.56,181.05c3.53,6.15,5.39,13.26,8,19.93v11.23a3.93,3.93,0,0,0-.54,1c-5.39,25-22.14,38.53-47.74,38.53H680.86c-29.35,0-58.71.06-88.06,0-20.21-.05-36.85-11.68-43.42-30.18-1.07-3-1.76-6.19-2.63-9.28Zm191.62,28.25q72.38,0,144.74,0c6,0,11.67-1.07,16.49-5,9.4-7.61,11.1-19.39,4.43-30.93q-49.44-85.47-98.89-170.95-22.85-39.49-45.66-79c-3.09-5.37-7-9.68-13-11.79-11.27-4-21.9.53-28.61,12.12q-55,95-109.92,190.06-17.31,30-34.67,59.89c-3,5.1-4.77,10.43-3.68,16.39,2.2,12,11.28,19.17,24.42,19.18Q666.19,633.92,738.37,633.89Z" transform="translate(-546.75 -312.41)"/><path class="cls-1" d="M727.77,424.65h22V536.59h-22Z" transform="translate(-546.75 -312.41)"/><path class="cls-1" d="M753.73,574.35a15,15,0,1,1-14.82-15.12A15,15,0,0,1,753.73,574.35Z" transform="translate(-546.75 -312.41)"/></svg>