<svg id="Layer_1" data-name="Layer 1" xmlns="http://www.w3.org/2000/svg" viewBox="0 0 308.5 308.5"><path d="M612.42,521.12q0-49.39,0-98.8c0-9.94,4.4-14.31,14.41-14.31H821.06c9.94,0,14.42,4.44,14.42,14.32v197.6c0,9.67-4.5,14.14-14.23,14.14H626.64c-9.69,0-14.22-4.5-14.22-14.15Q612.41,570.53,612.42,521.12Zm210.87,100.8V420.23H624.67V621.92Z" transform="translate(-612.33 -325.63)"/><path d="M815.41,364.79H630.54l11,14.68a27.62,27.62,0,0,1,2.17,3,5.66,5.66,0,0,1-1.46,7.7,5.51,5.51,0,0,1-8-.74c-7.09-9.18-14-18.48-20.87-27.83-1.65-2.26-1.1-4.76.54-7,6.58-8.78,13.11-17.6,19.76-26.32,2.33-3.06,5.82-3.51,8.56-1.43s3.18,5.41.94,8.63c-2,2.87-4.16,5.61-6.25,8.41l-6.32,8.41H815.25c-.94-1.25-1.68-2.29-2.47-3.28-3.57-4.5-7.23-8.92-10.7-13.48-2.34-3.09-1.9-6.5.81-8.63a5.67,5.67,0,0,1,8.31,1c7.24,8.9,14.36,17.9,21.45,26.91,2,2.47,1.78,5.15-.14,7.58-7,8.9-14.08,17.8-21.24,26.61-2.35,2.88-5.65,3.17-8.3,1.17s-3.2-5.55-1-8.62c2.06-2.81,4.31-5.49,6.49-8.22Z" transform="translate(-612.33 -325.63)"/><path d="M894.21,615.84c5.57-4.17,10.73-8.07,15.93-11.91,3.84-2.84,7.27-2.63,9.5.48s1.38,6.29-2.21,9Q905,622.78,892.58,632c-3.81,2.82-5.65,2.79-9.41,0q-12.3-9.16-24.55-18.4c-3.85-2.9-4.72-6.16-2.5-9.21s5.74-3.26,9.81-.24c5.09,3.78,10.16,7.58,15.66,11.69V431.18c-5.46,4.34-10.52,8.52-15.76,12.44-1.5,1.13-3.76,2.45-5.28,2.07a9.15,9.15,0,0,1-5.17-4.05c-1.37-2.4,0-4.85,2.09-6.56,5.15-4.15,10.33-8.25,15.5-12.37,3.42-2.72,6.82-5.45,10.25-8.14s5.7-2.86,9.07-.21q12.8,10.06,25.46,20.28c3.46,2.8,4,6.23,1.64,9.08s-5.72,2.93-9.27.14c-5.19-4.08-10.33-8.23-15.91-12.68Z" transform="translate(-612.33 -325.63)"/></svg>