<svg id="Layer_1" data-name="Layer 1" xmlns="http://www.w3.org/2000/svg" viewBox="0 0 345.96 370.41"><path d="M796.38,711q-72.6,0-145.19,0c-13.52,0-25-7.94-27.19-20.07-1-5.54.14-11.62,1-17.35,2.37-15.8,5.31-31.52,7.65-47.32,2.59-17.49,12.44-30.11,25.92-40.53,19.82-15.33,42.18-26,65.27-35.19,9.82-3.93,19.83-7.41,29.81-10.92,2.26-.79,3.12-1.8,3-4.23-.19-5.25.06-10.5-.13-15.75a6.83,6.83,0,0,0-1.61-4.24c-10.93-11-17.91-24.2-21.91-39-.65-2.42-1.57-3.7-4-4.57-14.36-5.11-21.71-19.16-17.84-35.1a16.83,16.83,0,0,1,10.31-12.1c2.77-1.1,3-2.71,3-5.1.17-9.86.16-19.74.83-29.58.65-9.5,4.32-17.61,12.86-22.91a6.31,6.31,0,0,0,2.65-3.81c2.13-12.89,10.6-19,22.54-21.15a75.1,75.1,0,0,1,15.23-1.41c18.56.47,37.19.52,55.66,2.25,20,1.88,33.55,17.69,34,37.84.27,13,.14,26,.08,39,0,2.25.44,3.42,2.79,4.4,7.76,3.23,11.82,9.38,12.14,17.75.61,16.06-5.94,25.38-21.19,30.79a4.12,4.12,0,0,0-2.22,2.49c-4.16,15.35-11.18,29.06-22.5,40.41a5.83,5.83,0,0,0-1.13,3.71c-.12,5.38.07,10.76-.1,16.12-.08,2.41.76,3.37,3,4.24,18,7,36,13.81,53.76,21.45A201.81,201.81,0,0,1,933.31,585c15.93,11.86,25.53,27.06,27.85,47.16A477.66,477.66,0,0,0,969,679.41c3.46,15.74-8.65,31.11-25.9,31.57-1.37,0-2.75,0-4.12,0ZM756.29,415.08a10.89,10.89,0,0,0-.36,1.5c-1.13,14.26-5,27.44-14.72,38.43a4.41,4.41,0,0,0-.84,3.06c1.75,17.43,7.24,33.41,19,46.67,21.53,24.23,53,24,74.1-.59,11.8-13.77,17.37-30,18.29-48,.23-4.56.24-8.52-3.76-11.6-1.32-1-2.15-2.74-3.06-4.22-4.48-7.35-6.86-15.44-8.45-23.84-.26-1.35-.79-3.38-1.73-3.75A44.69,44.69,0,0,1,816.27,399c-6.13,11.67-15.67,16.6-28.35,16.15-6.48-.23-13,0-19.45,0ZM709.93,568.55a7.35,7.35,0,0,0-1.7.09c-16.51,7.75-32.55,16.27-46.61,28.11-9.42,7.93-16.35,17.34-18.36,29.92-3,18.73-6.23,37.41-9.26,56.13-1.1,6.76,1.68,12.51,7.89,15.41a24,24,0,0,0,9.67,2.2c41.52.14,83,.09,124.56.08,1,0,2-.15,3.7-.27-1.66-1.25-2.74-2.07-3.83-2.87L704.46,645c-5.4-4-5.65-5.31-2.18-11.12,6.06-10.15,12.13-20.3,18.39-30.77-7.08-2.82-13.87-5.55-20.68-8.23-6.19-2.44-7-5.53-2.82-10.69S705.46,574,709.93,568.55Zm162.18,34.5c6.38,10.67,12.47,20.84,18.54,31,3.3,5.53,3,7.09-2.19,10.87q-36.11,26.39-72.19,52.79c-.95.69-1.83,1.47-3.45,2.78h101c9.6,0,19.21.12,28.81,0,11.15-.19,17.75-8.54,15.86-19.48-2.5-14.39-5.44-28.73-7-43.22-2-18.1-8.77-32.92-23.74-43.94a254.12,254.12,0,0,0-43.18-25.2,6.17,6.17,0,0,0-1.77,0c4.58,5.54,8.79,10.62,13,15.72,4,4.88,3.18,8.09-2.79,10.49C886.16,597.53,879.34,600.19,872.11,603.05ZM738.32,441.32c.15-.34.29-.68.46-1,.46-.89,1-1.75,1.38-2.65a60.62,60.62,0,0,0,5.37-24.7c.12-7.22,1.29-8.38,8.61-8.38,11.85,0,23.7.05,35.54,0,10.82-.06,17-5.45,18.33-16.18.4-3.11,1.58-5.31,4.8-5.76,3.37-.47,6.52-.1,8.18,3.59,4.11,9.12,11.09,14.73,20.62,17.64,1.78.55,3.49,3,4.23,4.92,1,2.63.88,5.66,1.53,8.45,1.54,6.63,3.26,13.22,8,19.58.93-4.5,2.26-8.11,2.33-11.75.25-13.87.2-27.74.07-41.61-.17-19.06-11.51-30.43-30.51-31-11.47-.32-22.93-1.13-34.39-1.16a249.46,249.46,0,0,0-28.68,1.38c-7.1.8-12.11,4.94-13.17,12.72a13.72,13.72,0,0,1-6.88,10.22c-5.34,3.17-7.82,8.09-8.33,13.9C734.33,406.71,733.75,423.91,738.32,441.32Zm-29.86,145.6c7.18,2.81,13.92,5.41,20.62,8.1,4.66,1.88,5.66,4.81,3.11,9.15-4.62,7.85-9.32,15.66-14,23.48-2,3.3-3.91,6.6-6,10l70.23,51.39.57-.42L727.48,563.77Zm175.86,0-19.07-23c-18.73,42.08-37.12,83.38-55.51,124.68l.67.39,70.08-51.3c-.76-1.37-1.33-2.46-2-3.52-5.94-10-11.92-19.9-17.84-29.89C858,599.77,859,597,863.9,595,870.48,592.33,877.09,589.77,884.32,586.93Zm-87.93-12.42c9.71-11.35,19-22.23,28.34-33.14a3.4,3.4,0,0,0,.85-2c.08-4.69,0-9.37,0-14.61-19.64,11.15-39,11.17-58.51.24a32.42,32.42,0,0,1,0,4.38c-1.25,7.75,1.55,13.68,7,19.31C781.79,556.78,788.75,565.6,796.39,574.51Zm40.85,26.59c6.6-14.87,13-29.26,19.54-44-7.93-2.84-15.37-5.57-22.89-8.08-.76-.25-2.27.59-2.94,1.35q-12.74,14.68-25.31,29.51a11.14,11.14,0,0,0-.94,1.59Zm-49.32-19.52c-.13-.47-.13-.89-.33-1.12q-13.11-15.37-26.29-30.68a2.91,2.91,0,0,0-2.46-.82c-7.52,2.52-15,5.18-22.85,7.94l19.56,44.18Zm25.9,72.18c6.58-14.8,12.81-28.84,19.1-43l-14-8.47c-5.25,5.28-10.46,10.46-15.57,15.73a2.74,2.74,0,0,0-.4,2.28C806.42,631.22,810,642.1,813.82,653.76Zm-34.88-.09C782.79,642,786.4,631,790,620a2.34,2.34,0,0,0-.45-2c-5.21-5.29-10.49-10.52-15.71-15.74l-13.93,8.45Zm17.86-17.74-.91.1c-2.33,7.1-4.18,14.41-7.14,21.24-3.24,7.49-2.94,14.15,1.2,21.13,2.49,4.18,4.11,8.88,6.46,14.13,2.06-4.62,3.3-8.62,5.48-12,5.38-8.41,5.41-16.66,1.32-25.65C800.47,648.83,798.9,642.26,796.8,635.93Zm-12.93-39.61L796.3,609c4-4,8.22-8.35,12.52-12.72-3.46-2.09-7.25-4.46-11.14-6.65a3.19,3.19,0,0,0-2.65,0C791.15,591.82,787.37,594.2,783.87,596.32Zm77.25-135.5,1.61.47c6.92-3.69,10.36-9.37,10.11-17.48-.14-4.46-1.31-8-6.61-10.37C864.47,442.87,862.79,451.85,861.12,460.82Zm-132-.45,1.27-.42c-1.56-8.44-3.12-16.88-4.75-25.65-5,2.77-5,7.09-4.91,11.47C720.85,452.27,723.88,457,729.12,460.37Z" transform="translate(-623.6 -340.6)"/></svg>