<svg id="Layer_1" data-name="Layer 1" xmlns="http://www.w3.org/2000/svg" viewBox="0 0 300.06 287.78"><path d="M816.76,678.48c2-51.71,4-103.14,6-154.79-3.28-1.13-6.51-2.06-9.56-3.4a4.26,4.26,0,0,1-2.34-2.95c-.12-30-.1-60-.1-90.39h96c0-6.47.14-12.54-.07-18.61-.09-2.52.78-3.71,3-4.82q51.33-25.72,102.52.17a4,4,0,0,1,2.61,4.29c-.14,6.1,0,12.2,0,18.71h96V430c0,28.75,0,57.49.06,86.24,0,2.54-.6,3.81-3.16,4.45-3,.75-5.85,2-8.9,3.07,2,51.6,4,103,6,154.73Zm270-150.68a8.42,8.42,0,0,0-1.5.13,440.89,440.89,0,0,1-85.82,16.85c-2.35.21-3,1.35-3.46,3.46a35.83,35.83,0,0,1-69.8,1.09c-.76-3.05-1.81-4.48-5.21-4.78a423.47,423.47,0,0,1-82.19-15.93c-1.24-.36-2.51-.62-4-1l-6,138.86h264C1090.74,620.2,1088.76,574.16,1086.76,527.8ZM996.84,533A440.43,440.43,0,0,0,1096,512.08c2.42-.81,2.84-2.06,2.84-4.34-.08-21.87,0-43.74-.06-65.61,0-1.07-.14-2.14-.2-3.09H822.75c0,23.4,0,46.51,0,69.62,0,2.13,1,2.76,2.69,3.25,13.31,3.78,26.52,8,39.93,11.35A382.51,382.51,0,0,0,924.81,533v-9.94h72Zm5.91-106.42c0-4.24.15-8.21-.1-12.17a4.17,4.17,0,0,0-2.15-2.85q-39.81-17.93-79.63.08a3.8,3.8,0,0,0-2,2.57c-.22,4.06-.1,8.15-.1,12.37ZM937,534.93c-1.12,10.92,1.54,20.09,11.1,26.07,8.5,5.32,17.37,5.22,25.76-.22,9.29-6,11.86-15.12,10.72-25.85Z" transform="translate(-810.75 -390.7)"/></svg>