<svg id="Layer_1" data-name="Layer 1" xmlns="http://www.w3.org/2000/svg" viewBox="0 0 265.87 265.76"><path d="M838,575.19c-.57,74.68-60.21,133.49-134.77,132.91-72.44-.57-131.86-61.26-131.09-133.88.8-74,60.67-132.53,135-131.87C779.18,443,838.55,503.27,838,575.19ZM705.48,455.35c-65.54-.59-119.87,53-120.4,118.77s52.71,120.32,117.87,121c67.23.65,121.65-52.38,122.14-119C825.57,509.74,772.26,455.94,705.48,455.35Z" transform="translate(-572.15 -442.35)"/><path d="M708.43,568.6v-17c-4.17,0-8.16,0-12.14,0-4.7-.06-7.27-2.23-7.41-6.15-.14-4.09,2.53-6.67,7.27-6.8,4-.11,8,0,12.17,0,.86-5.41-1.4-13.1,7-13,8.1.07,5.9,7.52,6.63,13,4,0,7.84,0,11.69,0,5,.07,8,2.6,8,6.58s-3,6.34-8.09,6.39c-3.5,0-7,0-10.51.1a6.7,6.7,0,0,0-1.34.47v4.27q0,30.39,0,60.8c0,3.31-1.06,5.89-4.27,7.13s-5.57.1-7.59-2.34a10.15,10.15,0,0,0-1-.9c-6.13,3.14-12.51,4.63-19.47,3a26.39,26.39,0,0,1-20.54-24.79c-.09-3.89-.32-7.86.32-11.66,2.94-17.44,20.18-26.82,36.58-20.12C706.54,567.92,707.37,568.2,708.43,568.6Zm.35,26.57h-.18c0-1.29,0-2.59,0-3.88a13.38,13.38,0,0,0-26.76.21c-.08,2.46-.09,4.92,0,7.38a13.39,13.39,0,0,0,26.36,2.85A41.75,41.75,0,0,0,708.78,595.17Z" transform="translate(-572.15 -442.35)"/></svg>