<svg id="Layer_1" data-name="Layer 1" xmlns="http://www.w3.org/2000/svg" viewBox="0 0 143.81 263.47"><defs><style>.cls-1{fill:#dc2626;}</style></defs><path class="cls-1" d="M769.5,498.43c-8.89-8.85-17.12-17-25.31-25.22Q701.58,430.63,659,388c-3.42-3.4-5.42-7.18-4.46-12a12,12,0,0,1,19.32-6.88,34.59,34.59,0,0,1,2.7,2.58L792.42,487.6c7.56,7.56,7.54,13.5,0,21.09Q734.16,566.91,676,625.14c-3.4,3.41-7.17,5.44-12,4.5a12,12,0,0,1-6.72-19.58c.81-.95,1.73-1.8,2.61-2.68Q713,554.19,766.21,501A38.88,38.88,0,0,1,769.5,498.43Z" transform="translate(-654.26 -366.4)"/></svg>