<svg id="Layer_1" data-name="Layer 1" xmlns="http://www.w3.org/2000/svg" viewBox="0 0 143.79 263.95"><defs><style>.cls-1{fill:#373737;}</style></defs><path class="cls-1" d="M718.76,474.73c-1.81-1.49-3-2.29-3.92-3.25q-53.45-53.52-106.9-107c-3.19-3.19-5.16-6.72-4.55-11.33a12,12,0,0,1,18.89-8,24.23,24.23,0,0,1,2.75,2.52Q683.5,406.19,742,464.75c6.73,6.75,6.8,13.18.17,19.82Q683.56,543.28,625,602c-3.71,3.73-7.81,5.76-13.09,4.19a11.9,11.9,0,0,1-5.87-19c.87-1.06,1.89-2,2.86-3q53-53.15,106.08-106.27C715.9,477,717,476.18,718.76,474.73Z" transform="translate(-603.27 -342.78)"/></svg>