<svg id="Layer_1" data-name="Layer 1" xmlns="http://www.w3.org/2000/svg" viewBox="0 0 408.81 221.44"><path d="M1165.4,450.77c-3.05,4.25-5.59,9-9.23,12.68q-90.45,90.77-181.11,181.31c-4.91,4.92-10.42,8.35-17.38,6.34a25.28,25.28,0,0,1-10.36-6.19q-45.8-45.36-91.26-91.08-46.57-46.58-93.14-93.15c-7.48-7.5-8.37-16.63-2.46-24a16.78,16.78,0,0,1,23.84-2.52c1.44,1.18,2.75,2.51,4.07,3.83l169.09,169c1.11,1.11,2.26,2.17,4.22,4.05a31.92,31.92,0,0,1,2.93-4.07q84.93-85,169.91-169.93c8.25-8.24,18.3-9.21,25.4-2.07,2.34,2.34,3.68,5.67,5.48,8.55Z" transform="translate(-756.59 -430.25)"/></svg>