<svg id="Layer_1" data-name="Layer 1" xmlns="http://www.w3.org/2000/svg" viewBox="0 0 408.9 237.5"><path d="M1165.4,644.79c-1.24,3-2.89,5.61-6.38,6.46-5.71,1.38-10.42-2.29-10.54-8.66-.17-9.58,0-19.16-.06-28.74v-4.52H773.57v4.43q0,18.56,0,37.12c0,3.79-1.34,7.27-5,8.25a12.93,12.93,0,0,1-8.48-1c-1.7-.87-2.51-3.79-3.35-5.94-.45-1.17-.15-2.63-.15-4q0-107.19,0-214.37a22.86,22.86,0,0,1,.57-5.91A8,8,0,0,1,766,422a8.12,8.12,0,0,1,7.4,7.16,38,38,0,0,1,.21,4.78q0,27.74,0,55.48v4.76a29.61,29.61,0,0,1,2.84-.91c5.14-1.14,10.27-3.06,15.45-3.2,16.09-.42,32.2-.24,48.3-.13,13.65.1,25.39,5.17,35.28,14.47,9,8.49,10.18,19.1,7.87,30.55-.36,1.82-.79,3.62-1.34,6.06h5.15q133.33,0,266.66-.06c5.31,0,9.31,1.47,11.62,6.45ZM773.76,591.84h374.66V558.29H773.76ZM824.35,541h0c11.3,0,22.6.11,33.9-.09,2.06,0,4.71-.77,6-2.17,4.38-4.66,3.73-17.65-.86-22.17a32.91,32.91,0,0,0-23.73-9.66q-23.54-.12-47.07,0a25.58,25.58,0,0,0-7.44,1.1,16.92,16.92,0,0,0,5.26,32.91C801.74,541.12,813,541,824.35,541Z" transform="translate(-756.5 -421.94)"/></svg>