<svg id="Layer_1" data-name="Layer 1" xmlns="http://www.w3.org/2000/svg" viewBox="0 0 384 384"><defs><style>.cls-1{fill:#518ef7;}.cls-2{fill:#f04336;}.cls-3{fill:#28b346;}.cls-4{fill:#faba01;}</style></defs><path class="cls-1" d="M1018.44,639.4c16.79-10.3,30.65-23.56,40.56-40.67,3.21-5.54,5.82-11.44,9.08-17.93H965.37v-76h4.07q87.88,0,175.76-.07c3.24,0,4.67.74,4.91,4.17.37,5.34,1.24,10.65,1.94,16a14.76,14.76,0,0,0,.7,2.36v28.5c-.56,3.63-1.14,7.27-1.67,10.9-5.13,35.41-18.69,67.18-41.23,95-8.58,10.59-18,20.39-29,28.58-1.57-1.23-3.16-2.45-4.7-3.71Z" transform="translate(-768.75 -348.75)"/><path class="cls-2" d="M975.75,348.75c4.6.74,9.2,1.51,13.8,2.21a189.82,189.82,0,0,1,92.63,41.11,7.18,7.18,0,0,1,.87,1.09l-23.46,19.2c-12,9.81-24,19.59-35.93,29.48-1.78,1.47-3,1.77-5.18.54-62.34-35.75-139.16-8.26-164.88,58.93-.27.69-.62,1.35-.93,2q-10.32-8.34-20.62-16.67-20.87-16.94-41.72-33.91a18.63,18.63,0,0,1,.86-2.06c30.95-55.52,77.65-88.89,140.37-99.7,4.72-.81,9.46-1.5,14.19-2.25Z" transform="translate(-768.75 -348.75)"/><path class="cls-3" d="M1018.44,639.4l57.71,47.12c1.54,1.26,3.13,2.48,4.7,3.71a8.78,8.78,0,0,1-1,1.1,190.41,190.41,0,0,1-89.91,39.16c-5,.77-10,1.51-14.94,2.26H945.75c-3.62-.56-7.23-1.16-10.85-1.68-37.61-5.39-71-20.28-99.72-45.13a183.06,183.06,0,0,1-43.41-54.31l62-50.63c7.1,17.64,17.43,33,31.8,45.59A114.2,114.2,0,0,0,1015.46,641C1016.44,640.41,1017.45,639.92,1018.44,639.4Z" transform="translate(-768.75 -348.75)"/><path class="cls-4" d="M853.77,581l-62,50.63C781,612.36,774.39,591.7,771,570q-1.12-7.1-2.23-14.2v-30a6.29,6.29,0,0,0,.71-1.57c1-7.13,1.72-14.34,3.12-21.4,3.46-17.52,9.06-34.33,17.75-50q20.86,17,41.72,33.91,10.29,8.35,20.62,16.67c-3.25,11.13-5.69,22.38-6,34.06A122.45,122.45,0,0,0,853.77,581Z" transform="translate(-768.75 -348.75)"/></svg>