<svg id="Layer_1" data-name="Layer 1" xmlns="http://www.w3.org/2000/svg" viewBox="0 0 410.09 410"><defs><style>.cls-1{fill:#fff;}</style></defs><path class="cls-1" d="M1165,486.05V745H755V335h410V468.47c-1.08-6.67-1.74-13.45-3.32-20-9.49-39.3-31.38-68.53-70.15-82.64-26.62-9.68-53.38-8.7-79.06,4.12-21.28,10.63-36.63,27.51-48.69,47.66-1,1.76-2.06,3.55-3.26,5.62-3.33-5.26-6.11-10.09-9.31-14.64-18.85-26.76-43.11-45.17-76.73-48.33-27.53-2.59-52.64,4.3-74.41,21.52-26.39,20.89-39.83,48.94-43.46,82s5.84,62.87,23.82,90.33c14.25,21.77,31.62,40.95,50.93,58.15,40,35.61,80.52,70.54,120.9,105.68,5.36,4.66,11.47,4.19,17.3-.84,32.26-27.84,64.61-55.58,96.73-83.57,23.72-20.67,46.57-42.26,65.65-67.45,13.61-18,24.45-37.41,29.54-59.61C1163,499.73,1163.85,492.85,1165,486.05Z" transform="translate(-755 -335)"/><path d="M1165.09,468.9,1165,486c-1.15,6.78-2,13.63-3.51,20.32-5.08,22.17-15.91,41.59-29.51,59.55-19.06,25.16-41.89,46.72-65.58,67.38-32.09,28-64.41,55.68-96.64,83.49-5.83,5-11.93,5.49-17.28.83-40.34-35.1-80.87-70-120.79-105.57-19.28-17.19-36.64-36.35-50.88-58.1-17.95-27.43-27.42-57.15-23.79-90.23s17.06-61,43.42-81.89c21.74-17.2,46.83-24.09,74.33-21.51,33.59,3.16,57.83,21.56,76.66,48.29,3.19,4.54,6,9.37,9.29,14.63,1.21-2.08,2.22-3.86,3.27-5.62,12-20.13,27.38-37,48.64-47.61,25.66-12.81,52.39-13.79,79-4.12,38.73,14.1,60.61,43.3,70.08,82.56C1163.3,455.09,1164,462.05,1165.09,468.9ZM959.9,692.83a13.74,13.74,0,0,0,1.45-.93c36.22-31.52,72.74-62.73,108.56-94.72,20.86-18.63,39.95-39.09,54.31-63.42,14.56-24.68,20.26-51.07,13.88-79.3-7.06-31.29-24-54.95-55.07-66.14-21.51-7.76-42.83-6.53-63.14,4.81-17.1,9.53-29,24-38,40.92-4.1,7.71-7.12,16-10.71,24-2.09,4.67-5.73,7.26-10.91,7.27s-8.83-2.5-11-7.17c-.72-1.57-1.25-3.22-1.88-4.83-7.26-18.67-17-35.68-31.94-49.45-32.19-29.68-79.66-25.42-106.87,2.26-30,30.52-35.53,67.24-22.14,107,6.94,20.6,19.55,38.15,34.42,53.69C837.31,584,854.3,600.79,872,616.65,900.85,642.46,930.47,667.4,959.9,692.83Z" transform="translate(-755 -335)"/><path class="cls-1" d="M959.9,692.83c-29.43-25.43-59-50.37-87.89-76.18-17.71-15.86-34.7-32.62-51.13-49.81C806,551.3,793.4,533.75,786.46,513.15c-13.39-39.79-7.85-76.51,22.14-107,27.21-27.68,74.68-31.94,106.87-2.26,14.94,13.77,24.68,30.78,31.94,49.45.63,1.61,1.16,3.26,1.88,4.83,2.14,4.67,5.79,7.19,11,7.17s8.82-2.6,10.91-7.27c3.59-8,6.61-16.28,10.71-24,9-16.94,20.91-31.39,38-40.92,20.31-11.34,41.63-12.57,63.14-4.81,31,11.19,48,34.85,55.07,66.14,6.38,28.23.68,54.62-13.88,79.3-14.36,24.33-33.45,44.79-54.31,63.42-35.82,32-72.34,63.2-108.56,94.72A13.74,13.74,0,0,1,959.9,692.83Z" transform="translate(-755 -335)"/></svg>