<?xml version="1.0" standalone="no"?>
<!DOCTYPE svg PUBLIC "-//W3C//DTD SVG 20010904//EN"
 "http://www.w3.org/TR/2001/REC-SVG-20010904/DTD/svg10.dtd">
<svg version="1.0" xmlns="http://www.w3.org/2000/svg"
 width="512.000000pt" height="512.000000pt" viewBox="0 0 512.000000 512.000000"
 preserveAspectRatio="xMidYMid meet">

<g transform="translate(0.000000,512.000000) scale(0.100000,-0.100000)"
fill="#000000" stroke="none">
<path d="M702 4428 l-52 -53 386 -386 386 -386 -74 -43 c-270 -160 -553 -377
-792 -610 -116 -112 -356 -375 -356 -390 0 -16 218 -255 361 -395 616 -603
1294 -944 1929 -972 311 -14 673 59 985 198 l110 49 402 -402 403 -403 55 55
55 55 -1867 1867 c-1028 1028 -1870 1868 -1873 1868 -3 0 -29 -24 -58 -52z
m1026 -1131 l184 -184 -47 -66 c-198 -284 -205 -670 -16 -957 180 -275 487
-421 813 -388 154 15 295 72 450 181 16 10 38 -8 183 -153 l166 -165 -69 -33
c-167 -79 -426 -148 -651 -173 -590 -63 -1266 211 -1911 777 -126 111 -420
408 -420 425 0 21 409 420 525 512 195 156 563 405 600 407 6 0 93 -83 193
-183z m797 -797 c467 -467 489 -490 470 -505 -45 -34 -128 -77 -197 -102 -98
-34 -272 -43 -380 -19 -432 96 -668 573 -482 975 34 73 78 141 92 141 4 0 227
-220 497 -490z"/>
<path d="M2410 3924 c-146 -18 -262 -38 -361 -64 -116 -29 -256 -76 -273 -91
-4 -4 4 -39 20 -79 21 -55 31 -69 43 -65 158 63 383 117 566 136 570 57 1201
-183 1822 -695 113 -94 513 -485 513 -503 0 -15 -199 -225 -325 -343 -142
-133 -337 -288 -497 -397 -71 -48 -128 -90 -128 -94 0 -4 16 -35 36 -69 23
-38 42 -59 50 -56 57 22 372 255 540 399 123 106 389 376 478 485 l58 72 -58
73 c-93 115 -437 455 -578 571 -369 304 -761 523 -1136 635 -190 57 -354 82
-555 86 -99 2 -196 1 -215 -1z"/>
<path d="M2455 3420 c-91 -15 -265 -71 -265 -86 0 -16 67 -134 76 -134 7 0 34
9 60 20 26 12 90 28 143 37 335 57 668 -149 778 -482 24 -70 27 -96 27 -215 0
-133 -10 -188 -58 -300 -5 -12 11 -24 64 -50 38 -18 71 -32 73 -29 10 13 48
113 63 169 28 101 26 329 -4 435 -48 169 -146 323 -280 438 -81 70 -237 150
-344 177 -93 23 -250 32 -333 20z"/>
</g>
</svg>
