<svg id="Layer_1" data-name="Layer 1" xmlns="http://www.w3.org/2000/svg" viewBox="0 0 364.47 381.29"><path d="M857.41,459.27c-4.27-2-5.4-5.37-5.32-9.92.86-44.15,34.52-83.39,78-90.51a119.32,119.32,0,0,1,16.47-1.38c9.76-.21,19.54-.35,29.3,0,37,1.36,64.15,18.93,81.9,51.15,7,12.67,10,26.52,10.63,41,.19,4.5-1.17,7.75-5.31,9.68Z" transform="translate(-779.62 -77.98)"/><path d="M960.21,343a64.87,64.87,0,1,1,64.9-64.72A65,65,0,0,1,960.21,343Z" transform="translate(-779.62 -77.98)"/><path d="M1141.24,246.52a32.3,32.3,0,0,0-3.06-3.24q-82-79.17-164-158.28c-2.79-2.69-6.23-4.7-9.37-7h-6c-2.78,2-5.86,3.64-8.29,6q-82.73,79.73-165.32,159.58a32.8,32.8,0,0,0-2.33,2.39c-3.43,4.06-4.29,8.63-2.14,13.5,2.07,4.7,5.8,7.41,11,7.55,6.32.16,12.64.07,19,.11,1.3,0,2.59.14,4.17.22v5.23q0,85.32,0,170.65c0,10.92,4.71,15.57,15.64,15.57h83.66c11,0,15.67-4.61,15.67-15.49V420.43c-1.86.17-3.73.32-5.6.41a21.22,21.22,0,0,1-2.74,1.37,15.77,15.77,0,0,1-4.38,1.14v22.47H828c-.08-1.52-.21-3.06-.22-4.6q0-85.52-.1-171a22.56,22.56,0,0,0-2.2-9.94c-2.27-4.43-6.71-6-11.62-5.95H792.48L961.85,90.79l169.07,163.15c-1.4.16-2.28.35-3.16.35-6.07,0-12.14-.06-18.22,0-8,.14-13,4.93-13.54,12.84-.1,1.36,0,2.73,0,4.09V445.79h-89.42V415.92a83.17,83.17,0,0,1-12.72,1.77q0,13.53,0,27.07c0,8.24,5,13.91,12.69,13.94q44.81.18,89.6,0c6.91,0,11.78-4.86,12.5-11.8a50.1,50.1,0,0,0,.17-5.2q0-84.76,0-169.54v-5.09h4.54c6.32,0,12.64.08,19-.15,5-.18,8.6-3,10.63-7.5A11.94,11.94,0,0,0,1141.24,246.52Z" transform="translate(-779.62 -77.98)"/></svg>