<svg id="Layer_1" data-name="Layer 1" xmlns="http://www.w3.org/2000/svg" viewBox="0 0 351.45 352.16"><path d="M960.75,716.81c-30.5,0-61,.08-91.5,0-24.13-.09-44.19-15-50.46-37.73a54.1,54.1,0,0,1-1.95-14c-.17-30.37-.1-60.74-.08-91.12,0-9.93,6.76-17.17,15.94-17.2s16.06,7.22,16.09,17.11c.06,29.5.39,59-.13,88.5-.26,14.6,10.25,22.66,22.47,22.59q89.8-.52,179.61,0c11.84.06,22.3-8,22.08-22.2-.45-29.49-.15-59-.12-88.49,0-8.64,4.67-15.11,12-16.92a15.92,15.92,0,0,1,20,15.51c.13,10.37,0,20.75,0,31.12q0,29.8,0,59.62c0,30.74-22.46,53.22-53.26,53.27Q1006.12,716.88,960.75,716.81Z" transform="translate(-785.01 -364.68)"/><path d="M960.75,402.29l-58.09,52.26q-45,40.5-90,81c-7.51,6.75-17.12,6.65-23.41-.19s-5.5-16.78,2-23.58q79.11-71.25,158.27-142.45c7-6.27,15.51-6.19,22.62.2q74.7,67.19,149.37,134.41c3,2.67,6,5.32,8.9,8,7.26,6.77,8,16.61,1.86,23.36s-15.9,7-23.39.29L966,407C964.33,405.46,962.66,404,960.75,402.29Z" transform="translate(-785.01 -364.68)"/><path d="M890.71,696.82c-2.89-1.33-3.65-3.62-3.6-6.69.58-29.82,23.32-56.33,52.68-61.14a79.57,79.57,0,0,1,11.13-.93c6.59-.15,13.2-.24,19.78,0,25,.93,43.34,12.79,55.32,34.55,4.72,8.57,6.77,17.92,7.18,27.68.13,3-.78,5.23-3.58,6.53Z" transform="translate(-785.01 -364.68)"/><path d="M960.14,618.28A43.82,43.82,0,1,1,1004,574.57,43.89,43.89,0,0,1,960.14,618.28Z" transform="translate(-785.01 -364.68)"/></svg>