<?xml version="1.0" standalone="no"?>
<!DOCTYPE svg PUBLIC "-//W3C//DTD SVG 20010904//EN"
 "http://www.w3.org/TR/2001/REC-SVG-20010904/DTD/svg10.dtd">
<svg version="1.0" xmlns="http://www.w3.org/2000/svg"
 width="512.000000pt" height="512.000000pt" viewBox="0 0 512.000000 512.000000"
 preserveAspectRatio="xMidYMid meet">

<g transform="translate(0.000000,512.000000) scale(0.100000,-0.100000)"
fill="#000000" stroke="none">
<path d="M2433 5025 c-29 -8 -75 -26 -102 -39 -47 -24 -2043 -1626 -2129
-1709 -107 -104 -145 -252 -107 -416 45 -189 199 -335 384 -364 l70 -11 3
-921 c4 -1029 -1 -960 78 -1121 71 -144 211 -272 364 -329 123 -46 129 -46
1616 -43 l1405 3 70 23 c116 39 193 88 285 181 64 64 95 105 122 161 76 155
73 107 73 1028 l0 824 -24 19 c-32 26 -82 25 -109 -4 l-21 -22 -3 -815 c-3
-815 -3 -815 -26 -881 -27 -83 -88 -175 -150 -229 -94 -83 -246 -135 -372
-128 l-55 3 -5 330 c-6 310 -7 334 -29 395 -85 243 -319 441 -526 444 -131 1
-224 -66 -304 -222 -51 -98 -116 -161 -209 -205 -62 -30 -75 -32 -172 -32 -97
0 -110 2 -171 31 -87 42 -155 112 -208 217 -53 104 -89 149 -149 185 -41 24
-57 27 -132 27 -73 0 -95 -5 -160 -33 -148 -63 -275 -184 -345 -327 -63 -127
-67 -158 -72 -502 l-5 -313 -68 0 c-235 0 -429 135 -509 354 l-26 71 -3 927
-3 928 54 24 c30 13 77 39 104 57 27 19 418 332 869 696 450 364 823 663 827
663 5 1 382 -301 839 -672 456 -370 853 -688 881 -706 86 -54 151 -74 262 -79
116 -6 192 14 282 73 214 143 281 468 135 662 -44 59 13 11 -1166 967 -524
425 -961 772 -992 788 -110 56 -257 72 -371 42z m259 -165 c42 -15 171 -115
568 -437 1669 -1353 1562 -1265 1589 -1318 35 -67 37 -196 4 -267 -30 -65 -96
-133 -160 -164 -98 -48 -237 -32 -335 38 -24 18 -221 176 -438 352 -217 176
-597 484 -844 685 -247 200 -462 371 -477 380 -22 12 -34 13 -56 5 -15 -6
-419 -327 -898 -714 -648 -523 -887 -711 -935 -734 -81 -38 -182 -47 -258 -22
-71 24 -135 84 -174 164 -29 58 -33 76 -33 147 0 146 -75 77 1065 996 553 446
1025 825 1049 842 100 69 227 87 333 47z m-722 -3636 c17 -15 50 -65 73 -113
54 -111 160 -223 257 -269 165 -80 338 -83 499 -11 127 58 211 142 294 295 51
95 80 118 146 118 106 0 276 -124 343 -250 53 -98 58 -142 58 -466 l0 -298
-1077 2 -1078 3 0 290 c0 317 5 354 57 459 33 65 121 164 176 198 57 35 145
68 184 68 25 0 46 -8 68 -26z"/>
<path d="M2421 3089 c-73 -14 -141 -39 -226 -82 -112 -58 -254 -199 -312 -312
-72 -139 -88 -209 -88 -370 1 -131 3 -146 32 -231 94 -272 301 -458 577 -519
115 -26 283 -17 391 19 217 73 391 233 477 438 78 185 78 412 0 597 -97 230
-310 405 -558 456 -79 16 -222 18 -293 4z m279 -165 c218 -51 400 -230 455
-449 19 -76 19 -214 0 -290 -56 -219 -231 -394 -450 -450 -76 -19 -214 -19
-290 0 -105 27 -203 83 -280 160 -67 67 -125 152 -140 204 -7 22 -5 23 16 17
133 -38 150 -40 269 -40 99 0 142 5 205 23 100 28 204 78 274 132 49 37 57 40
75 28 97 -61 120 -72 146 -72 37 0 67 26 75 64 9 40 -14 73 -68 100 -23 12
-66 39 -96 60 -74 53 -99 51 -164 -10 -70 -65 -136 -104 -232 -136 -154 -52
-339 -42 -482 25 l-63 29 0 44 c0 63 35 189 71 257 78 148 231 264 399 305 75
18 201 18 280 -1z"/>
</g>
</svg>
