<svg id="Layer_1" data-name="Layer 1" xmlns="http://www.w3.org/2000/svg" viewBox="0 0 347.19 341.35"><path d="M948.75,679.06c3.89,0,7.25-.06,10.61,0,4.06.09,6.68,2.56,6.61,6.08s-2.61,5.69-6.47,5.86c-1,.05-2,0-3,0H628.09c-1,0-2,0-3,0-3.82-.21-6.33-2.61-6.31-6s2.52-5.88,6.37-5.92c8.5-.09,17,0,25.5,0h10.1v-4.27c0-29.06.3-58.13-.15-87.18-.17-11.09,4.83-16.87,16.71-16.48,17,.56,34,.14,51,.14h4.46V358.94c0-7.71,1.51-9.24,9.11-9.24H939.81c7.35,0,8.94,1.61,8.94,9.05V679.06Zm-168-.19H918.54v-299H763V571.27a22.7,22.7,0,0,0,2.5,0c8.88-1.11,15.53,4.39,15.37,15.42-.42,29.31-.14,58.62-.14,87.93Zm-107.82-.08h95.64V583.48H744.75v4.27c0,12.1.15,24.21-.14,36.3-.06,2.13-1.47,5.12-3.17,6.05s-4.86.38-6.79-.64c-4.17-2.21-7.89-5.25-12-7.68a4.48,4.48,0,0,0-3.85,0c-3.87,2.27-7.56,4.85-11.28,7.38-2.38,1.61-4.78,2.79-7.63,1.19s-3.22-4.16-3.2-7.06c0-12,0-23.95,0-35.93v-3.94H672.93ZM750.75,571.1V376.64c0-7.38,1.6-9,9-9H921.38c7.9,0,9.37,1.46,9.37,9.36V678.88h5.77V362H744.93V571.1Zm-41.69,12.23v30.43c2.65-1.76,5.05-3.25,7.33-4.9a6.75,6.75,0,0,1,8.63-.07c2.37,1.66,4.86,3.16,7.44,4.83V583.33Z" transform="translate(-618.78 -349.7)"/><path d="M870.5,517.37a14.59,14.59,0,0,1,1.87,0c3.48.45,5.65-.5,7.63-4,3.94-6.93,12.61-9.58,20.26-7.16a17.93,17.93,0,0,1-.66,34.36c-7.77,2.16-16.08-.85-20-7.87-1.62-2.89-3.4-3.71-6.42-3.45a64.57,64.57,0,0,1-8.23,0c-3.76-.17-6.26-2.73-6.17-6.12s2.52-5.6,6.11-5.8c1.86-.1,3.74,0,5.61,0Zm24.19,12a6,6,0,1,0-5.91-5.92A6,6,0,0,0,894.69,529.32Z" transform="translate(-618.78 -349.7)"/></svg>