<?xml version="1.0" standalone="no"?>
<!DOCTYPE svg PUBLIC "-//W3C//DTD SVG 20010904//EN"
 "http://www.w3.org/TR/2001/REC-SVG-20010904/DTD/svg10.dtd">
<svg version="1.0" xmlns="http://www.w3.org/2000/svg"
 width="512.000000pt" height="512.000000pt" viewBox="0 0 512.000000 512.000000"
 preserveAspectRatio="xMidYMid meet">

<g transform="translate(0.000000,512.000000) scale(0.100000,-0.100000)"
fill="#000000" stroke="none">
<path d="M413 4466 c-191 -46 -353 -209 -398 -397 -22 -97 -22 -2921 0 -3018
35 -148 148 -289 285 -353 41 -20 99 -41 128 -47 37 -8 663 -11 2135 -11 2288
0 2141 -4 2269 61 130 66 247 220 277 367 15 75 15 2909 0 2984 -30 147 -147
301 -277 367 -128 65 21 61 -2277 60 -1651 -1 -2101 -3 -2142 -13z m4297 -227
c80 -37 125 -81 162 -157 l33 -67 0 -1455 0 -1455 -33 -67 c-37 -76 -82 -120
-162 -157 l-55 -26 -2095 0 -2095 0 -67 33 c-76 37 -120 82 -157 162 l-26 55
0 1455 0 1455 26 55 c47 99 116 159 218 186 36 10 498 12 2121 11 l2075 -2 55
-26z"/>
<path d="M1524 3620 c-219 -33 -400 -203 -445 -418 -16 -78 -7 -214 19 -287
80 -219 303 -367 532 -352 273 18 483 228 498 497 5 105 -9 176 -52 266 -99
206 -329 328 -552 294z m214 -239 c65 -33 118 -87 149 -149 24 -48 28 -69 28
-137 -1 -105 -27 -167 -101 -234 -125 -114 -303 -114 -428 0 -154 140 -136
380 38 497 66 44 97 52 191 48 59 -2 91 -8 123 -25z"/>
<path d="M3019 3381 c-49 -49 -36 -134 25 -166 28 -14 95 -16 703 -13 l671 3
26 24 c51 48 40 142 -20 170 -18 8 -224 11 -700 11 l-676 0 -29 -29z"/>
<path d="M3038 2543 c-56 -35 -66 -117 -19 -164 l29 -29 676 0 c476 0 682 3
700 11 60 28 71 122 20 170 l-26 24 -676 2 c-618 2 -679 1 -704 -14z"/>
<path d="M1085 2339 c-76 -11 -206 -74 -267 -128 -59 -52 -115 -137 -147 -221
-21 -57 -25 -86 -29 -236 -4 -146 -2 -175 13 -203 22 -44 75 -66 120 -51 65
21 69 34 75 219 5 152 8 171 32 222 32 69 88 127 154 160 l49 24 501 3 c488 2
503 2 558 -18 71 -27 139 -93 174 -168 24 -52 26 -72 31 -223 7 -185 11 -198
76 -219 45 -15 98 7 120 51 26 49 17 350 -13 431 -60 164 -176 280 -344 340
-62 22 -71 23 -553 24 -269 1 -517 -2 -550 -7z"/>
<path d="M3054 1696 c-41 -18 -64 -52 -64 -96 0 -45 23 -78 66 -96 50 -21
1309 -21 1359 0 35 15 65 59 65 96 0 37 -30 81 -65 96 -50 20 -1314 20 -1361
0z"/>
</g>
</svg>
