<svg id="Layer_1" data-name="Layer 1" xmlns="http://www.w3.org/2000/svg" viewBox="0 0 303.92 303.9"><path d="M808,533c-.19-83.74,67.74-151.85,151.68-152.09,83.69-.23,152,67.75,152.24,151.59.27,83.63-67.8,152-151.56,152.31S808.23,617,808,533ZM959.9,668.86C1034.58,669,1095.73,608,1096,533c.28-74.66-60.84-136-135.79-136.17-74.78-.23-136,60.74-136.24,135.66S884.8,668.7,959.9,668.86Z" transform="translate(-808.04 -380.87)"/><path d="M951.94,588.79V524.86c-2.34,0-4.54,0-6.73,0-5.45-.12-9-3.22-9.15-7.87s3.55-8.09,9.18-8.21q6.74-.13,13.49,0c6.36.12,9.31,3.16,9.32,9.56q0,33.34,0,66.69v3.76c2.72,0,5.18-.07,7.63,0,4.89.19,8.2,3.39,8.25,7.88s-3.06,7.94-8,8q-15.93.2-31.85,0a7.83,7.83,0,0,1-8-7.73c-.1-4.41,3.29-7.89,8.07-8.13C946.61,588.69,949.1,588.79,951.94,588.79Z" transform="translate(-808.04 -380.87)"/><path d="M960.09,492.77a16,16,0,0,1-.26-32,16,16,0,1,1,.26,32Z" transform="translate(-808.04 -380.87)"/></svg>