<svg id="Layer_1" data-name="Layer 1" xmlns="http://www.w3.org/2000/svg" viewBox="0 0 371.86 264.19"><path d="M1082.76,513.72h4.63c14.87,0,29.75,0,44.62,0,5.75,0,10.23,2.16,13,7.25s2.1,10.06-1,14.85q-18.82,28.63-37.6,57.33c-15.62,23.81-31.3,47.58-46.78,71.47-3.69,5.69-8.37,8.28-15.21,8.27q-126.72-.17-253.45-.09a24.73,24.73,0,0,1-5.59-.38c-9.67-2.3-13.47-12.88-7.72-21.71q20.45-31.38,41.06-62.67,11.72-17.87,23.43-35.71c.74-1.13,1.4-2.3,2.46-4-7.7,0-14.89-.39-22,.08-15.27,1-19.31-6.87-19.17-19.14.41-34.74.14-69.48.15-104.23,0-11.31,5-16.3,16.14-16.3H953.13c10.74,0,15.85,5.1,15.85,15.8q0,42.18,0,84.36v4.65h14.09c0-3.78-.28-7.5.06-11.16.57-6.16,3.43-11.36,7.42-16.06a6.68,6.68,0,0,0,1.47-4.8c-2.15-12.32,2.77-23.3,13.39-29.76a4.9,4.9,0,0,0,2.07-3.58c-.33-14.76,10.93-26.68,25.46-26.74s25.94,11.66,25.58,26.48c0,.86,0,1.72,0,2.67,10.3,5.34,15.94,13.73,16.16,25.44.12,6.15.92,9.41,4.31,14.86C1083.28,497.77,1084.13,505.31,1082.76,513.72ZM1039,534.79v25.83c0,1,0,2,0,3-.23,3.91-2.54,6.38-5.92,6.39s-5.91-2.45-6-6.34c-.15-8.25,0-16.5-.08-24.75,0-1.28-.12-2.57-.2-4-14.35,5.21-26.68,3.29-36.9-8a3,3,0,0,0-1.83-1.07c-6.31-.08-12.63,0-19.12,0,0,2.9,0,5.26,0,7.62-.05,9.45-5.47,14.89-14.88,14.9q-21.75,0-43.5,0h-4.37v4.49c0,9.75,0,19.5,0,29.25,0,5.93-1.89,7.77-7.89,7.8q-12.18,0-24.37,0c-5.74,0-7.69-2-7.71-7.63q0-12.75,0-25.49v-8.43c-3.27.6-6.32-1.4-8.71,2.27q-34.57,53.06-69.35,106a13.74,13.74,0,0,0-1.12,3.33,13.5,13.5,0,0,0,3.4.94q127.11.06,254.22-.06a6.22,6.22,0,0,0,4.45-2.37q42.27-64.14,84.29-128.44a4.66,4.66,0,0,0,.76-3.28c-.14-.52-1.9-.86-2.93-.86q-25.87-.07-51.75,0a4.87,4.87,0,0,0-3.26,1.18C1065.93,538.17,1053.63,540.14,1039,534.79ZM894.23,577.65v-4.33q0-14.25,0-28.5c0-6.64,1.88-8.54,8.42-8.54,16.63,0,33.25-.08,49.87.06,3.3,0,4.55-.68,4.54-4.32q-.21-53.61,0-107.23c0-3.39-1.11-4.17-4.31-4.16q-66.54.14-133.1,0c-3.39,0-4.2,1.12-4.19,4.31q.13,53.61,0,107.23c0,3.34,1.06,4.22,4.31,4.19,17-.15,34-.09,51-.06,5.34,0,7.47,2.18,7.49,7.54,0,9.87,0,19.75,0,29.62v4.2Zm131.91-80,.9-.4v-4.46c0-7.12-.09-14.24.09-21.36.09-3.7,2.55-6.06,5.79-6.15a5.74,5.74,0,0,1,5.95,5.1,43.49,43.49,0,0,1,.17,5.24c0,2.36,0,4.72,0,8a37,37,0,0,1,3.63-3.29c2.71-1.8,5.48-1.8,7.83.58s2.39,4.88.65,7.5a10.4,10.4,0,0,1-2.52,2.76c-8.29,5.81-10.84,13.68-9.73,23.58.76,6.85.14,6.92,6.52,9.5,8.93,3.61,18.5.56,23.19-7.39a18.87,18.87,0,0,0-4.67-24.85c-4.4-3.44-4.77-4.83-2.67-9.88,3.83-9.23-.57-18.43-10.2-21.3-5.75-1.71-6.91-3.86-5.22-9.67,1.75-6-.15-11.87-4.95-15.32a13.52,13.52,0,0,0-20.71,15.11c1.72,6.2.68,8.15-5.27,9.94-9.44,2.83-13.85,12-10.12,21.06,2.16,5.23,1.78,6.61-2.77,10.18a18.32,18.32,0,0,0-6.35,20.45c3.43,11,14.65,16.08,25.57,11.46,7.6-3.22,8.16-6.09,2.33-12-4-4.08-8.14-8.11-12.1-12.28-2.67-2.8-2.68-6.25-.27-8.68s5.86-2.38,8.69.28C1022.05,493.39,1024.06,495.57,1026.14,497.68Z" transform="translate(-774.9 -408.69)"/><path d="M886.27,429.61a48.89,48.89,0,1,1-49,48.76A49,49,0,0,1,886.27,429.61Zm.06,85.76a36.88,36.88,0,1,0-37-36.82A36.95,36.95,0,0,0,886.33,515.37Z" transform="translate(-774.9 -408.69)"/><path d="M879.69,463.71c-1.57.85-3,1.6-4.36,2.34-2.42,1.29-4.63.34-5.31-2.29-.47-1.81-.94-3.61-1.36-5.43a3.21,3.21,0,0,1,1.64-3.67q6-3.27,12-6.44a3.79,3.79,0,0,1,1.62-.39c2.07,0,4.14,0,6.2,0a3.39,3.39,0,0,1,3.48,3.41v.51q0,26.83,0,53.67a5.36,5.36,0,0,1-.65,2.48,2.91,2.91,0,0,1-2.71,1.45c-2.32,0-4.65,0-7,0a3.35,3.35,0,0,1-3.59-3.62c0-5.23,0-10.47,0-15.71v-26.3Z" transform="translate(-774.9 -408.69)"/></svg>