<?xml version="1.0" standalone="no"?>
<!DOCTYPE svg PUBLIC "-//W3C//DTD SVG 20010904//EN"
 "http://www.w3.org/TR/2001/REC-SVG-20010904/DTD/svg10.dtd">
<svg version="1.0" xmlns="http://www.w3.org/2000/svg"
 width="512.000000pt" height="512.000000pt" viewBox="0 0 512.000000 512.000000"
 preserveAspectRatio="xMidYMid meet">

<g transform="translate(0.000000,512.000000) scale(0.100000,-0.100000)"
fill="#000000" stroke="none">
<path d="M1910 4414 c-432 -300 -793 -555 -802 -566 -35 -40 -24 -72 83 -227
55 -80 110 -154 121 -163 36 -32 68 -22 181 57 l107 74 0 -490 0 -490 25 -24
c29 -30 74 -32 106 -6 l24 19 5 553 5 553 478 333 477 333 478 -333 477 -333
5 -553 5 -553 24 -19 c30 -24 72 -24 102 0 l24 19 5 495 5 494 104 -73 c99
-70 128 -82 165 -68 9 3 66 77 126 164 124 178 132 202 81 248 -16 15 -130 97
-254 182 l-226 155 -1 358 0 358 -25 24 -24 25 -271 0 -271 0 -24 -25 c-24
-23 -25 -29 -25 -155 0 -71 -2 -130 -4 -130 -3 0 -105 70 -227 155 -148 103
-231 155 -248 155 -18 0 -267 -167 -811 -546z m1770 140 l0 -246 -32 24 c-18
13 -90 64 -160 112 l-128 89 0 133 0 134 160 0 160 0 0 -246z m-245 -269 c385
-267 706 -492 713 -499 10 -9 3 -25 -33 -76 -25 -36 -50 -66 -55 -68 -6 -2
-274 181 -597 406 -733 510 -721 502 -739 502 -9 0 -24 -5 -35 -10 -10 -6
-309 -213 -664 -460 l-645 -448 -50 71 c-32 45 -47 74 -41 80 29 29 1428 996
1436 993 6 -2 325 -223 710 -491z"/>
<path d="M2265 3495 l-25 -24 0 -431 c0 -257 4 -439 10 -449 5 -10 23 -24 40
-31 35 -15 84 0 100 31 6 10 10 172 10 393 l0 376 320 0 320 0 0 -375 0 -376
25 -24 c32 -33 78 -33 110 0 l25 24 0 431 0 431 -25 24 -24 25 -431 0 -431 0
-24 -25z"/>
<path d="M4463 2922 c-29 -10 -69 -30 -90 -45 -21 -14 -152 -140 -290 -280
-235 -235 -253 -255 -253 -288 0 -46 34 -79 80 -79 31 0 57 22 295 259 143
142 276 267 295 276 117 59 283 -28 297 -157 10 -88 -15 -138 -200 -404 -95
-137 -265 -382 -377 -544 -221 -320 -300 -412 -405 -467 -135 -71 -84 -67
-965 -73 l-795 -5 -56 -23 c-31 -13 -78 -41 -105 -62 l-49 -38 -545 544 c-510
509 -548 544 -580 544 -32 0 -55 -20 -297 -263 -243 -242 -263 -265 -263 -297
0 -33 40 -75 663 -697 622 -623 664 -663 697 -663 32 0 55 20 297 263 311 310
300 290 201 394 l-63 64 25 20 c70 56 29 54 885 59 876 6 830 3 982 75 93 43
162 95 243 181 54 58 433 593 745 1052 120 175 147 285 106 420 -27 90 -103
177 -189 218 -76 37 -210 44 -289 16z m-3158 -1622 l580 -580 -183 -182 -182
-183 -582 582 -583 583 180 180 c99 99 182 180 185 180 3 0 266 -261 585 -580z"/>
<path d="M1496 2380 c-116 -25 -250 -92 -352 -175 -99 -82 -114 -100 -114
-137 0 -42 15 -64 51 -77 39 -13 51 -7 145 74 85 75 141 109 237 144 l72 26
929 3 c1042 3 989 6 1065 -69 93 -93 93 -245 0 -338 -71 -71 -73 -71 -606 -71
l-474 0 -24 -25 c-33 -32 -33 -78 0 -111 l25 -25 502 3 503 3 67 32 c93 44
151 100 196 191 35 72 37 81 37 172 0 91 -2 100 -37 172 -45 91 -103 147 -196
191 l-67 32 -935 2 c-882 2 -940 1 -1024 -17z"/>
</g>
</svg>
