<svg id="Layer_1" data-name="Layer 1" xmlns="http://www.w3.org/2000/svg" viewBox="0 0 1521.17 1342.63"><defs><style>.cls-1{fill:#a01e23;}.cls-2{fill:#a51f24;}.cls-3{fill:#681212;}.cls-4{fill:#701415;}.cls-5{fill:#a67228;}.cls-6{fill:#902023;}.cls-7{fill:#b28c43;}.cls-8{fill:#a16e27;}.cls-9{fill:#c2a254;}.cls-10{fill:#ba882d;}.cls-11{fill:#be9c4e;}.cls-12{fill:#7d181a;}.cls-13{fill:#af7d29;}.cls-14{fill:#936025;}.cls-15{fill:#f3e78c;}.cls-16{fill:#a77b38;}.cls-17{fill:#cdb25e;}.cls-18{fill:#d8c168;}.cls-19{fill:#e2c966;}.cls-20{fill:#eedc78;}.cls-21{fill:#e2d073;}.cls-22{fill:#c69a39;}.cls-23{fill:#d9ba58;}.cls-24{fill:#d0aa49;}.cls-25{fill:#6d2323;}</style></defs><path class="cls-1" d="M953.84,483.45c-.4-.78-.79-1.57-1.18-2.36-.28-.49-.57-1-.86-1.47L950.33,477l.12-.74-.68-.38L948,472.71l.28-.42-.57-.25-.24-.6-7.46-15-1.51.71v14.19c-.14,3.31-.39,6.63-.39,9.94q0,173.65,0,347.31c0,3.66-.12,7.32-.19,11l-1.75,1.61L933.36,843l-.44-.25-.2.58-.51-.08-.25.46-2.12,1.45-2.1,1-1.51,1.08-.33.17L923.52,849l-5.88,3.43a.94.94,0,0,0-1.29.84l-.42.21L913.62,855l-1.82.85-1.8,1.29-2.42,1.45-.75,0-.36.7-.53.26-2.25,1.53-6.25,3.8-.55-.18-.24.59-.7.34-2.16,1.47-3.9,2.27-3.23,2-.69.32-2.11,1.41-2.12,1.06-1.45,1.07-.37.19L877.55,877l-5.91,3.5-.82,0-.39.74-.49.24L867.68,883l-1.86.88L864,885.14l-2.51,1.59-.66-.11-.29.64-.6.29L857.73,889l-1.92.92-1.67,1.2-2.69,1.28a3.21,3.21,0,0,0-1.58-.79q0-302.23.1-604.47c0-3.46,1.3-6.93,2-10.4l2-1.38,24-14.47,2.13-1.48,7.87-4.6c.69-.47,1.37-.95,2-1.43l20-11.07,6.35,9.09,1.39,2.28,6.39,11.69c.51.83,1,1.67,1.52,2.51l6.27,11.45,1.62,2.92a.77.77,0,0,0,.56,1.11l1.5,2.66q5.25,9.65,10.49,19.29l5.67,10.23,18.29,33.79,1.52,2.72a1,1,0,0,0,.59,1.29c.49.83,1,1.66,1.48,2.5l12.57,23.49c.48.82,1,1.63,1.45,2.44a1.32,1.32,0,0,0,.67,1.57c.45.73.91,1.45,1.37,2.18l-.06-.09c.91,1.8,1.83,3.59,3.31,6.48l2.83-6.64,34.26-63.41,1.5-2.51q11.27-20.68,22.52-41.37l1.57-2.63q5.25-9.54,10.51-19.08l1.63-2.94,7.49-11.13,20.4,11.2,2.24,1.53.54.26.32.64.67-.11,6.15,3.71,2.31,1.56.35.17,3.56,2.11,3.68,2.19,2.4,1.57.37.17a.93.93,0,0,0,1.31.81l5.81,3.49,2.48,1.59.29.13,1.49,1,2.09,1.13,2,1.43c.63,3.5,1.79,7,1.79,10.5q.09,298.86,0,597.72c0,2,.14,4,.21,6l-4,.45-.56-.27-.36-.72-.79,0-12.3-7.4-1.91-1.36a1.54,1.54,0,0,0-1.65-.78l-2.41-1.57-3.92-2.31-2.14-1.45-.6-.29-3.32-2L1098,871l-12.21-7.58-.45-.23a.85.85,0,0,0-1.22-.77l-5.94-3.48-2.34-1.58-.35-.18-1.46-1-2.17-1.1-2-1.41-.31-.49-.58,0-.18-.53-.26.32-6.54-4-2.12-1.46-.24-.44-.49.09-.23-.58-.51.2-2.72-1.7-1.67-1.21L1052,843l-2.22-1.5-.6-.29a1.24,1.24,0,0,0-1.38-1.06c-.2-3.64-.58-7.27-.58-10.91q0-176.49,0-353c0-3.63-.35-7.27-.54-10.9l.57-9.17-1.68-.37-4.56,9.55L1031.7,483c-.79,1.46-1.57,2.92-2.36,4.37l-3.42,6.29-.84,1.45L1016,512.22l-.5.25.37,0c-.62,1.17-1.24,2.34-1.87,3.51l-.6.25.26.51-3.81,6.55-33.94.31q-3.55-6.25-7.09-12.51c-.33-.52-.66-1-1-1.57-.45-.85-.9-1.7-1.34-2.55q.4-1-.69-1.29l-1.61-2.88.18-.63-.62-.34-.2-.47q-1.18-2.31-2.38-4.62l-1.91-3.56-1.31-2.05-3-6Z" transform="translate(-268.55 -49.81)"/><path class="cls-2" d="M1469.56,338.52l1.9.92,10.06,6.11-.08-.07,2.31,1.56.36.17a1,1,0,0,0,1.32.86l8.58,5.19,1.49,1,2.09,1.08,10,6.07,0,0,12.23,7.6.36.17q.22,1.08,1.23.72l2.37,1.4,1.83,1.29,1.76.86,2.4,1.6.25.12,29.25,18.32q.26,2.89.49,5.81v66c-.32,6.66-.63,13.33-1,20.94l-13.14-6.65-.36-.18-23.46-14.2h0l-2.12-1.44-.23-.45-.5.09-.22-.61-.58.15-2.59-1.62-21.87-13.43a1.47,1.47,0,0,0-1.59-.77L1467.62,432a1.62,1.62,0,0,0-1.69-.82l-2.3-1.53-.4-.19-17.36-10.54-2.5-1.57-1.56-1.12-2-1-10-6.06h0l-16-9.83-.13-.08-1.84-1.31a1.6,1.6,0,0,0-1.69-.82l-36.2-22,0,0-6.13-3.82-.08-.05-1.91-1.33-8-4.68-24.16-14.94-5.59-3.14-2.38-1.59-.34-.17-1.46-1-2.15-1.11-2-1.37-3.47-2.12-8.66-5.23-2.1-1.21-1.73-1.23-1.89-.9-2.24-1.53-.53-.26-.36-.7-.76,0-2.45-1.42-1.78-1.3-1.76-.85-2.37-1.55-.4-.2a1,1,0,0,0-1.34-.91l-5.82-3.37-22.38-13.72-.15-.08-1.75-1.25-1.85-.89-20-12.15,0,.06-2.28-1.58-.29-.15-1.58-1.11-2-1-2.16-1.48-.53-.26-7.29-4.32,0,0-2.2-1.49-.45-.22-13.45-8.14-3.68-2.2-20.41-12.6-2.1-1.19L1164,247.17l0,.05-2.26-1.56-.35-.18a1,1,0,0,0-1.38-.89l-2.24-1.23-1.91-1.35-4.41-2.56-1.52-1.09-8.4-4.92-1.63-1.19-1.92-1-12.26-7.57-.46-.23-.37-.73-.81,0-2.31-1.34-1.89-1.32a1.68,1.68,0,0,0-1.73-.81l-2.38-1.61-.31-.16-1.49-1-5.68-3.26-6.41-3.86h0l-2-1.43-7.85-4.59-10-6.1.06,0-2.26-1.54-.42-.21a1,1,0,0,0-1.3-.88l-8.54-5.13-21.72-13.38-1.73-.83-2.29-1.54-.44-.22-.4-.73h-.81l-2.38-1.38-1.82-1.3-4.5-2.58-15.61-9.64-3.35-2.05L992.62,141.9l-14.48,9.63-.24.12-2.45,1.61a1.55,1.55,0,0,0-1.66.8l-1.95,1.34-2.16,1.16a1.07,1.07,0,0,0-1.39,1l-.36.18-2.38,1.57-6,3.58-.75-.05-.33.7-2.69,1.73-29.88,18.17-2.28,1.32a.91.91,0,0,0-1.3.8l-.39.18-2.34,1.58-1.8.88-1.8,1.26c-.82.49-1.64,1-2.45,1.48l-.74-.06-.34.68-.51.25-2.23,1.53,0,0-7.27,4.35-.53.24-2.2,1.49-2,1-1.55,1.11-.27.14-2.48,1.6q-2.87,1.68-5.75,3.34a1,1,0,0,0-1.37.95l-.38.19-2.39,1.56-5.94,3.51h-.8l-.38.75-.42.21-12.3,7.57-1.93,1-1.62,1.17-4.23,2.48L837.6,237.25l-1.77.86L834,239.4l-.11.06-13.39,8.13-.51.25-2.23,1.47-2,1-1.6,1.17-6.32,3.9-6.32,3.89L796,262.36l-11.54,7.2-.44.21-2.29,1.51-1.74.84-24.37,15.1-3.67,2.19-49.51,30.12-.39.18-2.22,1.54,0,0-10,6.06-2,1-1.55,1.16-8.49,5-1.45,1-2.51,1.63-20.06,12.2-1.76.84-14.46,9.07-5.76,3.3a1.06,1.06,0,0,0-1.37,1l-.39.19-2.4,1.55-1.73.83-1.83,1.3-.11.08-13.41,8.12-.51.24-2.16,1.49v0l-7.23,4.32-.6.28L598,383.28l-2.1,1.06-1.51,1.07-.31.15c-.8.54-1.61,1.07-2.42,1.6-1.21.72-2.41,1.45-3.61,2.18l-6.28,3.85-1.79.87-1.8,1.27-2.42,1.43-.76,0-.33.71-.54.27-2.2,1.51,0,0-10,6-2,1-1.55,1.16-8.49,5-1.47,1-.32.16-2.26,1.59,0-.05-13.68,8.23-.14.07-6.19,3.81-11.93,7-1.52,1.11L508,437.91l-1.92,1.36-.06,0-9.88,6-2.39,1.43-.75,0-.35.71-.54.26-2.26,1.52-1.73.84L470,461.24l-2.08,1.06-1.39,1.05L463.9,465l-10.11,6.18-3.76,2.2-3.48,2.09-.42.2-2.28,1.52-11.9,7-1.53,1.13-2.88,1.4a2.83,2.83,0,0,0-1.53-.84V394.24l8.3-6.23a.89.89,0,0,0,1.26-.78l4.58-2.63,1.82-1.31.06,0,6.16-3.83-.05,0,6.44-3.91L472.09,365l2.2-1.54-.09.08,10.08-6.12,1.87-.9,1.76-1.25.09-.05,16.13-9.86,12.11-7.25a1.05,1.05,0,0,0,1.38-.91l.3-.14q6.17-3.82,12.35-7.63l1.86-.89,1.72-1.25,2.59-1.61.59.15.27-.61,4.85-2.81,1.58-1.14,4.36-2.5,2-1.41,2.14-1.16a1.11,1.11,0,0,0,1.4-1l4.48-2.55,1.89-1.36,4.08-2.36,2.25-1.53,6.05-3.66.71.07.33-.66.52-.25,2.29-1.53,6-3.63,10.24-6.26,5.75-3.32,1.44-1,.29-.15,2.45-1.59a1.6,1.6,0,0,0,1.71-.8l1.86-1.35,2.34-1.38q1,.33,1.2-.75l.43-.2,2.3-1.54-.09.07,10-6.12,12-7,1.55-1.11,2.47-1.56,7.45-4.49,4.36-2.49,18.17-11.31,2-1,1.57-1.15,8.46-5,1.47-1,4.45-2.56,1.87-1.36.05,0,9.9-6,.07,0,16.16-9.86,2-1,1.63-1.18.19-.09,2.5-1.65,5.51-3.08,11.6-7.23,4.53-2.62,1.79-1.28.08,0,9.82-6,8.17-4.78,18-11.16,0,0,9.87-6,4.2-2.44,2.12-1.45,1.93-.95,1.65-1.19.19-.1,2.56-1.63a1.34,1.34,0,0,0,1.54-.72l2-1.43h0l9.95-6.05,2.25-1.28a1,1,0,0,0,1.33-.84l.35-.17,2.38-1.59,1.78-.82,1.84-1.31,2.41-1.5.73.05.34-.68.5-.24,2.31-1.53,1.88-.88,1.73-1.25,4.23-2.46,2.08-1.44,2-1,1.57-1.13,4.36-2.5,2-1.4,9.94-6.06,4.84-2.73.4-.21,14.55-9.09,4.18-2.41,18.37-11.37,5.92-3.54h.78l.38-.7L916,94.69l1.75-1.28,6.22-3.82,10-6.1,8-4.67,1.9-1.36L957.92,69l2.17-1.48,1.87-.89,1.73-1.24L966.07,64l13.85-8.44h0l6.31-3.91C992,47.67,997,51.08,1002,53.46l19.79,12,3.61,2.14,10.11,6.22-.07-.07q6.19,3.8,12.38,7.6l.08,0,1.81,1.3,1.8.85,2.25,1.54,4,2.34,16.05,9.82.17.09,1.64,1.18,2,1,22.24,13.66.31.15a1,1,0,0,0,1.35.88l5.82,3.41,6.36,3.89h0l2,1.39,4.27,2.5,1.68,1.18,1.94,1,2.26,1.5.6.28.27.63.63-.13,2.56,1.6,1.75,1.25,1.84.91,20.1,12.24,2.47,1.56,1.53,1.08,2.06,1,2,1.42,4.27,2.49,1.69,1.22,2,1,9.93,6-.07-.07,2.28,1.56.32.15,7.46,4.47,2.53,1.61,1.43,1,8.47,5,1.57,1.14,5.58,3.15,6.43,3.94-.07-.06,2.27,1.56.35.15,13.54,8.2h0l2,1.36,4.41,2.54,1.52,1.1,2.06,1,18.1,11.25,1.73.82,18.26,11.32,7.87,4.61,10,6.09-.05,0,14.19,8.87,5.58,3.18,20.16,12.31,2.24,1.39,16.06,9.86.3.14a1,1,0,0,0,1.36.86l8.56,5.16,13.58,8.23-.06,0,2.24,1.5.57.26.29.65.65-.12,6.14,3.73,26.2,15.95,9.85,6,14.23,8.92,5.59,3.15,20.15,12.31,2.39,1.48Z" transform="translate(-268.55 -49.81)"/><path class="cls-3" d="M1263.72,1008.83l4,2.31,2.14,1.44.25.48.53-.1.2.57.39-.28,6.42,3.92,2.21,1.53.44.21,3.47,2.05.17.09,1.76,1.27,1.83.88,2.32,1.56.42.19c.14.72.56,1,1.23.73l2.35,1.4,1.86,1.31,8,4.71,2.11,1.45.64.3,3.28,2,3.88,2.29,2.18,1.49.64.3.25.59.54-.2,6.32,3.84,2.24,1.54.49.24.36.66.73-.06,2.5,1.5c-2.75,4.49-7.16,2.23-10.69,2.24q-326.52.2-653,.12a62.21,62.21,0,0,1-8-.2c-1-.12-1.77-1.46-2.64-2.24l8.68-5.26c.69.23,1.11,0,1.25-.75l.42-.2,2.26-1.54,0,0,10-6.08,6.34-3.86.5.22.23-.58.68-.32,2.19-1.49,6.64-4,0,.36.28-.5.56.09.28-.49,2.11-1.44,22.35-13.63.68.12.32-.65.54-.26,2.26-1.52,6.38-3.92.43.26.23-.57.68-.32,2.17-1.49,14-8.37,2.2-1.5-.06,0,10-6.1,6.19-3.76.63.14.28-.62.6-.29,2.22-1.5,2-1c.54-.4,1.08-.8,1.63-1.19l.23-.12,3.33-2,.62-.28,2.14-1.47,22.27-13.55.74.06.36-.67.49-.24,2.27-1.54,6.24-3.79.59.17.27-.61.61-.29,2.21-1.5,5.8-2.21c4.83,2.82,5.23,2.57,6.11-3.77a5.77,5.77,0,0,1-.08-1,5,5,0,0,0,1.08.43c10.69,2.32,12.39,4.51,11.72,15,5.68,5.93,12.54,7.73,20.72,7.61,26.92-.38,53.86,0,80.78-.23,6.91,0,13.79-1.25,20.7-1.68a79.91,79.91,0,0,1,10.94.15c5.25.39,10.49,1.63,15.72,1.51,18.54-.4,37.06-1.49,55.6-1.77,7.55-.11,15.13,1.86,22.68,1.76,26.51-.37,53-1.18,79.53-1.91,7.84-.22,9.83-2.41,11.37-12.26-3.61-1-7.53-1.56-10.93-3.2-5.65-2.71-2.21-7.37-1.69-11.34l1.72,1.08,2.33,1.59a9.92,9.92,0,0,0,1.71-.24l.59.28.3.66.69-.1,6.1,3.69,2.32,1.54.44.21.41.74.83,0L1182,959l.57,3.63a49.58,49.58,0,0,0-2,4.85,9.61,9.61,0,0,0,2.28,1.16c1.07-1.73,2-3.55,2.93-5.36l1.92-.7q3.93,2.29,7.84,4.61l2.29,1.53.51.23.35.66.72-.07,2.47,1.53,1.81,1.28,1.8.87,2.33,1.56.39.19a.94.94,0,0,0,1.32.83l12.18,7.32,2.13,1.46.24.47.51-.11.22.56.34-.31,6.45,4,2.23,1.51.57.28.3.64.66-.12,16.08,9.75,2.36,1.58.36.17a1,1,0,0,0,1.38.89l2.19,1.24,2.09,1.45.67.31Z" transform="translate(-268.55 -49.81)"/><path class="cls-4" d="M1146.09,938.28c-.52,4-4,8.63,1.69,11.34,3.4,1.64,7.32,2.18,10.93,3.2-1.54,9.85-3.53,12-11.37,12.26-26.51.73-53,1.54-79.53,1.91-7.55.1-15.13-1.87-22.68-1.76-18.54.28-37.06,1.37-55.6,1.77-5.23.12-10.47-1.12-15.72-1.51a79.91,79.91,0,0,0-10.94-.15c-6.91.43-13.79,1.63-20.7,1.68-26.92.21-53.86-.15-80.78.23-8.18.12-15-1.68-20.72-7.61.67-10.52-1-12.71-11.72-15a12.76,12.76,0,0,1,.56-1.61l.33-.16,2.39-1.58,1.75-.85,1.85-1.31,2.35-1.41H839l.41-.72.43-.2,2.33-1.55,52.14-31.77.63.14.3-.62.56-.26L898,901.2l12-7.12,1.45-1.05.35-.17,2.42-1.57,5.89-3.53c.69.23,1.11,0,1.25-.75l.42-.2,2.32-1.55,6.06-3.62.75.05.38-.68.48-.24,2.26-1.54,1.9-.92,1.66-1.22L956,866l1.47-1,.3-.14,2.32-1.56-.07.06,7.38-4.4.36-.17,2.31-1.56,6.09-3.66.73.08.34-.67.51-.24,2.25-1.53,3.8-2.26,6.12-3.78,5.6.1,2.37,1.58.34.16,1.43,1,8.5,5.05,1.53,1.08,2,1.06,2.16,1.46.22.45.48-.12.22.58.49-.23,6.35,3.88,2.23,1.51.57.27.3.65.68-.11,6.12,3.71,2.32,1.55.42.2c.15.74.57,1,1.26.76l22.12,13.42,2.2,1.49.67.32.24.61.57-.18,6.23,3.8,2.29,1.54.46.22.38.68.76,0,2.44,1.49,1.81,1.31,1.76.84,2.37,1.55.42.19c.14.75.57,1,1.27.79l5.87,3.5,2.43,1.59.29.14,1.51,1.05,5.71,3.25,2.46,1.61.23.11,1.63,1.17,2,1,2.23,1.5.61.28.27.62.62-.14,6.2,3.76,2.28,1.54.49.22.37.7.77,0,6,3.6,2.33,1.57.38.19a1,1,0,0,0,1.36.89Z" transform="translate(-268.55 -49.81)"/><path class="cls-5" d="M1166,912.35l-2.2-1.26-2.08-1.42-.66-.32-1.38-2.15-1.21-2.1.3-39.92c4.54.49,9.09,1.39,13.63,1.37,4.91,0,9.8-1.09,14.72-1.37,20.41-1.14,40.85,1.82,61.27-.33,15.28,9.06,30.53,18.16,45.86,27.15,4.21,2.47,8.64,4.59,13,6.87.81-2,2.21-3.91,2.33-5.92.34-5.93.18-11.89.22-17.83,11.48.67,22.94,1.71,34.43,1.93,17.18.34,34.36.09,51.55.09l0,50c-58.91,0-117.81.07-176.72-.1-6.47,0-13-1.41-20.53-2.29l-5.73,2.66-2.89-.35-2.19-1.47-.64-.32-.27-.64-.63.12q-3.11-1.85-6.19-3.71l-2.27-1.5-.44-.21-3.47-2.11-.13-.07-2-1.34-.29-.44-.52,0c-1.06-.64-2.12-1.28-3.17-1.93l-.43-.21A1,1,0,0,0,1166,912.35Z" transform="translate(-268.55 -49.81)"/><path class="cls-6" d="M1718.35,1209c-.41,3.27-.83,6.54-1.24,9.8-.42,1.39-.83,2.79-1.25,4.18l-3.48,7.59-7.11,8.23-1.81.94-1.75,1.19-2.26.79-2,1.12-1.91.46-5,1.36-3,.37-40,0-.38-.51-.63.06-17.09-15.23-.36-.32-10.47-10.9c4.65-.21,7.82-.46,11-.48,13.29-.09,26.59.2,39.87-.28,8.52-.3,14.07-6,13.69-12.8-.35-6.2-6.2-11.72-13.78-11.8-18.26-.19-36.53.09-54.79.25-.5,0-1,.79-1.28,1.05v36.91c-.43,1.81-.85,3.61-1.27,5.42-.54-.82-1-2.32-1.62-2.35-7-.38-14-.79-21-.69-4.85.07-9.7.93-14.54,1.43-1.36-24.23-.62-48.43-.35-72.67l11-1.11c20.63.15,41.26.34,61.88.43,12.29,0,24.59-.07,36.88-.12l5.13,1.08,6,.91c11.79,3.78,19.34,11.58,22.38,23.65l.84,8Q1718.53,1202,1718.35,1209Z" transform="translate(-268.55 -49.81)"/><path class="cls-7" d="M1347.77,408.47l13.47,7,2.44,1.64,6.65,4.07.33.72h.77l6,3.5,6.26,3.85,0,0,1.87,1.36a1.88,1.88,0,0,0,1.66.8q.21.87.48,1.71c-1.22,6.11-6.14,4-9.68,4-24,.16-48,.41-71.92,0s-47.63.88-71.46.24c-25.29-.68-50.61-.22-75.92-.26l-.06-45.89c7.23.68,14.45,1.91,21.69,1.95,39.31.19,78.61,0,117.92.18,6.2,0,11.88-.62,16.67-4.9a1.2,1.2,0,0,0-.06-1.16l3.13,1.86,3.65,2.15,2.65,1.77,3.41,2,.19.11,1.63,1.18,2,.95,2.21,1.5.57.32,1.41,1.13.38.82Z" transform="translate(-268.55 -49.81)"/><path class="cls-8" d="M1192.79,927.39l5.73-2.66c7.58.88,14.06,2.27,20.53,2.29,58.91.17,117.81.1,176.72.1q0,24,0,48H1333c-9,0-18,.92-26.85-.29-11.75-1.61-23.24-.64-34.84.47-.54.08-1.08.19-1.62.31l-.58-.28L1261.9,971v0l-2.1-1.52L1252,965l-2.32-1.53-.44-.22a1,1,0,0,0-1.29-.89l-2.26-1.25-2-1.41-.33-.45h-.56l-.15-.52-.31.29-3-1.81-1.47-1.08-2.08-1-2.15-1.43-.59-.29-3.32-2.05-3.83-2.25-2.23-1.53-.45-.22-3.48-2.09-10.07-6.09-2-1.39-.69-.35-3.17-1.74-2-.67-6.16-4.52Z" transform="translate(-268.55 -49.81)"/><path class="cls-5" d="M811.79,917.05l-6.39,3.88-.41-.24-.16.55-.53,0-.3.43-2.08,1.42,0,0-3.63,2.14-.28.14-3.22,2-.74.36-2,1.38-2.35,1.37h-.79l-.36.73L773.82,940l-1.66,1.18-.22.12-6.05,3.8-2.11,1-1.51,1.06-.31.16-3.24,2-.69.34-2,1.39-.06,0-3.57,2.12-.36.17L749.64,955l-6,3.57h-.74l-.32.7-.6.29-2.24-.53-.07-67.92q.26-24,.52-47.92c3.9.66,7.8,2,11.67,1.89,24.81-.62,49.69,2,74.42-1.73q.38,18.15.77,36.32l.57,26.52-3.24,3.14-.42.2L821.71,911l-3.79,2.24-3.43,2.06-.5.24Z" transform="translate(-268.55 -49.81)"/><path class="cls-6" d="M1353.64,1160.59l13.44.71,2.38.64,6.25,1.06,9.7,4.7,3.59,3.11,6.47,8.78q.58,2.7,1.16,5.38l.93,14q-.61,12-1.22,24c-11.09,2.72-22.07,3.71-32.63-2-.17-6.61-.28-13.23-.52-19.85-.29-8.28-1.82-10.11-9.92-10.17q-35.83-.24-71.66,0c-8,.06-9.78,2.14-10,10.22-.25,9.27-.35,18.55-.51,27.82-11.32-.06-22.71.34-33.51-4q.26-22.42.5-44.85l6.17-8.88,3.57-2.91,1.74-1.34,2.4-1.42,7.77-2.8,4.15-.64,2.66-.79,11.24-.69Z" transform="translate(-268.55 -49.81)"/><path class="cls-9" d="M1158.77,437.18c25.31,0,50.63-.42,75.92.26,23.83.64,47.63-.65,71.46-.24s47.94.17,71.92,0c3.54,0,8.46,2.09,9.68-4l2-.26.44.26c.11.77.54,1.08,1.27.93l2.28,1.18,2,1.64.23.24c.28,2.06.57,4.11.86,6.17q-.56,12-1.12,23.95c-35.46.38-71-1.21-106.37,2.2l-37.93-22.28c-1.92-1.91-3.81-3.67-5,.6l-.54,19.49-87.21-.1Z" transform="translate(-268.55 -49.81)"/><path class="cls-10" d="M826.29,843.31c-24.73,3.76-49.61,1.11-74.42,1.73-3.87.1-7.77-1.23-11.67-1.89l-.45-72c.12-1.31.25-2.62.37-3.92,9.5.65,19,1.69,28.49,1.88,15.86.32,31.73.17,47.59,0,3.19,0,6.36-.92,9.54-1.42l.87,0Z" transform="translate(-268.55 -49.81)"/><path class="cls-8" d="M676.83,881.22v73.91c-7.19.66-14.38,1.76-21.58,1.89-15.89.29-31.81-.25-47.69.26-6.19.2-12.17,1-17.81-2.21q0-37,0-74c3.55.68,7.12,2,10.66,1.94C625.9,882.42,651.45,885.05,676.83,881.22Z" transform="translate(-268.55 -49.81)"/><path class="cls-11" d="M721.73,455.2l-3.05.5-128.92-.31q.09-9.36.17-18.72l1.81-1.42,2.38-1.57,3.92-2.35,1.88-.92,8.05-5.1,0,0,3.87-1c6.7,2.71,13.63,1,20.47,1.21,9.9.32,19.78,1.57,29.67,1.73,18.62.29,37.25.08,55.87.08h89.78c6.18,0,12.36,0,18.55.05l-.06,25.95-86.46.12-1.36-.16c-.35-2.44-.71-4.88-1.17-8.08-3,1.68-5.39,2.8-7.55,4.23C726.9,451.22,724.35,453.27,721.73,455.2Z" transform="translate(-268.55 -49.81)"/><path class="cls-12" d="M1363.71,1221c10.56,5.76,21.54,4.77,32.63,2q.59,11,1.18,22l-1.41,18-2.4,6.08-10.23,9.76-5.84,2.49-4.46,1.41-.81-.17-.68.48-16,1.76-12,.33-51.9,0-12-.29-24-3.65-8.12-4.33-1.91-1.58-.38-.29-7.32-10.19-.45-39.9c10.8,4.38,22.19,4,33.51,4,.15,5.62.47,11.24.38,16.85-.08,4.89,2.1,7.79,6.87,7.82,25.46.14,50.94.35,76.4-.09,6.71-.12,8.22-2.82,8.46-9.8C1363.49,1236.19,1363.55,1228.59,1363.71,1221Z" transform="translate(-268.55 -49.81)"/><path class="cls-6" d="M1215.59,1183.08q.36,9.06.73,18.13l-3.57,2.24,3.37,1.58c-.13,2-.27,4-.41,6-5.2.67-10.38,1.79-15.59,1.92-13.8.34-13.81.16-18.2-11.91-3.74-6.32-9.26-8.76-16.59-8.59-13.23.31-26.47.08-39.7.08h-18.06V1215c-1,2.31-2.06,4.63-3,6.75l-32.75-1.55c0,10,.14,20.17-.08,30.29-.07,3.48-1,6.94-1.61,10.41q-.11-48.27-.17-96.53c0-.58.51-1.15,1.42-3.07h109.56l16.85,3.32,11.12,6.75Z" transform="translate(-268.55 -49.81)"/><path class="cls-7" d="M826.21,427.37c-6.19,0-12.37-.05-18.55-.05H717.88c-18.62,0-37.25.21-55.87-.08-9.89-.16-19.77-1.41-29.67-1.73-6.84-.23-13.77,1.5-20.46-1.2.84-.94,1.67-1.88,2.51-2.81a2,2,0,0,0,1.69-.82l1.75-1.39,6.23-3.75,3.82-2.25,4.17-2.39,2.13-1.5,6.21-3.69.57.13.19-.61,2.86-1.84,3.67-2.2.2-.1,6-3.77,2.31-1.3L657,396l.34-.74,7.18-2.54c4.49.89,9,2.52,13.45,2.53,49.44.17,98.88.09,148.32.07Q826.25,411.33,826.21,427.37Z" transform="translate(-268.55 -49.81)"/><path class="cls-13" d="M676.83,881.22c-25.38,3.83-50.93,1.2-76.4,1.81-3.54.08-7.11-1.26-10.66-1.94q0-34,0-68c29-.83,58.1,2.07,87.05-1.89Q676.84,846.24,676.83,881.22Z" transform="translate(-268.55 -49.81)"/><path class="cls-12" d="M1457.69,1250.49l60.07-.18,3.76-1.34,4.79-4.16c.84-3.73,1.68-7.45,2.39-10.54l32.93-2c0-6.7-.22-12.29.07-17.86a114,114,0,0,1,1.69-11.4c.14,14.81.61,29.63.26,44.44-.14,6-1,12.43-3.46,17.79-2.34,5.12-7.17,9.1-10.91,13.58l-3.68,2.22-20,3.86-12,.3h-53.9l-12-.33-12-1.55-2.12-.35-3.84-1.48-1.88-.62-2.23-1.46-.5-.27-11.4-10.29-2.4-10.8c.24-8.57.49-17.13.71-25,7.7,0,14.6-.24,21.46.09,4.58.22,9.11,1.26,13.67,1.93l.87,8C1448.73,1249.45,1448.73,1249.45,1457.69,1250.49Z" transform="translate(-268.55 -49.81)"/><path class="cls-14" d="M589.75,955.07c5.64,3.19,11.62,2.41,17.81,2.21,15.88-.51,31.8,0,47.69-.26,7.2-.13,14.39-1.23,21.58-1.89q.52,18,1.07,36l-.11,5.89-.43.1-.94,1.79-.35.67-2.06,1.53,0,0-3.65,2.08-6.35,3.94-3.56,2.11-.36.18-2.3,1.56-3.76,2.2-3.45,2.09-.48.23-2.23,1.49-2,1-1.59,1.17-.26.14-3.35,2-.61.28L638,1023h0l-3.63,2.16-.27.13-2.27,1.59.1-.09q-1.9,1.13-3.83,2.23l-.07,0-3.55,2.13-.36.17L621.7,1033l-3.73,2.2-3.47,2.1-.44.2L611.8,1039l-3.8,2.26-3.41,2-.52.26-2.15,1.49-2,1-1.56,1.15-.29.15-6,3.72-.13.07-3.61-1.08q.43-27.69.85-55.38Q589.47,974.85,589.75,955.07Z" transform="translate(-268.55 -49.81)"/><path class="cls-12" d="M935.38,1227c.15,6,.14,11.91.52,17.84.14,2.1,1.23,4.13,1.88,6.2l2,1.43c5.25.29,10.5.86,15.75.82,20.77-.15,41.55-.5,62.32-.77l2.49-1.3c5.93-4.37,2.07-11,3.74-16.32,10.93,2.82,21.74,3.43,32.23-1.8L1056,1261l-7.68,14.07-.4.3-1.94,1.55-4.09,2.35-10.73,3.4-3.31.47-30.08,1.5-35.77.06c-7.87-.52-15.73-1.28-23.61-1.51-12.77-.38-24-4.11-32.49-14.1-1.07-2.8-2.15-5.6-3.22-8.39.11-.27.38-.6.31-.8a11.17,11.17,0,0,0-.86-1.44l.66-13.78c.7-8.3,1.4-16.6,2.25-26.55,5.76,4.16,10.56,5.09,16,3.18,2-.7,5,1,7.41,2A76,76,0,0,1,935.38,1227Z" transform="translate(-268.55 -49.81)"/><path class="cls-15" d="M1158.56,633.34q0-32.08,0-64.19l66.85.11c6.86,0,13.72,0,20.58,0,.43.88,1.25,1.75,1.25,2.62-.1,20.48-.29,40.95-.46,61.43-8.23-.69-16.44-1.91-24.67-2C1200.92,631.2,1179.67,630.22,1158.56,633.34Z" transform="translate(-268.55 -49.81)"/><path class="cls-6" d="M935.38,1227a76,76,0,0,0-6.92-3.63c-2.4-1-5.4-2.73-7.41-2-5.49,1.91-10.29,1-16-3.18-.85,9.95-1.55,18.25-2.25,26.55q-.13-29.15-.29-58.29l1-3.36a35.55,35.55,0,0,1,16.37-18.13l14.93-3.64,111-.22c3.46,1.81,9-2,10.9,4q0,12,0,24.09c-.16.65-.33,1.31-.49,2l-.4.45q-51.45,0-102.89.11a64,64,0,0,0-10.9.86c-4.59.8-7.14,3.43-5.81,8.49Q935.83,1214,935.38,1227Z" transform="translate(-268.55 -49.81)"/><path class="cls-15" d="M677.17,571.14q0,30.11,0,60.21a389.85,389.85,0,0,0-87.32-.15q0-30,.05-59.91Z" transform="translate(-268.55 -49.81)"/><path class="cls-13" d="M1248.39,864.85c-20.42,2.15-40.86-.81-61.27.33-4.92.28-9.81,1.35-14.72,1.37-4.54,0-9.09-.88-13.63-1.37q-.13-26-.28-52l1.53-7.94c5.19.65,10.38,1.8,15.58,1.87,17.52.24,35.06-.2,52.57.25,6.15.16,12.14,1.1,17.77-2.16l.69,25.9q0,13,0,26.11l.06,3.81c-.13.28-.44.69-.35.82a9.36,9.36,0,0,0,1.21,1.23A5.17,5.17,0,0,1,1248.39,864.85Z" transform="translate(-268.55 -49.81)"/><path class="cls-15" d="M1395.77,573.27l0,57.94c-21.3,0-42.6-.17-63.9.11-7.9.11-15.78,1.29-23.68,2q0-30.06.07-60.13Z" transform="translate(-268.55 -49.81)"/><path class="cls-10" d="M1395.76,763.19v60c-11.84-.66-23.69-1.93-35.52-1.86-16.82.11-33.62,1.19-50.43,1.86q0-30,0-59.92Z" transform="translate(-268.55 -49.81)"/><path class="cls-14" d="M1271.33,975.27c11.6-1.11,23.09-2.08,34.84-.47,8.8,1.21,17.89.29,26.85.29h62.74q.26,29.67.54,59.35c0,4.27.37,8.54.56,12.81a1,1,0,0,0,0,1.63c-.38.78-.77,1.55-1.15,2.33a5.43,5.43,0,0,0-2,0l-.21-.12-1.7-1.19-1.94-.93-2.22-1.5-.46-.22-3.47-2.08-3.73-2.22-2.31-1.56-.37-.18-3.56-2.11-10-6.07-2.11-1.43-.62-.3-3.32-2-3.87-2.28c-.73-.49-1.46-1-2.2-1.46l-.64-.33-.27-.67-.69.06-18.67-11.42-3.62-2.09,0,0-1.91-1.35a1.69,1.69,0,0,0-1.67-.8l-4.44-3-1.85-.91-2.18-1.44-.56-.27-3.37-2.08L1303.9,997l-2.19-1.81-.14-.08-1.76-1.31-18.14-10.72-5.93-3.86L1271.9,977A17.87,17.87,0,0,0,1271.33,975.27Z" transform="translate(-268.55 -49.81)"/><path class="cls-13" d="M1309.81,823.16c16.81-.67,33.61-1.75,50.43-1.86,11.83-.07,23.68,1.2,35.52,1.86q0,27,0,54c-17.19,0-34.37.25-51.55-.09-11.49-.22-23-1.26-34.43-1.93Q1309.78,849.14,1309.81,823.16Z" transform="translate(-268.55 -49.81)"/><path class="cls-6" d="M515.83,1165.55,528,1191l.79,2.1,1.16,2,0-.06q4.22,9,8.42,17.92l1.79,3.72c-.06.75-.11,1.51-.17,2.27-4.54,4.14-9.22,7.34-15.82,4.14-1.26-.61-3.41-.19-4.83.45-3.43,1.55-6.16,1-9.24-1.12-1.71-1.17-4.37-.94-6.61-1.33l-5.4-8.18q-3.36-7.17-6.71-14.33l-1.24.63V1213l-1,16a70.77,70.77,0,0,0-32.54,1.33c-.16,3.05-.46,6.26-.48,9.47-.07,9.88.1,19.77-.12,29.66-.07,3.14-1.06,6.27-1.64,9.4q-.19-38.42-.4-76.83c-.05-13,0-25.92,0-38.41,1-.9,1.5-1.7,2-1.7q27.43-.21,54.87-.23c1.22,0,2.44.89,3.66,1.36Z" transform="translate(-268.55 -49.81)"/><path class="cls-10" d="M676.84,811.24c-29,4-58,1.06-87.05,1.89-.16-12.41-.28-24.82-.52-37.23-.06-3.57-.45-7.13-.69-10.7l1.3-2.06c4.87-.65,9.73-1.83,14.61-1.86,24.14-.16,48.27,0,72.41,0Z" transform="translate(-268.55 -49.81)"/><path class="cls-15" d="M739.72,621.3c-.5-2.53-1.39-5.06-1.43-7.6q-.25-15.45,0-30.9c0-2.54.92-5.07,1.41-7.6,24.4,0,48.81-.22,73.2.23,6.09.11,10.46-1.45,13.9-6.21.3,16.77.66,33.53.84,50.29,0,3.92-.52,7.84-.8,11.76-.56-.31-1.59-.56-1.65-.95-1.24-8.66-7-9.39-14.32-9.2-16.57.42-33.16.19-49.75.1C754,621.18,746.86,624,739.72,621.3Z" transform="translate(-268.55 -49.81)"/><path class="cls-8" d="M1207.73,323.37l8.38,3.87,3.64,2.11h0l1.9,1.3a1.8,1.8,0,0,0,1.7.86l6.34,3.92,12.67,7.79.34.64.68-.08,6.11,3.65,2.33,1.53.37.18,3.54,2.14.06,0,1.84,1.29,1.75.86,2.41,1.57.35.17a1,1,0,0,0,1.36.89l8.5,5.17,1.82,1.68.11.31,1.73,1.44,2.68.45a1.71,1.71,0,0,0,.06,1c-2.23,5.59-7.06,5.13-11.77,5.13q-53.88,0-107.78.17l-.12-46.06C1175.08,324.68,1191.53,327,1207.73,323.37Z" transform="translate(-268.55 -49.81)"/><path class="cls-16" d="M826.31,395.28c-49.44,0-98.88.1-148.32-.07-4.48,0-9-1.64-13.45-2.53.48-.82,1-1.64,1.43-2.45l1.44-1,19-11.63.52.17.21-.58.7-.37c.71-.49,1.42-1,2.14-1.46s1.43-.79,2.15-1.17a1.1,1.1,0,0,0,1.36-1l.36-.19,2.38-1.57,6-3.48c.67.21,1.07-.05,1.18-.77l.46-.24,2.2-1.55-.05,0,3.77-2.18.14-.07,3.34-.94c1.17,6.2,6.05,5.06,10.22,5.06q51.39,0,102.77,0Q826.29,381.29,826.31,395.28Z" transform="translate(-268.55 -49.81)"/><path class="cls-12" d="M1181.92,1201c4.39,12.07,4.4,12.25,18.2,11.91,5.21-.13,10.39-1.25,15.59-1.92l-2.52,13.79c-4.11,7.08-10.67,11-18,14l-.79-.17-.65.47c-4.35.13-8.81-.36-14.39,1.94l17.95,14.47.44-.39-.47.35,30,26.06-.18-.15c-2,.69-4.07,1.9-6.13,2-7.25.25-14.55-.37-21.76.22-9.13.74-16.81-1.09-22.73-8.63-1.77-2.25-4.51-3.72-6.81-5.55l-.32-.27-5.33-4.74-3.89-3.54-2.24-2-2-1.85-6.17-5.62-.26-.24-1.73-1.63-.39-.34-1.62-1.5-.51-.43c-10.12-9.59-20.23-19.19-31.63-30h27.16c8.3,0,16.61.11,24.91,0C1177.81,1216.9,1181.36,1213.29,1181.92,1201Z" transform="translate(-268.55 -49.81)"/><path class="cls-17" d="M589.76,455.39l128.92.31L714,459.88l-2.1,1.4-2.11,1-1.51,1.16-.28.17-2.38,1.62a2.89,2.89,0,0,0-1.76.71c-.63.47-1.26.94-1.9,1.4l-6.37,3.53-.58-.09-.14.64-2.91,2-3.61,2.05-2.45,1.7-3.84,2.21-.07.05c-3.64.38-4.75,2.53-4.1,5.89-.3,1.3-.59,2.6-.89,3.91l-87.19.16Q589.78,472.37,589.76,455.39Z" transform="translate(-268.55 -49.81)"/><path class="cls-8" d="M826.26,367.3q-51.37,0-102.77,0c-4.17,0-9,1.14-10.22-5.06a2.3,2.3,0,0,0,.18-1.1l.42-.2,2.3-1.53c1.28-.65,2.55-1.31,3.82-2l3.84-2.16.08-.1,2-1.86h0l6.43-3.79,15.8-9.47a.94.94,0,0,0,1.28-.85l.41-.21,2.33-1.56,3.74-2.17,3.53-2.12.38-.19,2.29-1.53,5.69-2.14c3,1.26,6.55,4.25,8.8,3.46,7.73-2.74,14.86,1.42,22.32.67,9.09-.92,18.24-1.3,27.37-1.91Q826.28,349.41,826.26,367.3Z" transform="translate(-268.55 -49.81)"/><path class="cls-16" d="M1158.88,371.51q53.89-.09,107.78-.17c4.71,0,9.54.46,11.77-5.13l3.36.94.17.08,3.74,2.19,0,0,2.18,1.52.54.28.32.66.69-.05,8.84,5.43c.15.72.56,1,1.24.75l2.35,1.34,2,1.88,0,.09a9.94,9.94,0,0,0,10,5.5c.11.43.36.56.77.4a3.49,3.49,0,0,0,.41,1.33c-4.79,4.28-10.47,4.92-16.67,4.9-39.31-.17-78.61,0-117.92-.18-7.24,0-14.46-1.27-21.69-1.95Q1158.8,381.41,1158.88,371.51Z" transform="translate(-268.55 -49.81)"/><path class="cls-18" d="M589.83,489.35l87.19-.16,0,34-87.11.17Q589.85,506.34,589.83,489.35Z" transform="translate(-268.55 -49.81)"/><path class="cls-17" d="M1289.39,469.5c35.4-3.41,70.91-1.82,106.37-2.2q0,16,0,32l-87.38,0c-.17-3.26-.66-6.54-.43-9.78.4-5.45-1.18-9.27-6.41-11.87C1297.21,475.46,1293.42,472.24,1289.39,469.5Z" transform="translate(-268.55 -49.81)"/><path class="cls-19" d="M677.05,657.38q0,15-.07,29.92c-29,3.66-58.09,1.23-87.14,1.86q0-15,0-30c3.89-.65,7.76-1.84,11.65-1.86C626.71,657.2,651.88,657.33,677.05,657.38Z" transform="translate(-268.55 -49.81)"/><path class="cls-6" d="M1447.2,1235c-4.56-.67-9.09-1.71-13.67-1.93-6.86-.33-13.76-.09-21.46-.09-.22,7.92-.47,16.48-.71,25-.52-4.19-1.46-8.38-1.5-12.58-.26-25.47-.32-50.94-.45-76.41.42-2.55.83-5.11,1.24-7.66h36.64c.27,15.92.52,30.77.78,45.62v8Z" transform="translate(-268.55 -49.81)"/><path class="cls-6" d="M1563.39,1203a114,114,0,0,0-1.69,11.4c-.29,5.57-.07,11.16-.07,17.86l-32.93,2c-.71,3.09-1.55,6.81-2.39,10.54q-.11-41.26-.22-82.52l15.54-1.22,21.74.51Q1563.39,1182.28,1563.39,1203Z" transform="translate(-268.55 -49.81)"/><path class="cls-20" d="M1308.23,633.31c7.89-.7,15.77-1.88,23.67-2,21.3-.28,42.6-.1,63.9-.11v30c-21.28,0-42.57-.17-63.85.11-7.9.1-15.77,1.28-23.66,2Z" transform="translate(-268.55 -49.81)"/><path class="cls-20" d="M1158.56,633.34c21.11-3.12,42.36-2.14,63.57-2,8.23,0,16.44,1.27,24.67,2l-.78,26-87.28.06Z" transform="translate(-268.55 -49.81)"/><path class="cls-17" d="M1158.74,467.21l87.21.1v30c-5.54-.67-11.07-1.86-16.62-1.92-23.52-.24-47-.15-70.58-.18Z" transform="translate(-268.55 -49.81)"/><path class="cls-21" d="M589.88,523.32l87.11-.17q0,14,.08,28l-87.13.1Z" transform="translate(-268.55 -49.81)"/><path class="cls-20" d="M677.05,657.38c-25.17,0-50.34-.18-75.51-.06-3.89,0-7.76,1.21-11.65,1.86v-28a389.85,389.85,0,0,1,87.32.15Q677.12,644.37,677.05,657.38Z" transform="translate(-268.55 -49.81)"/><path class="cls-18" d="M1308.37,499.25l87.38,0,0,28c-15.51-.66-31-1.55-46.54-1.93-13.6-.33-27.22-.09-40.83-.1Q1308.35,512.24,1308.37,499.25Z" transform="translate(-268.55 -49.81)"/><path class="cls-22" d="M1158.42,759.17q.21-12.93.44-25.86c29,.58,58.13-2,87.09,1.86q0,13,0,26c-13.84-.66-27.67-1.81-41.51-1.85-14.83,0-29.78-1.67-44.48,1.9Z" transform="translate(-268.55 -49.81)"/><path class="cls-12" d="M1070.12,1260.89c.57-3.47,1.54-6.93,1.61-10.41.22-10.12.08-20.25.08-30.29l32.75,1.55c1-2.12,2-4.44,3-6.75l.87,14-.66,54.18-37.9-.09Z" transform="translate(-268.55 -49.81)"/><path class="cls-19" d="M739.56,693.1l.09-25.93,86.9.19q0,13-.07,25.93Z" transform="translate(-268.55 -49.81)"/><path class="cls-23" d="M1158.72,718.86q0-16.75.1-33.53c29-3.86,58.08-1.41,87.12-2.14q0,13,0,26h-84.8Z" transform="translate(-268.55 -49.81)"/><path class="cls-18" d="M1158.75,495.2c23.53,0,47.06-.06,70.58.18,5.55.06,11.08,1.25,16.62,1.92q0,12,0,24l-87.25-.13Z" transform="translate(-268.55 -49.81)"/><path class="cls-19" d="M1308.29,663.28c7.89-.69,15.76-1.87,23.66-2,21.28-.28,42.57-.1,63.85-.11q0,13,0,26l-87.41.06Q1308.32,675.26,1308.29,663.28Z" transform="translate(-268.55 -49.81)"/><path class="cls-21" d="M1308.35,525.24c13.61,0,27.23-.23,40.83.1,15.52.38,31,1.27,46.54,1.93v24l-87.36,0Q1308.36,538.25,1308.35,525.24Z" transform="translate(-268.55 -49.81)"/><path class="cls-9" d="M739.69,453.44l86.46-.12-.06,26-86.41.16-.47-.15q-.24-8.94-.5-17.88l-.54-4.16c.2-.67.41-1.34.61-2S739.39,454.05,739.69,453.44Z" transform="translate(-268.55 -49.81)"/><path class="cls-24" d="M1395.75,711.2v26l-85.91.12q0-11-.08-22l0-4.1Z" transform="translate(-268.55 -49.81)"/><path class="cls-17" d="M739.68,479.48l86.41-.16q0,13,0,26l-86.42,0Z" transform="translate(-268.55 -49.81)"/><path class="cls-22" d="M1309.84,737.32l85.91-.13q0,13,0,26l-85.93,0Q1309.83,750.28,1309.84,737.32Z" transform="translate(-268.55 -49.81)"/><path class="cls-23" d="M739.56,693.1l86.92.19c.3,5.6.82,11.19.88,16.79q.25,23.38.16,46.76c0,3.6-.59,7.2-.91,10.81l-.86,0-.15-26.3V717.21H740.08q-.39-11.13-.77-22.27A3.62,3.62,0,0,1,739.56,693.1Z" transform="translate(-268.55 -49.81)"/><path class="cls-19" d="M1245.94,683.19c-29,.73-58.16-1.72-87.12,2.14l-.09-26,87.29-.06Q1246,671.23,1245.94,683.19Z" transform="translate(-268.55 -49.81)"/><path class="cls-23" d="M589.84,689.16c29-.63,58.16,1.8,87.14-1.86l0,26-87.12-.13Q589.83,701.17,589.84,689.16Z" transform="translate(-268.55 -49.81)"/><path class="cls-22" d="M676.9,761.31c-24.14,0-48.27-.19-72.41,0-4.88,0-9.74,1.21-14.61,1.86-.45-2.66-.89-5.32-1.34-8q.65-9,1.28-18l86,.11a3.51,3.51,0,0,0,1.21.11Q677,749.34,676.9,761.31Z" transform="translate(-268.55 -49.81)"/><path class="cls-20" d="M1246,569.24c-6.86,0-13.72,0-20.58,0l-66.85-.11q0-12,.09-23.89l87.26,0Q1246,557.26,1246,569.24Z" transform="translate(-268.55 -49.81)"/><path class="cls-21" d="M1245.93,545.29l-87.26,0q0-12,0-24.08l87.26.13Q1246,533.29,1245.93,545.29Z" transform="translate(-268.55 -49.81)"/><path class="cls-21" d="M826.55,667.36l-86.9-.19q0-12,.11-24l86.82.14Z" transform="translate(-268.55 -49.81)"/><path class="cls-24" d="M1158.72,718.86l2.43-9.67H1246v26c-29-3.82-58.06-1.28-87.09-1.86Q1158.78,726.08,1158.72,718.86Z" transform="translate(-268.55 -49.81)"/><path class="cls-24" d="M675.83,737.26l-86-.11q0-12,0-24l87.12.13q.07,9.06.16,18.14C676.68,733.37,676.25,735.31,675.83,737.26Z" transform="translate(-268.55 -49.81)"/><path class="cls-23" d="M1395.75,711.2l-85.94,0-1.53-15.87.1-8.12,87.4-.06Z" transform="translate(-268.55 -49.81)"/><path class="cls-20" d="M826.79,569.22c-3.44,4.76-7.81,6.32-13.9,6.21-24.39-.45-48.8-.22-73.2-.23l.06-23.89q8.78,0,17.54,0l68.77,0Q826.44,560.26,826.79,569.22Z" transform="translate(-268.55 -49.81)"/><path class="cls-6" d="M440.17,1201q0,9,0,18c-11.09-1.54-23.75,4.86-33.24-7.22-.78,10.51-.6,20.3-.89,30.08-.09,3-1.44,6-2.21,9,.09-3.29.19-6.58.28-9.87l0-18c.18-16.18.33-32.38.56-48.56.06-4.29.36-8.57.55-12.86h34.95V1181A21.63,21.63,0,0,0,440.17,1201Z" transform="translate(-268.55 -49.81)"/><path class="cls-18" d="M739.65,505.35l86.42,0q0,12,0,24l-86.4,0Q739.68,517.34,739.65,505.35Z" transform="translate(-268.55 -49.81)"/><path class="cls-6" d="M1056.35,1233.11c-10.49,5.23-21.3,4.62-32.23,1.8l-.88.27c-2.2-.73-4.38-2-6.6-2.08-12.89-.24-25.78-.18-38.68-.22l-.72-17.84,1.22-5.79,69.37-.28,8,.29Z" transform="translate(-268.55 -49.81)"/><path class="cls-20" d="M1308.36,551.25l87.36,0q0,11,0,22l-87.49-.09Q1308.32,562.22,1308.36,551.25Z" transform="translate(-268.55 -49.81)"/><path class="cls-21" d="M739.69,529.34l86.4,0,0,22-68.77,0q-8.76,0-17.54,0Z" transform="translate(-268.55 -49.81)"/><path class="cls-12" d="M1575,1234.86c4.84-.5,9.69-1.36,14.54-1.43,7-.1,14,.31,21,.69.58,0,1.08,1.53,1.62,2.35q.42,23.1.85,46.21l-39.09-.37c.31-1.93.62-3.85.94-5.78q0-12.54.1-25.09Z" transform="translate(-268.55 -49.81)"/><path class="cls-20" d="M826.58,643.35l-86.82-.14q0-11,0-21.91c7.14,2.7,14.26-.12,21.39-.08,16.59.09,33.18.32,49.75-.1,7.31-.19,13.08.54,14.32,9.2.06.39,1.09.64,1.65.95Q826.7,637.31,826.58,643.35Z" transform="translate(-268.55 -49.81)"/><path class="cls-20" d="M589.94,551.29l87.13-.1q0,10,.1,19.95l-87.23.15Z" transform="translate(-268.55 -49.81)"/><path class="cls-25" d="M1447.26,1344.94c.24-4,.48-7.9.78-12.93l24.54-.68,3,.84,5.83,1.66,3.94,2.12c6.92,5.3,9.25,12.77,9.91,21a30.71,30.71,0,0,1-10,17.76l-3.7,2-17.83,2.4-15.52-.77c-.32-5.89-.63-11.65-1-17.41l-5.41-2.31.1.07c-.08-3.3-2.23-7.44,3.85-8.14C1446.48,1350.51,1446.78,1346.91,1447.26,1344.94Zm11.91,23.91c8.32.52,16.52,2.25,22-5.68a13.38,13.38,0,0,0,0-15.89c-5.42-7.9-13.53-6.53-21.91-5.85v9.2l10.21.78v6.86l-10.24,1.08Z" transform="translate(-268.55 -49.81)"/><path class="cls-25" d="M432,1370.94c-.37,2.25-.73,4.5-1.18,7.25H420.74v-45.34c4.81-2.63,8.74-1.21,12.28,2.49l17.25,21.8,1.49-.9v-13.3c.29-3.44.58-6.89.89-10.72l8.81-1,2.39,2.43a.87.87,0,0,0,.08,1.35v30c-.3,4.17-.61,8.34-.91,12.43-8.71,5-11.42-3.06-16-6.76l-14.19-18.14c-.76,2.22-1.28,3-1.27,3.85C431.63,1361.19,431.83,1366.07,432,1370.94Z" transform="translate(-268.55 -49.81)"/><path class="cls-25" d="M696.31,1371v-38.5l9-1.22,12.54,14c1.52,1.9,3,3.79,4.55,5.69l4.69,6.12,1.39-.73c-.08-1.79-.17-3.57-.25-5.36v-16c.43-1.1.86-2.2,1.3-3.31l10.57,1.32c.08,1.34.16,2.68.25,4q-.3,20.71-.59,41.43a2.21,2.21,0,0,0-1.76.67c-4.32,0-8.36-.77-11.25-4.43q-5-6.14-10.09-12.28l-.65.25.63-.31c-2.16-3.35-3.86-7.17-8.79-8.9.22,3.73.39,6.65.56,9.57-.24,4.82-.48,9.65-.76,15.23l-9.61.66C697.44,1376.23,696.88,1373.6,696.31,1371Z" transform="translate(-268.55 -49.81)"/><path class="cls-25" d="M1032.52,1331.24l11.31-.52a27.76,27.76,0,0,0,2.82.6c7.63.83,7.57.8,10.54-7.3.38-1,1.88-1.64,2.86-2.45a.66.66,0,0,0,1-.36l2.73,1.75h0c.93,6,1,11.75-5.61,14.85,1.46,2.19,2.48,3.5,3.26,4.93,9.41,17.23-1.41,36.07-21,36.37-4.19.06-8.41-1.1-12.61-1.69a1.76,1.76,0,0,0-1.74-.63l-11.66-14q-.12-7.37-.25-14.73,6-7.1,12-14.18l3.76-1.55Zm21.17,24.22c.11-8.43-5.77-14.61-14-14.72-8.41-.12-14.3,5.7-14.43,14.23s5.67,14.67,13.93,14.76S1053.58,1363.83,1053.69,1355.46Z" transform="translate(-268.55 -49.81)"/><path class="cls-25" d="M920.43,1321.2c3.86,2.85,3.2,7,3.14,11l-5.81,6.22,5.82,9.4c2.08,13-1.61,23.32-13.76,29.73l-2.53,1.17-.79-.09-.64.48-13.93.11-.85-.45-1,.08-4.21-1.7c-11.43-7.07-14.45-17.53-12.16-30.14,6.64-13,17.59-17.25,31.53-15.69,3.19.36,6.45,0,11.19,0C914.83,1326.22,916.14,1322.83,920.43,1321.2Zm-7.82,33.91c0-8.57-5.83-14.42-14.21-14.36a14,14,0,0,0-14.21,14.54c.07,8.34,6.16,14.43,14.39,14.4S912.64,1363.68,912.61,1355.11Z" transform="translate(-268.55 -49.81)"/><path class="cls-25" d="M328.38,1377l-11.21,2.63c-.35-12.47-.66-23.55-1-34.64l1.39-13.43,23.38-.18,3,.94,4,1,3.84,2.35,4.42,5.31c2.87,9.44.8,17.41-7.07,22.71,1.31,6.29,8.33,8.84,6.92,15.39l-9.83-.45c-1.61-2.43-3.38-4.76-4.79-7.3-2.89-5.23-6.78-7.51-13.09-4.82Zm.22-35.75v15.23c4.13,0,7.77.48,11.22-.13,3.87-.68,6.4-3.29,6.25-7.65s-2.6-6.82-6.59-7.35C336,1340.85,332.43,1341.21,328.6,1341.21Z" transform="translate(-268.55 -49.81)"/><path class="cls-25" d="M1734,1131.23c8.69-6.11,18.22-9.12,28.91-7.91l2.53,1,4,1.14a47.5,47.5,0,0,1,17.86,17.92l-.07-.08q1.1,3.87,2.21,7.75.15,3,.32,6l-.65,5.83q-1.87,5-3.76,10.09c-8.39,11.32-19.47,17.09-33.71,16.33l-3.88-.8-8.17-3.34-3.55-2.32-9.74-12c-2.87-7.46-3.3-15.17-2.42-23l1.1-2.67,1.53-3.74Zm48.17,24.87a25.87,25.87,0,0,0-26-25.87c-14.18,0-26.07,12-26,26.07s12.29,26.14,26.19,26A26.21,26.21,0,0,0,1782.16,1156.1Z" transform="translate(-268.55 -49.81)"/><path class="cls-25" d="M1265,1332.92l8.12-1.68,8,8.26c7.92,11.78,10.51,14.56,15.75,16.93v-23.52l10.62-1.74v47.39a2.33,2.33,0,0,0-1.79.54l-7.74-.82-10-11.87-2.71-3.5c-.52-.6-1-1.19-1.55-1.79l-1.88-2.24-5.48-7.12V1359l-.11,17.93a1.85,1.85,0,0,0-.69,1.68l-7.85.54a2.36,2.36,0,0,0-1.86-.39c-.24-9.61-.45-19.21-.72-28.82-.1-3.64-.3-7.27-.46-10.91Z" transform="translate(-268.55 -49.81)"/><path class="cls-25" d="M1220.85,1349.2c.51-5.51,1-11,1.59-17h10.19v46.18h-10.28c-.32-5.06-.64-10.24-1-15.41a17,17,0,0,0-.46-2.7c-6.27.16-12.54.46-18.82.75-.47,5.46-.94,10.92-1.49,17.2l-9.9.7c-.49-2.3-.88-4.1-1.26-5.91q0-19,0-38c2.49-5.83,6.87-2.85,11.29-2.79l1,14.81c.49,1.06,1,3,1.47,3C1209.09,1349.9,1215,1349.52,1220.85,1349.2Z" transform="translate(-268.55 -49.81)"/><path class="cls-25" d="M1709.86,1324.87c2.84-2.87,5.65-4.75,8.35.14a1.57,1.57,0,0,0,.32,1.84c-.28,4.47-1.37,8.56-5.29,11.33-.49.92-1,1.84-1.46,2.77-.14,5-.48,9.93-.38,14.88.17,8-2.05,15-8.09,20.54l-4,2-3.83,1-11.89-.09c-10.79-3.68-15.21-11.41-14.71-22.55.2-4.53-.26-9.1-.42-13.64q.91-5.91,1.82-11.81l9.59.92c0,7.32-.22,14.43.09,21.52.17,3.79,1.26,7.54,1.93,11.3l1.61,2,0,0,2,1.51c11,1.86,14.08-.43,14.42-11.19.25-7.92,0-15.86,0-24.33l7.56-2C1711.84,1330.25,1711.66,1327.86,1709.86,1324.87Z" transform="translate(-268.55 -49.81)"/><path class="cls-25" d="M592,1379.12c-.7-3.07-1.89-6.12-2-9.21-.37-9.64-.34-19.29-.46-28.93l1.38-9.68,8.49-.09,2.34,2.23-.18-.2v17.07c6.38,0,11.89.14,17.37-.16.87,0,1.63-2.1,2.45-3.22.27-4.8.55-9.59.9-15.52l10.67,1.51.45,6.08v21.9q-.75,9-1.49,17.91h-9.56c-.34-5.61-.65-10.76-1-15.91-.35-.79-.69-1.57-1-2.35l-.07.1c-5.72-.3-11.44-.66-17.16-.75-.43,0-.88,2-1.32,3.07L600,1378.9Z" transform="translate(-268.55 -49.81)"/><path class="cls-25" d="M1350.91,1348.9l1.26-16.7,8.91-1,1.67,1.51q.26,18,.53,36.09-.81,5-1.63,10h-9.46c-.34-5.69-.64-10.81-.94-15.92a18.71,18.71,0,0,0-.45-2.7c-6.28.15-12.55.46-18.82.75-.52,5.5-1,11-1.62,17.3l-10,.49v-46.47h9.89l1.84,16.64Z" transform="translate(-268.55 -49.81)"/><path class="cls-25" d="M1583.75,1363l1-24,1.53-7.74h8.55q.73,2.87,1.49,5.73c-.14,6.3-.64,12.61-.32,18.88.57,11.28-3.53,19.35-14.47,23.33-3.28,0-6.57.13-9.83-.12-9-.7-14.62-5.28-17.07-13.79-.72-2.5-1-5.13-1.47-7.7v-25.32l9.85-1.06q1.21,4.88,2.41,9.74l.24,20c.5,1.48,1,3,1.48,4.42l.27-.48-.3.46C1574.23,1372.05,1579.59,1371.27,1583.75,1363Z" transform="translate(-268.55 -49.81)"/><path class="cls-25" d="M365.89,1341.81l.78-9.46h10.55c.51,10.47,1,20.52,1.48,30.57,1,6,5.49,6.95,10.35,6.66s7.8-3.14,8.18-8.22c.37-9.54.75-19.09,1.14-29.18h10c.32,12.25,1.34,24.37-1.05,36.49l-4.11,5.95a.92.92,0,0,0-1.1.83c-1.82.79-3.59,1.71-5.45,2.35-17.17,5.91-29.89-3-30.29-21.13C366.26,1351.72,366.05,1346.76,365.89,1341.81Z" transform="translate(-268.55 -49.81)"/><path class="cls-16" d="M826.31,331.51c-9.13.61-18.28,1-27.37,1.91-7.46.75-14.59-3.41-22.32-.67-2.25.79-5.83-2.2-8.8-3.46l6.3-5.05a1.16,1.16,0,0,0,1.41-1l.33-.17,2.43-1.57,21.89-12c3.19-.41,7.53,1.12,7.56-4.53.79-.5,1.58-1,2.38-1.49l16.18,2.08Z" transform="translate(-268.55 -49.81)"/><path class="cls-4" d="M784.12,1378.58q-.4-7.85-.79-15.69a17.12,17.12,0,0,0-.45-2.7c-6.33.16-12.66.47-19,.77q-.27,7-.55,13.94c-2,6-7.21,2.93-11,3.82V1331.6l10.55,1.32c0,5.72.1,11.44.15,17.13h20.29v-5.12c.25-3.94.49-7.88.78-12.51h10.12c0,14.75,0,29.23-.1,43.7,0,1-1.42,2-2.18,3Z" transform="translate(-268.55 -49.81)"/><path class="cls-25" d="M485.09,1333.31l20.32-2.08,2.54,1.08,5.95,2.73,2.16,1.78.11.1c1.17,4.84-2.61,6.11-5.48,8-10.4-5.48-17.8-5.43-23.1,0-4.47,4.6-5.19,13-1.58,18.52,4,6,9.57,7.28,19.93,4.27.33-4,.69-8.21,1.11-13.23h9.13l.34.29q.16,9.09.32,18.19l-6.77,4.52-18,1.82c-7.45-2-13.17-6.39-17.64-12.55C469.68,1353,472.78,1341.68,485.09,1333.31Z" transform="translate(-268.55 -49.81)"/><path class="cls-25" d="M1535.56,1374.94l-1.74-4.09c-6.82-4.59-14.18-.89-21.08-1.88l-5.14,9.89-8,.28c-.1-2-.86-4.23-.21-5.93,2.82-7.4,6-14.63,9.12-21.92q3.76-8.65,7.54-17.3c9.26-4.26,11.34-3.58,15.72,5a16.77,16.77,0,0,0,1.68,2.31q2.14,4.8,4.28,9.61c2.33,5.68,4.81,11.31,6.93,17.07,1.29,3.54,2,7.28,3,10.94l-9.91-.36C1537,1377.38,1536.3,1376.16,1535.56,1374.94Zm-19.15-15.44H1530c-2.49-5.5-4.48-9.93-7.18-15.91Z" transform="translate(-268.55 -49.81)"/><path class="cls-25" d="M1407.65,1347.06l10.53,23.93,1.23,2.31-.08-.1,1.14,3.78-10.69,1.76-4.73-9.44h-21l-4.43,9.4-7.93.45c-.45-1.58-1.33-3.18-1.24-4.73.09-1.8,1-3.56,1.59-5.34l1.77-3.93,4.41-9.82-.09.09,1.23-2.44q4.41-9.93,8.84-19.84l11.18-1.77-.08-.11,2.23,2.16c.81,1.86,1.63,3.71,2.44,5.57.6,1.27,1.19,2.55,1.79,3.83l.75,2.22Zm-19.73,12.57h13.6l-6.89-16.16Z" transform="translate(-268.55 -49.81)"/><path class="cls-25" d="M651.38,1348.92l2.91-7c1-1.65,2.37-3.18,2.85-5,1.48-5.44,5.68-6.26,9.82-5,2.6.78,4.5,3.87,6.71,5.91l6.67,15.16,1.24,2.43-.1-.1c1.27,3.3,2.6,6.59,3.79,9.93,1.6,4.5,3.09,9,4.64,13.58h-9.62l-4.55-7.87a27.59,27.59,0,0,0-21.81,0l-5.93,8.22-8.56-1.22c1.53-4.29,2.73-7.65,3.92-11l2.93-7.13Q648.84,1354.36,651.38,1348.92Zm20.19,10.95c-2.21-5.42-4.17-10.21-6.79-16.6-2.64,6.42-4.58,11.12-6.84,16.6Z" transform="translate(-268.55 -49.81)"/><path class="cls-25" d="M1175.16,1333.27l6.39,5.83-5.7,6c-12.16-6-19.63-5.51-24.54,1.27a15.14,15.14,0,0,0,.64,18.45c5.19,6.13,12.82,6.31,23.52-.22,1.81,2.6,3.72,5.33,5.63,8.05l-5.4,4.2-4,1.77-3.94.75-19.51-3.45-9.66-11.27c-.5-3.24-1-6.49-1.52-9.73,3.18-19.52,15.8-27.49,35.21-22.26C1173.19,1332.92,1174.18,1333.07,1175.16,1333.27Z" transform="translate(-268.55 -49.81)"/><path class="cls-25" d="M822.57,1331.21c6.07-.13,11.57.75,13.54,7.77l1.38,3.15c.34,1,.69,1.92,1,2.88.41.78.81,1.56,1.22,2.33l2.33,5.6,4.36,11.87,4.7-11.91,4.82-11.82,3.81-8.18.08-.12,2.58-1.59,8.19.28q-2.37,7.72-4.76,15.46l-14.58,31.44H841l-7-13.48-1.74-4.07q-5.49-13-11-25.94C821.74,1333.66,822.15,1332.43,822.57,1331.21Z" transform="translate(-268.55 -49.81)"/><path class="cls-16" d="M1207.73,323.37c-16.2,3.64-32.65,1.31-49,2.08q-.45-15-.89-30.05l9.79,2.24,3.44,2,2.66,1.72,0,0,1.89,1.35a1.84,1.84,0,0,0,1.69.79l2.44,1.6.24.12,3.68,2.17,6.32,3.89,1.57,1.11,2,1,2,1.4,4.26,2.49,3.75,2.19Z" transform="translate(-268.55 -49.81)"/><path class="cls-25" d="M270.18,1341.05c-.19-2.86-.38-5.71-.64-9.75h39.54c.32,3,.63,6.08.88,8.43L296,1343l-.36,34.67-7.52,1.54c-4.37-.32-3.94-3.55-4-6.52q-.18-13.86-.38-27.72c.57-2.32,0-3.84-2.72-3.85Z" transform="translate(-268.55 -49.81)"/><path class="cls-25" d="M1649.06,1343.07c-.24,8-.43,15.89-.75,23.84-.15,4-.52,7.92-.8,11.88a2.35,2.35,0,0,0-1.89.37l-7.87-.83c-.28-11.71-.55-23.51-.83-35.32-1.52-.67-3-1.68-4.59-1.94-3.45-.56-7-.74-10.45-1.08.36-2.51.71-5,1.21-8.58h39.3c.33,2.84.66,5.67,1.12,9.58-4.27,0-7.53-.19-10.75.1C1651.48,1341.2,1650.29,1342.38,1649.06,1343.07Z" transform="translate(-268.55 -49.81)"/><path class="cls-25" d="M993.85,1368.85l15.88.39,1,7.75-1,1.76-5.88.4h-16l-11.26-.91v-46h10.52c.27,10.44.53,20.59.79,30.73C987.5,1369.28,987.5,1369.28,993.85,1368.85Z" transform="translate(-268.55 -49.81)"/><path class="cls-25" d="M568.77,1343v35.17l-10.8.68c-.34-12.28-.66-24-1-35.83-1.28-.67-2.51-1.75-3.86-1.92-3.6-.46-7.25-.53-10.88-.76.21-2.57.41-5.13.73-9.13h38.47l1.95,9.24.28-.21c-3.45.26-6.93.35-10.34.85C571.75,1341.32,570.28,1342.34,568.77,1343Z" transform="translate(-268.55 -49.81)"/><path class="cls-25" d="M1074.32,1378.65q.2-23.6.38-47.2l9.66.11c.46,2.47.91,4.93,1.37,7.4l-.81,39.5-3.11.7Z" transform="translate(-268.55 -49.81)"/><path class="cls-25" d="M1128.31,1333v45.13H1118v-46.6Z" transform="translate(-268.55 -49.81)"/><path class="cls-25" d="M943.75,1331.59V1378h-10v-45.91Z" transform="translate(-268.55 -49.81)"/><path class="cls-18" d="M739.75,771.12l.45,72q-.26,24-.52,47.92c-.42,0-.83,0-1.25,0-.14-16.52-.39-33-.38-49.56,0-23.46.24-46.93.38-70.39Q739.09,771.17,739.75,771.12Z" transform="translate(-268.55 -49.81)"/><path class="cls-25" d="M1533.43,1323.07c.28,1.66.56,3.33,1,6-7-2.19-14-4.23-20.79,0-.28-1.22-1.2-3.11-.74-3.56a68.49,68.49,0,0,1,6.82-5.2l13.87,2.82Z" transform="translate(-268.55 -49.81)"/><path class="cls-17" d="M738.43,891.1c.42,0,.83,0,1.25,0q0,34,.07,67.92a1.93,1.93,0,0,1-1.73.19Z" transform="translate(-268.55 -49.81)"/><path class="cls-7" d="M826.3,305.52l-16.18-2.08L824.51,294C828.36,298.16,827.34,301.84,826.3,305.52Z" transform="translate(-268.55 -49.81)"/><path class="cls-25" d="M652,1319c11.51-.61,11.51-.61,17.14,8.89-6.74,3-9.94-3.64-14.93-5.43Z" transform="translate(-268.55 -49.81)"/><path class="cls-25" d="M1135.71,1319.26a1.63,1.63,0,0,0-.11,1.28c-5.87,2.77-9.86,9.57-17.65,8.17l7.94-10.29Z" transform="translate(-268.55 -49.81)"/><path class="cls-25" d="M1386.15,1323.84l-4.38-4.67,9.86-.71,7.91,10.2C1394.18,1329.56,1390.19,1326.64,1386.15,1323.84Z" transform="translate(-268.55 -49.81)"/><path class="cls-14" d="M1537.51,1315l4.13,6.32-8.21,1.72.17,0-8-8.17C1529.6,1311.8,1533.56,1313.27,1537.51,1315Z" transform="translate(-268.55 -49.81)"/><path class="cls-25" d="M911.59,1319.27c-5.1,4.5-9.6,10.08-17.45,9.55l7.84-10.43,9.75,1Z" transform="translate(-268.55 -49.81)"/><path class="cls-17" d="M1160,805.21l-1.53,7.94-.3-50,1.56,0Z" transform="translate(-268.55 -49.81)"/><path class="cls-25" d="M1035,1390.43c-.3-3.39-.2-6.84,4.18-7.17,3.67-.27,4.71,2.63,5.13,5.7C1041.84,1393.21,1038.69,1393.41,1035,1390.43Z" transform="translate(-268.55 -49.81)"/><path class="cls-15" d="M739.31,694.94q.38,11.14.77,22.27l-.42,15.86c-.42,0-.84.08-1.27.09Q738.86,714.05,739.31,694.94Z" transform="translate(-268.55 -49.81)"/><path class="cls-21" d="M738.39,733.16c.43,0,.85,0,1.27-.09.18,2.73.34,5.46.51,8.19l0,25.94c-.12,1.3-.25,2.61-.37,3.92q-.66,0-1.32,0Q738.42,752.16,738.39,733.16Z" transform="translate(-268.55 -49.81)"/><path class="cls-6" d="M1573.71,1263q.6-5.77,1.22-11.56-.06,12.55-.1,25.1Q1574.26,1269.75,1573.71,1263Z" transform="translate(-268.55 -49.81)"/><path class="cls-15" d="M738.71,461.45q.25,8.94.5,17.88Q739,470.39,738.71,461.45Z" transform="translate(-268.55 -49.81)"/><path class="cls-4" d="M828,945.2c-.88,6.34-1.28,6.59-6.11,3.77Z" transform="translate(-268.55 -49.81)"/><path class="cls-7" d="M807.74,304.93c0,5.65-4.37,4.12-7.56,4.53Z" transform="translate(-268.55 -49.81)"/><path class="cls-12" d="M1216.12,1205l-3.37-1.58,3.57-2.24C1216.26,1202.48,1216.19,1203.76,1216.12,1205Z" transform="translate(-268.55 -49.81)"/><path class="cls-23" d="M675.83,737.26c.42-2,.85-3.89,1.28-5.84,0,2-.05,4-.07,6A3.51,3.51,0,0,1,675.83,737.26Z" transform="translate(-268.55 -49.81)"/><path class="cls-18" d="M1159.75,763.16l-1.56,0c.08-1.34.15-2.69.23-4l1.56,2.07C1159.88,761.87,1159.81,762.51,1159.75,763.16Z" transform="translate(-268.55 -49.81)"/><path class="cls-4" d="M1150.14,941l-2.33-1.59a10.1,10.1,0,0,1,1.82-.17C1149.81,939.78,1150,940.36,1150.14,941Z" transform="translate(-268.55 -49.81)"/><path class="cls-15" d="M676.42,998.88l.94-1.79Z" transform="translate(-268.55 -49.81)"/><path class="cls-9" d="M1159.68,907.2a5.61,5.61,0,0,1-1.82-.22c.21-.63.41-1.26.61-1.88Z" transform="translate(-268.55 -49.81)"/><path class="cls-4" d="M1182.59,962.65l3.2.65c-.94,1.81-1.86,3.63-2.93,5.36a9.61,9.61,0,0,1-2.28-1.16A49.58,49.58,0,0,1,1182.59,962.65Z" transform="translate(-268.55 -49.81)"/><path class="cls-6" d="M654.12,1185v-23.72h125l6.69,1.21,3.78.63,2.15,1c9.09,3.54,15.54,9.71,18.87,19,.32.87.65,1.75,1,2.62l-.09,53.17c-.95-5-1.9-10-2.75-14.46H787.86l-5.43-8.63-2,.38c-.12,3.44-.19,6.88-.38,10.31-.42,7.49-.9,15-1.36,22.47-.09-4-.25-8-.26-12,0-11.66.1-23.33,0-35-.09-8.49-2.06-10.34-10.65-10.83-1-.06-2,0-3,0q-34,0-68,0c-2.27,0-4.54.36-8.21.67v33.1c-8.14.66-16.28,1.82-24.42,1.83-6.15,0-7.92-2.41-8.06-8.69-.17-7.9.12-15.81-.14-23.71C655.79,1191.24,654.74,1188.15,654.12,1185Z" transform="translate(-268.55 -49.81)"/><path class="cls-12" d="M778.64,1249c.46-7.49.94-15,1.36-22.47.19-3.43.26-6.87.38-10.31l2-.38,5.43,8.63H808.8c.85,4.48,1.8,9.47,2.75,14.46v6.19c-2.33,2.59-2.28,5.19,0,7.82l-3.57,16.15c-.48.68-1,1.36-1.45,2l-.48.15.06.5-.74.27-.08.77-3.48,3.32a1,1,0,0,0-1.26,1l-.53.31-2.18,1.51-2,.77-3.19,1.54-.67.14-5.79,1.7-.28,0L654,1283.3q0-49.12.1-98.26c.62,3.11,1.67,6.2,1.78,9.33.26,7.9,0,15.81.14,23.71.14,6.28,1.91,8.7,8.06,8.69,8.14,0,16.28-1.17,24.42-1.83.41,9.73.82,19.45,1.26,29.71,27,0,53.12,0,79.19,0C773.26,1254.64,776.66,1253,778.64,1249Z" transform="translate(-268.55 -49.81)"/><path class="cls-12" d="M403.85,1250.87c.77-3,2.12-6,2.21-9,.29-9.78.11-19.57.89-30.08,9.49,12.08,22.15,5.68,33.24,7.22q-.06,32.12-.13,64.21l-61.82-.41-3.42-4-.08-.78-.74-.29,0-.5-.48-.14-1.51-1.78-.2-.27-1.69-2-3.51-4.3,0-.66-.66-.2v-.57l-.53-.19-1.45-1.71-.25-.33-1.65-2-3.7-4.5.18-.48L358,1258c.13-.55-.1-.85-.66-.9L356,1255.5l-.3-.41c-.54-.63-1.07-1.26-1.61-1.88l-3.86-4.77.35-.16-.54-.16a.79.79,0,0,0-.76-1l-1.29-1.46-.37-.52-1.54-1.86c-1.76-2.15-3.51-4.31-5.26-6.46l-.08-.77-.73-.28,0-.5-.48-.14c-.5-.59-1-1.19-1.49-1.79q-3.22-4.74-6.43-9.49c2.93-4.46,7.43-4.89,12.18-4.84,6.87.07,13.74,0,19.43,0l7.17-8.12,1.56.2,1.93,2.39,1.18,1.65,1.14,1.31.34.47,1.58,1.87,5.16,6.4c-.13.71.16,1.08.89,1.12l2.17,2.67,1.71,2c1.15,1.42,2.29,2.84,3.44,4.25v.71l.69.22,0,.55.52.17,1.45,1.74.21.29c.57.66,1.13,1.33,1.7,2s1.27,1.51,1.91,2.27Z" transform="translate(-268.55 -49.81)"/><path class="cls-6" d="M370.41,1210.88l-7.17,8.12c-5.69,0-12.56,0-19.43,0-4.75,0-9.25.38-12.18,4.84l-8.54-8.94a1.06,1.06,0,0,0-1.09-1.25l-.37-.53-1.55-1.85-6.55-8.19-6.28-8.25-1.69.77.32,7.41-1.26,12c-2.28,1.1-4.8,1.89-6.81,3.36-8.11,5.92-13.22,6.28-21.82,1.32a63.31,63.31,0,0,0-6.17-2.76c-.42-3.47-.85-7-1.27-10.42v-5c.36-12.87.72-25.74,1.1-39.25,2.9-.25,5.44-.66,8-.67,15.26-.06,30.52.22,45.77-.16,5.49-.14,9.57,1.45,12.89,5.58l1.76,2.09h0l1.89,2.34,10.86,13.67,1.41,1.6.17.24,1.72,2,10.47,14.08,1.52,2.07Z" transform="translate(-268.55 -49.81)"/><path class="cls-6" d="M596.23,1213,590,1223a26.09,26.09,0,0,1-14.76,2.73,50.09,50.09,0,0,1-20.82-6.7q13-28.42,26.11-57h59.33V1221c-1.08,3.64-2.15,7.28-3.24,11-2.76-.73-5.89-2.69-8.14-2-8.3,2.71-15.5,0-22.8-3.11-.42-2.81-.83-5.62-1.25-8.43v-19.92l-1.4-.4Q599.65,1205.6,596.23,1213Z" transform="translate(-268.55 -49.81)"/><path class="cls-12" d="M554.44,1219a50.09,50.09,0,0,0,20.82,6.7A26.09,26.09,0,0,0,590,1223c-.64,2.09-1.29,4.19-1.94,6.28-.4.62-.8,1.24-1.19,1.86l-.48-.21-.24.47-4,7.66q-4,9.11-8.08,18.23l-.81,1.49c-.39.84-.79,1.68-1.19,2.52a1,1,0,0,0-.78,1.47l-1.23,2.5c-.28.5-.55,1-.82,1.51l-3.18,6.51-.8,1.49q-1.59,3.29-3.16,6.57c-2.45.68-4.89,1.87-7.36,1.94-6.89.18-13.79-.11-20.69-.21q-13.38-26.44-26.74-52.91c-1.47-2.92-2.6-6-3.89-9,2.24.39,4.9.16,6.61,1.33,3.08,2.11,5.81,2.67,9.24,1.12,1.42-.64,3.57-1.06,4.83-.45,6.6,3.2,11.28,0,15.82-4.14q2.29,3.92,4.57,7.84l2.25,6.22,2.94-6.11a1.07,1.07,0,0,0,.54-1.42l1.36-2.52Z" transform="translate(-268.55 -49.81)"/><path class="cls-12" d="M269.82,1217a63.31,63.31,0,0,1,6.17,2.76c8.6,5,13.71,4.6,21.82-1.32,2-1.47,4.53-2.26,6.81-3.36q.33,21.17.68,42.33c.15,8.2.38,16.4.57,24.6-3.26.39-6.52,1-9.79,1.13-8.65.2-17.3.14-25.95.18-.3-4.58-.89-9.16-.87-13.74C269.34,1252,269.62,1234.48,269.82,1217Z" transform="translate(-268.55 -49.81)"/><path class="cls-12" d="M454.33,1278.89c.58-3.13,1.57-6.26,1.64-9.4.22-9.89,0-19.78.12-29.66,0-3.21.32-6.42.48-9.47a70.77,70.77,0,0,1,32.54-1.33q.38,26.7.77,53.41l-35.78.64C454.18,1281.68,454.26,1280.28,454.33,1278.89Z" transform="translate(-268.55 -49.81)"/><path class="cls-12" d="M605.7,1226.94c7.3,3.13,14.5,5.82,22.8,3.11,2.25-.74,5.38,1.22,8.14,2,1.09-3.7,2.16-7.34,3.24-11q0,31.13.11,62.25l-34.54-.08Q605.57,1255.07,605.7,1226.94Z" transform="translate(-268.55 -49.81)"/><path class="cls-12" d="M440.17,1201a21.63,21.63,0,0,1,0-20Q440.17,1191,440.17,1201Z" transform="translate(-268.55 -49.81)"/><path class="cls-6" d="M811.5,1252.91c-2.23-2.63-2.28-5.23,0-7.82C811.53,1247.69,811.52,1250.3,811.5,1252.91Z" transform="translate(-268.55 -49.81)"/><path class="cls-9" d="M1307.22,898.87q.19-38.42.38-76.83.3-53.38.63-106.76c.51,0,1,0,1.53.07q0,11,.08,22,0,13,0,25.93,0,30,0,59.92,0,26,0,52c0,5.94.12,11.9-.22,17.83C1309.43,895,1308,896.9,1307.22,898.87Z" transform="translate(-268.55 -49.81)"/><path class="cls-15" d="M1251.46,447.22l-5,.6C1247.65,443.55,1249.54,445.31,1251.46,447.22Z" transform="translate(-268.55 -49.81)"/><path class="cls-22" d="M740.12,767.2q0-13,0-25.94l85.43.12.15,26.3c-3.19.5-6.36,1.39-9.55,1.42-15.86.15-31.73.3-47.59,0C759.1,768.89,749.62,767.85,740.12,767.2Z" transform="translate(-268.55 -49.81)"/><path class="cls-15" d="M738.78,455.28l-.45-2,1.36.16C739.39,454.05,739.09,454.67,738.78,455.28Z" transform="translate(-268.55 -49.81)"/><path class="cls-10" d="M1246,761.18l0,44c-5.63,3.26-11.62,2.32-17.77,2.16-17.51-.45-35.05,0-52.57-.25-5.2-.07-10.39-1.22-15.58-1.87l-.27-42.05c.06-.65.13-1.29.23-1.93,14.7-3.57,29.65-1.94,44.48-1.9C1218.3,759.37,1232.13,760.52,1246,761.18Z" transform="translate(-268.55 -49.81)"/><path class="cls-15" d="M1246.63,831.07q0,13,0,26.11Q1246.66,844.13,1246.63,831.07Z" transform="translate(-268.55 -49.81)"/><path class="cls-15" d="M1246.73,861c.29.68.57,1.37.86,2a9.36,9.36,0,0,1-1.21-1.23C1246.29,861.68,1246.6,861.27,1246.73,861Z" transform="translate(-268.55 -49.81)"/><path class="cls-19" d="M1309.76,715.35c-.51,0-1-.06-1.53-.07q0-10,0-19.91.78,7.95,1.54,15.88C1309.79,712.62,1309.78,714,1309.76,715.35Z" transform="translate(-268.55 -49.81)"/><path class="cls-24" d="M825.6,741.38l-85.43-.12c-.17-2.73-.33-5.46-.5-8.19q.2-7.92.41-15.86H825.6Z" transform="translate(-268.55 -49.81)"/><path class="cls-25" d="M1753.32,1162c-3.23,3.49-.58,11.35-8.69,7.62v-27.49c4.85,0,9.42-.42,13.87.08,10,1.14,13.17,8.2,7.91,16.92a32.39,32.39,0,0,1-2.09,2.68q2,3.63,4.16,7.61c-3.68,2.67-5.9.84-8.32-1.8C1758.19,1165.43,1755.63,1163.81,1753.32,1162Zm-1.73-4.82c4.55-.38,9,1,9.9-4,.28-1.5-1.64-4.21-3.24-5s-4.2-.2-6.66-.2Z" transform="translate(-268.55 -49.81)"/></svg>