<svg id="Layer_1" data-name="Layer 1" xmlns="http://www.w3.org/2000/svg" viewBox="0 0 381.66 381.22"><defs><style>.cls-1{fill:#4e4e4e;}</style></defs><path class="cls-1" d="M972.08,255.18V560.75c-1.73,5.64-5.8,8.84-10.94,11.39q-51.32,25.47-102.47,51.28c-6.19,3.13-11.75,3.22-18.06.39C803.85,607.28,767,591,730.2,574.56a7.65,7.65,0,0,0-7,.06q-55.69,24.89-111.52,49.5a19.75,19.75,0,0,1-10,1.74c-7.41-1-11.23-6.76-11.23-15.53q0-147.18-.07-294.37c0-8.43,3.49-13.56,11.15-16.93,40.83-18,81.56-36.17,122.33-54.28h5.21c2.17.89,4.36,1.73,6.51,2.68Q790.33,271.72,845,296.1a8.56,8.56,0,0,0,8.24-.27q51.16-25.66,102.45-51.08h6A18,18,0,0,1,972.08,255.18ZM740.36,279.5v2.91q0,131.89-.05,263.78c0,2.31.66,3.45,2.84,4.41q44.91,19.81,89.75,39.83a25.56,25.56,0,0,0,2.86.88v-3.4q0-131.34.08-262.67c0-2.9-1.08-4.05-3.51-5.12q-43.56-19.23-87.05-38.61C743.84,280.87,742.37,280.32,740.36,279.5Zm-122.58,312c1.2-.45,1.65-.6,2.09-.79q45.39-20.16,90.81-40.24c2.65-1.16,2.5-2.93,2.5-5q0-130.8,0-261.58c0-1.3-.11-2.61-.18-4.31-1.67.68-2.92,1.15-4.13,1.69-29,12.89-58,25.85-87.06,38.59-3.12,1.37-4.09,2.93-4.09,6.3q.15,130.23.08,260.45Zm245.34-1.11c1.56-.7,2.68-1.15,3.76-1.68q37.13-18.54,74.26-37c2.64-1.31,3.73-2.77,3.73-5.87q-.15-130.43-.08-260.84v-4.38c-1.77.82-2.89,1.3-4,1.84-24.63,12.3-49.23,24.66-73.92,36.85-2.84,1.4-3.85,2.93-3.85,6.15q.15,130.23.08,260.47Z" transform="translate(-590.42 -244.75)"/></svg>
