<svg id="Layer_1" data-name="Layer 1" xmlns="http://www.w3.org/2000/svg" viewBox="0 0 384 384"><defs><style>.cls-1{fill:#fff;}</style></defs><path class="cls-1" d="M1152,420.73V536.24c-3.41-9.64-10.44-12.78-20.34-12.76q-171.66.24-343.32,0c-9.89,0-16.93,3.11-20.34,12.76V420.73c3.71,9.43,10.73,12.35,20.64,12.33q171.74-.33,343.47-.14c1.63,0,3.38.35,4.85-.14,3.35-1.12,7-2.1,9.69-4.21C1149,426.71,1150.26,423.4,1152,420.73Z" transform="translate(-768 -348)"/><path class="cls-1" d="M768,659.25V543c3.32,9.44,10.07,12.81,19.92,12.8q172.08-.25,344.17,0c9.84,0,16.58-3.37,19.91-12.8V659.25c-3.13-9.57-9.8-13-19.73-13q-172.28.26-344.55,0C777.79,646.27,771.13,649.67,768,659.25Z" transform="translate(-768 -348)"/><path class="cls-1" d="M1152,666v66H768V666c.11.06.28.1.31.19,3.1,8.93,9.55,12.21,18.75,12.2q172.94-.15,345.88-.07c1.37,0,2.75,0,4.12-.12,6.6-.53,11.11-4,13.78-10C1151.18,667.46,1151.61,666.74,1152,666Z" transform="translate(-768 -348)"/><path class="cls-1" d="M768,413.23V348h384v65.23c-3.71-9.43-10.72-12.35-20.63-12.33q-171.75.33-343.49.15c-1.75,0-3.62-.35-5.22.15-3.14,1-6.6,1.91-9,3.92S769.83,410.47,768,413.23Z" transform="translate(-768 -348)"/><path d="M1152,543c-3.33,9.43-10.07,12.81-19.91,12.8q-172.09-.25-344.17,0c-9.85,0-16.6-3.36-19.92-12.8v-6.75c3.41-9.65,10.45-12.78,20.34-12.76q171.66.24,343.32,0c9.9,0,16.93,3.12,20.34,12.76Z" transform="translate(-768 -348)"/><path d="M768,413.23c1.83-2.76,3.18-6.09,5.62-8.11s5.9-2.92,9-3.92c1.6-.5,3.47-.15,5.22-.15q171.75,0,343.49-.15c9.91,0,16.92,2.9,20.63,12.33v7.5c-1.74,2.67-3,6-5.35,7.84-2.69,2.11-6.34,3.09-9.69,4.21-1.47.49-3.22.14-4.85.14q-171.73,0-343.47.14c-9.91,0-16.93-2.9-20.64-12.33Z" transform="translate(-768 -348)"/><path d="M1152,666c-.39.74-.82,1.46-1.16,2.23-2.67,6-7.18,9.44-13.78,10-1.37.11-2.75.12-4.12.12q-172.94,0-345.88.07c-9.2,0-15.65-3.27-18.75-12.2,0-.09-.2-.13-.31-.19v-6.75c3.13-9.58,9.79-13,19.72-13q172.28.26,344.55,0c9.93,0,16.6,3.39,19.73,13Z" transform="translate(-768 -348)"/></svg>