<svg id="Layer_1" data-name="Layer 1" xmlns="http://www.w3.org/2000/svg" viewBox="0 0 239.97 47.88"><defs><style>.cls-1{fill:#818181;}</style></defs><path class="cls-1" d="M696.74,441c.08,12.7-11,24-23.73,24.11-12.87.13-24.26-11.12-24.25-24s11.2-23.88,23.91-23.92S696.65,428.25,696.74,441Z" transform="translate(-648.76 -417.18)"/><path class="cls-1" d="M768.74,465.06c-12.71,0-23.94-11.18-24-23.86,0-12.86,11.29-24.11,24.19-24,12.71.09,23.83,11.33,23.79,24S781.46,465.07,768.74,465.06Z" transform="translate(-648.76 -417.18)"/><path class="cls-1" d="M864.71,465.06c-12.71,0-23.93-11.21-24-23.89,0-12.86,11.33-24.1,24.22-24,12.71.11,23.82,11.37,23.76,24.08S877.43,465.08,864.71,465.06Z" transform="translate(-648.76 -417.18)"/></svg>