<svg width="24" height="24" viewBox="0 0 24 24" fill="none" xmlns="http://www.w3.org/2000/svg">
<path fill-rule="evenodd" clip-rule="evenodd" d="M4.18934 4.93934C4.47064 4.65804 4.85217 4.5 5.25 4.5H20.25C20.6478 4.5 21.0294 4.65804 21.3107 4.93934C21.592 5.22065 21.75 5.60218 21.75 6V17.25C21.75 17.8467 21.5129 18.419 21.091 18.841C20.669 19.2629 20.0967 19.5 19.5 19.5H3C2.40326 19.5 1.83097 19.2629 1.40901 18.841C0.987053 18.419 0.75 17.8467 0.75 17.25V8.25C0.75 7.83579 1.08579 7.5 1.5 7.5C1.91421 7.5 2.25 7.83579 2.25 8.25V17.25C2.25 17.4489 2.32902 17.6397 2.46967 17.7803C2.61032 17.921 2.80109 18 3 18C3.19891 18 3.38968 17.921 3.53033 17.7803C3.67098 17.6397 3.75 17.4489 3.75 17.25V6C3.75 5.60217 3.90804 5.22064 4.18934 4.93934ZM5.12132 18H19.5C19.6989 18 19.8897 17.921 20.0303 17.7803C20.171 17.6397 20.25 17.4489 20.25 17.25V6L5.25 6V17.25C5.25 17.508 5.2057 17.7613 5.12132 18ZM9 9.75C8.58579 9.75 8.25 10.0858 8.25 10.5C8.25 10.9142 8.58579 11.25 9 11.25H16.5C16.9142 11.25 17.25 10.9142 17.25 10.5C17.25 10.0858 16.9142 9.75 16.5 9.75H9ZM9 12.75C8.58579 12.75 8.25 13.0858 8.25 13.5C8.25 13.9142 8.58579 14.25 9 14.25H16.5C16.9142 14.25 17.25 13.9142 17.25 13.5C17.25 13.0858 16.9142 12.75 16.5 12.75H9Z" fill="#2C2C2C"/>
</svg>
