<svg width="24" height="24" viewBox="0 0 24 24" fill="none" xmlns="http://www.w3.org/2000/svg">
<path fill-rule="evenodd" clip-rule="evenodd" d="M5.75 3.81818C5.75 3.78585 5.75813 3.76331 5.76539 3.75H20.2346C20.2419 3.76331 20.25 3.78585 20.25 3.81818V20.1818C20.25 20.2141 20.2419 20.2367 20.2346 20.25H5.76539C5.75813 20.2367 5.75 20.2141 5.75 20.1818V3.81818ZM5.72727 2.25C4.83079 2.25 4.25 3.03758 4.25 3.81818V5.5H2.75C2.33579 5.5 2 5.83579 2 6.25C2 6.66421 2.33579 7 2.75 7H4.25V9.5H2.75C2.33579 9.5 2 9.83579 2 10.25C2 10.6642 2.33579 11 2.75 11H4.25V13.5H2.75C2.33579 13.5 2 13.8358 2 14.25C2 14.6642 2.33579 15 2.75 15H4.25V17.5H2.75C2.33579 17.5 2 17.8358 2 18.25C2 18.6642 2.33579 19 2.75 19H4.25V20.1818C4.25 20.9624 4.83079 21.75 5.72727 21.75H20.2727C21.1692 21.75 21.75 20.9624 21.75 20.1818V3.81818C21.75 3.03758 21.1692 2.25 20.2727 2.25H5.72727ZM13 12C12.5221 12 12.0098 12.0306 11.5166 12.1082C10.1886 12.3173 9 12.868 9 14.0833C9 15.3333 10.7778 17 13 17C15.2222 17 17 15.3333 17 14.0833C17 12.868 15.8114 12.3173 14.4834 12.1082C13.9902 12.0306 13.4779 12 13 12ZM13 11C12.579 11 12.1985 10.8266 11.9261 10.5473C11.6625 10.277 11.5 9.90745 11.5 9.5C11.5 8.67157 12.1716 8 13 8C13.8284 8 14.5 8.67157 14.5 9.5C14.5 9.90745 14.3375 10.277 14.0739 10.5473C13.8015 10.8266 13.421 11 13 11ZM15.4971 14.0899L15.497 14.09C15.4805 14.1423 15.382 14.4538 14.9011 14.8353C14.4164 15.2198 13.7389 15.5 13 15.5C12.2611 15.5 11.5836 15.2198 11.0989 14.8353C10.618 14.4538 10.5195 14.1423 10.503 14.09C10.5007 14.083 10.5 14.0806 10.5 14.0833C10.5 14.0453 10.5025 14.0435 10.5067 14.0404C10.5072 14.04 10.5077 14.0397 10.5082 14.0393C10.5088 14.0388 10.5094 14.0382 10.5101 14.0374C10.541 14.0018 10.6449 13.9098 10.8965 13.8089C11.417 13.6002 12.1955 13.5 13 13.5C13.8045 13.5 14.583 13.6002 15.1035 13.8089C15.3551 13.9098 15.459 14.0018 15.4899 14.0374C15.4911 14.0388 15.4922 14.0396 15.4933 14.0404C15.4975 14.0435 15.5 14.0453 15.5 14.0833C15.5 14.0806 15.4993 14.083 15.4971 14.0899Z" fill="#2C2C2C"/>
</svg>
