<svg id="Layer_1" data-name="Layer 1" xmlns="http://www.w3.org/2000/svg" viewBox="0 0 352.55 361.13"><path d="M868.55,498.75V370.87c0-8.2,2.5-10.68,10.77-10.68h162.74c8.48,0,10.89,2.43,10.89,10.95v81.25h73.81c7.81,0,10.26,2.48,10.26,10.36V711c0,7.77-2.54,10.33-10.34,10.33H794.82c-7.83,0-10.34-2.53-10.34-10.32V508.88c0-7.67,2.44-10.13,10.06-10.13h74Zm168.68,206.92V376H884.31V705.53h28.42V601.08c0-7.94,2.36-10.39,10.17-10.4q37.86,0,75.73,0c7.59,0,10.1,2.56,10.1,10.13V705.67Zm84.23,0V468.14h-68.27V705.67ZM800,705.54h68.4V514.32H800Zm128.47-99.29v99.34h64.71V606.25Z" transform="translate(-784.48 -360.19)"/><path d="M996.09,465.71c-3.49,0-7,.09-10.46,0-4.74-.14-8.08-3.25-8.22-7.48s3-7.7,7.79-7.85c7.09-.22,14.2-.23,21.29,0,4.8.17,7.74,3.58,7.57,8-.17,4.19-3.26,7.15-7.89,7.33C1002.82,465.81,999.45,465.71,996.09,465.71Z" transform="translate(-784.48 -360.19)"/><path d="M925.46,465.7c-3.37,0-6.73.11-10.09,0-4.6-.17-7.75-3.14-7.93-7.29a7.38,7.38,0,0,1,7.52-8q10.81-.37,21.66,0a7.5,7.5,0,0,1,7.47,7.75,7.78,7.78,0,0,1-7.8,7.51C932.68,465.82,929.07,465.7,925.46,465.7Z" transform="translate(-784.48 -360.19)"/><path d="M995.82,404.26c3.49,0,7-.09,10.46,0,4.56.14,7.67,3.17,7.78,7.39a7.25,7.25,0,0,1-7.3,7.78q-11,.32-22,0A7.45,7.45,0,0,1,977.4,412,7.71,7.71,0,0,1,985,404.3C988.6,404.15,992.21,404.27,995.82,404.26Z" transform="translate(-784.48 -360.19)"/><path d="M926,496.46c3.48,0,7-.1,10.45,0a7.68,7.68,0,0,1,7.66,7.58,7.55,7.55,0,0,1-7.63,7.56q-10.63.21-21.29,0c-4.77-.08-7.82-3.28-7.74-7.73.08-4.27,3.15-7.29,7.72-7.42C918.75,496.37,922.37,496.46,926,496.46Z" transform="translate(-784.48 -360.19)"/><path d="M925.89,404.26c3.49,0,7-.1,10.46,0a7.7,7.7,0,0,1,7.74,7.52,7.51,7.51,0,0,1-7.54,7.66q-10.83.28-21.66,0a7.29,7.29,0,0,1-7.46-7.65c0-4.38,3.23-7.38,8-7.56h10.46Z" transform="translate(-784.48 -360.19)"/><path d="M996.05,496.46c3.49,0,7-.1,10.46,0,4.5.16,7.55,3.3,7.55,7.58a7.29,7.29,0,0,1-7.53,7.56c-7.21.14-14.44.14-21.65,0a7.51,7.51,0,0,1-7.47-7.71,7.63,7.63,0,0,1,7.44-7.4C988.58,496.35,992.32,496.47,996.05,496.46Z" transform="translate(-784.48 -360.19)"/><path d="M1087.14,506.79c-2.49,0-5,.12-7.47,0-4.71-.29-7.94-3.62-7.83-7.86a7.72,7.72,0,0,1,7.81-7.49c5.11-.18,10.23-.18,15.33,0,4.62.16,7.65,3.26,7.74,7.48.09,4.4-3,7.6-7.73,7.88C1092.38,506.92,1089.76,506.79,1087.14,506.79Z" transform="translate(-784.48 -360.19)"/><path d="M1087.32,551.14c-2.62,0-5.25.12-7.85,0a7.78,7.78,0,0,1-7.64-7.67,7.52,7.52,0,0,1,7.28-7.59,155.44,155.44,0,0,1,16.44,0,7.33,7.33,0,0,1,7.16,8c-.18,4.06-3.16,7-7.54,7.29C1092.56,551.26,1089.93,551.14,1087.32,551.14Z" transform="translate(-784.48 -360.19)"/><path d="M1087.27,639.78c-2.62,0-5.24.1-7.85,0a7.67,7.67,0,0,1-7.58-7.65,7.44,7.44,0,0,1,7.32-7.46c5.47-.18,11-.19,16.44,0a7.23,7.23,0,0,1,7.12,7.57,7.37,7.37,0,0,1-7.23,7.51C1092.76,639.9,1090,639.78,1087.27,639.78Z" transform="translate(-784.48 -360.19)"/><path d="M1087.59,668.93c2.49,0,5-.09,7.47,0,4.57.18,7.61,3.2,7.66,7.48a7.32,7.32,0,0,1-7.44,7.66q-8,.21-16.07,0a7.48,7.48,0,0,1-7.37-7.42,7.62,7.62,0,0,1,7.53-7.68C1082.1,668.83,1084.85,668.93,1087.59,668.93Z" transform="translate(-784.48 -360.19)"/><path d="M1087.36,595.49c-2.49,0-5,.07-7.47,0-4.63-.15-8-3.4-8.05-7.61a7.51,7.51,0,0,1,7.6-7.6c5.35-.18,10.72-.19,16.06,0a7.25,7.25,0,0,1,7.22,7.5,7.47,7.47,0,0,1-7.51,7.66C1092.6,595.59,1090,595.49,1087.36,595.49Z" transform="translate(-784.48 -360.19)"/><path d="M833.82,551.13c-2.49,0-5,.13-7.47,0-4.37-.25-7.37-3.21-7.56-7.26a7.31,7.31,0,0,1,7.11-8,152.44,152.44,0,0,1,16.42,0,7.56,7.56,0,0,1,7.32,7.55,7.78,7.78,0,0,1-7.6,7.71C839.31,551.27,836.56,551.13,833.82,551.13Z" transform="translate(-784.48 -360.19)"/><path d="M833.85,639.78c-2.62,0-5.24.12-7.84,0a7.36,7.36,0,0,1-7.23-7.5,7.21,7.21,0,0,1,7.09-7.58c5.47-.2,11-.19,16.42,0a7.5,7.5,0,0,1,7.33,7.46,7.69,7.69,0,0,1-7.56,7.66C839.33,639.88,836.58,639.79,833.85,639.78Z" transform="translate(-784.48 -360.19)"/><path d="M834,595.49c-2.49,0-5,.08-7.46,0-4.55-.18-7.64-3.19-7.75-7.43a7.3,7.3,0,0,1,7.33-7.76c5.34-.22,10.7-.21,16,0a7.5,7.5,0,0,1,7.47,7.71,7.77,7.77,0,0,1-7.79,7.48C839.22,595.58,836.61,595.49,834,595.49Z" transform="translate(-784.48 -360.19)"/><path d="M834.32,668.94c2.61,0,5.23-.11,7.84,0a7.65,7.65,0,0,1,7.47,7.74,7.55,7.55,0,0,1-7.44,7.37q-8,.23-16.05,0a7.56,7.56,0,0,1,0-15.11C828.84,668.83,831.58,668.94,834.32,668.94Z" transform="translate(-784.48 -360.19)"/></svg>