<svg id="Layer_1" data-name="Layer 1" xmlns="http://www.w3.org/2000/svg" viewBox="0 0 354.46 210.46"><path d="M783.69,538.5c17.52-30.27,40.93-54.91,70.87-73.14,37.77-23,78.87-33.21,122.94-29.12,69.5,6.43,122.23,40.25,158.88,99.35.6,1,1.18,1.94,1.77,2.91v4.15c-18.76,32.37-44.14,58.21-76.8,76.66-36.32,20.52-75.44,29.51-117,25.61-69.33-6.51-122.05-40.11-158.7-99.06l-2-3.21Zm178.09,93c7.94-.72,16.84-1.08,25.6-2.41,57.07-8.65,101.19-37.49,132.95-85.46,1.51-2.28,1.44-3.79,0-6.07-41.55-65.61-120.72-99.55-196.61-83.71-52.35,10.93-93,39.19-122.3,83.88-1.41,2.16-1.42,3.61,0,5.76C839.31,600.36,892.81,628.86,961.78,631.47Z" transform="translate(-783.69 -435.36)"/><path d="M961,474.31a66.54,66.54,0,0,1,66.27,66.56c-.15,36.34-30.09,66-66.51,66a66.56,66.56,0,0,1-66.27-66.56C894.68,503.93,924.6,474.25,961,474.31Zm51.45,66.41a51.57,51.57,0,0,0-103.13-.47c-.27,28.4,22.92,51.73,51.5,51.8A51.57,51.57,0,0,0,1012.49,540.72Z" transform="translate(-783.69 -435.36)"/></svg>