<svg id="Layer_1" data-name="Layer 1" xmlns="http://www.w3.org/2000/svg" viewBox="0 0 384 384"><path d="M966,348.75c3.28.67,6.59,1.23,9.83,2,34.89,8.59,54.86,41.48,46.73,77-4.77,20.83-14,39.81-25.41,57.62C986.54,502,974.67,517.82,963.32,534c-.69,1-1.6,1.83-2.85,3.25-6.41-8.53-12.84-16.63-18.78-25.07-15.63-22.22-29.88-45.23-38.94-71.05-5.24-14.95-8-30.15-3.53-45.9a63.38,63.38,0,0,1,53.44-45.66,18.45,18.45,0,0,0,2.84-.78ZM960.84,512c4.54-6.5,8.72-12.25,12.66-18.17,12.47-18.73,24-38,31.19-59.49,3.65-10.88,5.84-22,3-33.45a48.36,48.36,0,0,0-56.21-35.56c-23.61,4.76-39.87,24.45-38.6,48.47.47,8.91,3,18,6.16,26.41,8.85,23.95,22.75,45.17,37.45,65.86C957.77,507.9,959.11,509.67,960.84,512Z" transform="translate(-768.75 -348.75)"/><path d="M768.75,717c5.24,0,10.49,0,15.73,0h362.65c1.87,0,3.75,0,5.62,0v15.75h-384Z" transform="translate(-768.75 -348.75)"/><path d="M768.75,605.25c10.37-.08,20.74-.25,31.1-.19,2.56,0,3.7-.86,4.55-3.26q15.89-44.79,32-89.51c.37-1,.57-2.1,1-3.69h-12V493.14h34.19c-.4,1.34-.7,2.6-1.13,3.81Q837,556.86,815.7,616.79c-1,2.81-2.32,3.83-5.35,3.78-13.86-.25-27.73-.24-41.6-.32Z" transform="translate(-768.75 -348.75)"/><path d="M1152.75,620.25c-14.49.07-29,.23-43.47.06-1.16,0-2.82-2.11-3.34-3.57-9.2-25.45-18.25-51-27.34-76.45q-7.66-21.51-15.35-43c-.45-1.26-.84-2.55-1.37-4.15h34.26v15.19h-12.07c.5,1.84.76,3.11,1.19,4.33q15.85,44.39,31.69,88.8c1,2.69,2.22,3.63,5.07,3.61,10.24-.09,20.49.1,30.73.18Z" transform="translate(-768.75 -348.75)"/><path d="M855.17,620.22l27.24-127.06h29.87v15.29c-4.7,0-9.51.07-14.33,0-2.11,0-3,.64-3.5,2.83q-9.66,45.76-19.51,91.48c-.1.47-.16.95-.31,1.86H1047c-1.8-8.57-3.53-17-5.32-25.32-4.69-22-9.51-43.88-14-65.88-.82-4-2.34-5.41-6.38-5s-7.93.08-12.12.08V493.11h29.93c9.07,42.28,18.13,84.54,27.26,127.11Z" transform="translate(-768.75 -348.75)"/><path d="M888.43,453.38v15h-47.2v-15Z" transform="translate(-768.75 -348.75)"/><path d="M1033.08,468.3v-15h47.32v15Z" transform="translate(-768.75 -348.75)"/><path d="M777.25,676.44V661.2h23.2c0,4.48.1,8.92-.12,13.34,0,.67-1.58,1.8-2.45,1.82C791.16,676.51,784.43,676.44,777.25,676.44Z" transform="translate(-768.75 -348.75)"/><path d="M825.3,661h22.82v15.11H825.3Z" transform="translate(-768.75 -348.75)"/><path d="M873.22,676.44V661.16h23.21c0,4.61.09,9.06-.1,13.5,0,.62-1.42,1.68-2.19,1.7C887.3,676.49,880.46,676.44,873.22,676.44Z" transform="translate(-768.75 -348.75)"/><path d="M921.38,661.08h23.07c0,4.6.08,9-.1,13.46a2.84,2.84,0,0,1-2.1,1.81c-6.84.14-13.69.08-20.87.08Z" transform="translate(-768.75 -348.75)"/><path d="M969.3,661h22.82v15.11H969.3Z" transform="translate(-768.75 -348.75)"/><path d="M1040.46,661.1c0,4.67.09,9-.1,13.36a2.82,2.82,0,0,1-2,1.88c-6.94.15-13.89.09-21.06.09V661.1Z" transform="translate(-768.75 -348.75)"/><path d="M1065.27,676.16V661.1h22.87v15.06Z" transform="translate(-768.75 -348.75)"/><path d="M1113.25,676.44V661.2h23.2c0,4.48.1,8.92-.12,13.34,0,.67-1.58,1.8-2.45,1.82C1127.16,676.51,1120.43,676.44,1113.25,676.44Z" transform="translate(-768.75 -348.75)"/><path d="M960.58,436.43a23.69,23.69,0,1,1,24-23.6A23.83,23.83,0,0,1,960.58,436.43Zm.06-15.54a8.12,8.12,0,1,0-8.14-8.14A8.32,8.32,0,0,0,960.64,420.89Z" transform="translate(-768.75 -348.75)"/></svg>