<svg id="Layer_1" data-name="Layer 1" xmlns="http://www.w3.org/2000/svg" viewBox="0 0 498.58 496.3"><path d="M623.73,671.6q0,19.65,0,39.38c0,2.08.3,4.16.18,6.22-.43,7.41-5.66,12.46-12.67,12.37s-11.81-4.86-12.12-12.26c-.75-17.81-1.2-35.64-1.94-53.46-.43-10.36-1.08-20.71-1.83-31.05a12.83,12.83,0,0,1,13.69-13.49q19.65,1.22,39.34,2c14,.57,28,.89,42,1.35a30.74,30.74,0,0,1,5.16.56,12,12,0,0,1,9.9,13.16c-.46,6.18-5.12,11.08-11.55,11.12-10.21.05-20.42-.54-30.63-.69-9.15-.13-18.31,0-27.65,0A13.4,13.4,0,0,0,637,649c38.46,42.09,85.17,69.67,142.1,76.84,67,8.44,126.24-10.29,175.94-56.23,40.52-37.47,64.68-84.09,72.84-138.76,1.27-8.52,1.22-17.24,1.87-25.87.39-5.23,2.74-9.24,7.73-11.36,4.57-2,8.83-1.14,12.65,1.89s4.49,7.07,4.46,11.62a221.78,221.78,0,0,1-12.86,72.74C1018.11,646.74,976.43,698.94,911.52,729c-86.41,40-169.64,30.27-247.78-23.25-13.47-9.23-25.09-21.16-37.55-31.85C625.18,673,624.23,672.06,623.73,671.6Z" transform="translate(-556.05 -257.18)"/><path d="M987.48,336.84c0-7.81.07-17.06,0-26.32-.06-5.19-.47-10.38-.56-15.57-.15-8.71,4.58-14.31,12.05-14.48,7.64-.17,12.58,5.11,12.86,13.75.75,23,1.45,46,2.26,69,.16,4.48.68,9,1.11,13.43.79,8.25-5.36,14.59-13.43,14-10.69-.74-21.37-1.45-32.07-1.86-16.61-.64-33.22-1-49.83-1.51-5.67-.16-10.65-1.6-13.4-7.15-4.16-8.4,1.65-17.74,11.35-17.76s19.37.6,29.06.75c9.32.14,18.65,0,28.66,0-1.53-1.78-3-3.58-4.54-5.25-38.1-40.33-83.92-66.72-139.29-73.78-62.71-8-119.26,8.15-167.76,49-44.45,37.43-71.09,85.48-80.6,142.83-1.47,8.84-1.75,17.9-2.33,26.87-.62,9.48-5.47,15-13.2,14.54-7.52-.44-12-6.34-11.73-15.42,2-60.63,23.89-113.58,63-159.43,38.76-45.46,87.93-73.35,147-82.41,63.11-9.66,121.5,4.08,174.36,39.61C957.16,311,972.23,324.72,987.48,336.84Z" transform="translate(-556.05 -257.18)"/></svg>