<svg id="Layer_1" data-name="Layer 1" xmlns="http://www.w3.org/2000/svg" viewBox="0 0 384 275.52"><path d="M1152.75,543.75c-2.52,3-4.69,6.42-7.61,9q-69.75,60.9-139.65,121.6c-3.15,2.75-6.51,4.69-10.81,4-5-.76-8.47-3.58-9.95-8.48-1.55-5.1.09-9.36,4-12.77q21.75-19,43.54-37.9l74.1-64.45c.47-.41.91-.84,2.16-2h-4.9q-159.71,0-319.4.1c-7.37,0-12.54-2.28-15.48-9.1v-6c2.9-6.87,8.12-9.11,15.46-9.1q159.52.23,319,.1h5.37c-6.61-5.78-12.47-10.92-18.36-16q-50.2-43.67-100.44-87.29c-3.72-3.22-6.26-6.88-5.53-12a11.47,11.47,0,0,1,7.48-9.56c4.61-1.82,8.84-.88,12.55,2.33q13.75,11.9,27.45,23.84,56.71,49.33,113.36,98.73c2.92,2.55,5.09,6,7.61,9Z" transform="translate(-768.75 -402.96)"/></svg>