<?xml version="1.0" standalone="no"?>
<!DOCTYPE svg PUBLIC "-//W3C//DTD SVG 20010904//EN"
 "http://www.w3.org/TR/2001/REC-SVG-20010904/DTD/svg10.dtd">
<svg version="1.0" xmlns="http://www.w3.org/2000/svg"
 width="512.000000pt" height="512.000000pt" viewBox="0 0 512.000000 512.000000"
 preserveAspectRatio="xMidYMid meet">

<g transform="translate(0.000000,512.000000) scale(0.100000,-0.100000)"
fill="#000000" stroke="none">
<path d="M2375 5105 c-627 -88 -1110 -588 -1175 -1216 -5 -56 -10 -276 -10
-490 l0 -389 -147 0 c-134 0 -153 -2 -199 -24 -58 -27 -120 -94 -134 -145 -6
-23 -10 -510 -10 -1341 l0 -1305 24 -51 c13 -28 41 -65 62 -82 80 -66 -41 -62
1774 -62 1815 0 1694 -4 1774 62 21 17 49 54 62 82 l24 51 0 1305 c0 831 -4
1318 -10 1341 -14 51 -76 118 -134 145 -46 22 -65 24 -198 24 l-148 0 0 389
c0 214 -5 434 -10 490 -79 769 -783 1323 -1545 1216z m363 -511 c285 -58 528
-269 632 -548 46 -121 50 -168 50 -613 l0 -423 -860 0 -860 0 0 423 c0 445 4
492 50 613 103 276 344 487 625 547 94 21 267 21 363 1z"/>
</g>
</svg>
