<svg id="Layer_1" data-name="Layer 1" xmlns="http://www.w3.org/2000/svg" viewBox="0 0 445.76 512"><defs><style>.cls-1{fill:#505050;}</style></defs><path class="cls-1" d="M1109,285c4,.93,8.07,1.75,12,2.8,37.91,10,64.54,45.72,62.54,83.76-2.17,41.38-31.6,74.56-71.86,80.14-26.46,3.67-49.73-3.95-69.46-22.07-1.34-1.24-2.65-2.51-4-3.76a5.32,5.32,0,0,0-.93-.39L900,510.59a85.07,85.07,0,0,1,0,60.82l137.62,85.25c2.83-2.55,5.56-5.17,8.46-7.6A83.77,83.77,0,0,1,1181.9,730.3c-6.85,34.09-35.25,60.71-70.13,65.8a16.57,16.57,0,0,0-2.77.9h-18c-8.72-2.58-17.87-4.22-26.1-7.91A82.92,82.92,0,0,1,1020,688.24c1.32-4.18.83-6.17-3.15-8.62q-64.92-39.82-129.54-80.1c-1-.61-2-1.15-3.39-1.95-20.7,21-45.65,30.56-75.07,26.17-21.1-3.14-38.56-13.36-52-30-27.72-34.24-24.59-82.61,7.09-113.31,30.61-29.64,83.76-33.64,120.16,4l16.79-10.4q58.59-36.29,117.21-72.51c2.8-1.72,3.32-3.12,2.3-6.33-16.16-50.76,15.32-101.07,68.29-109.4A14.3,14.3,0,0,0,1091,285Zm-9.3,481.33a53.17,53.17,0,1,0-53-53.53A53.14,53.14,0,0,0,1099.7,766.33Zm.22-450.66a53.17,53.17,0,1,0,53.1,53.48A53,53,0,0,0,1099.92,315.67ZM768.65,541.1a53.18,53.18,0,1,0,52.8-53.24A53,53,0,0,0,768.65,541.1Z" transform="translate(-737.94 -285)"/></svg>