<svg id="Layer_1" data-name="Layer 1" xmlns="http://www.w3.org/2000/svg" viewBox="0 0 368.23 288.44"><path d="M687.36,637.93a8.07,8.07,0,0,0-.26,1.18c-.47,8.81-.61,8.94-9.31,8.94-9.35,0-18.71,0-28.06,0-5.25,0-6.58-1.4-6.59-6.73q0-22.63,0-45.27c0-15.89,4.51-22,19.91-26.72,0-8.84,0-17.79,0-26.74a31,31,0,0,1,.66-7.41,18.42,18.42,0,0,1,18.13-14c27.56-.11,55.13-.06,82.69,0,5.78,0,10.58,2.41,14.8,6.6C784.49,522,791,521,798.15,521c25.19.16,50.39.06,75.58.07,13.68,0,21.36,7.65,21.38,21.27,0,9,0,17.92,0,26.94,2.21.48,4.17.76,6,1.34a21.5,21.5,0,0,1,15.07,20.22c.14,17.21.07,34.42,0,51.63,0,3.86-1.57,5.48-5.48,5.51-11,.07-22,0-32.92,0-3.47,0-5.35-1.73-5.38-5.27,0-1.49,0-3,0-4.83Zm185-45.17c.25-9.57,4.06-16.61,12.38-21,.84-.45,1.35-2.23,1.37-3.4.11-8.72.09-17.45,0-26.17,0-8.33-3.79-12-12.16-12.06H795.8c-8.28,0-12,3.8-12,12.18q0,23.55,0,47.12c0,1.08.12,2.16.19,3.37Zm-97.54,0c0-17.15,0-34,0-50.79,0-8.06-3.82-11.82-12-11.83q-25.8,0-51.62,0c-9.47,0-18.95-.06-28.42,0-6.32.06-10.5,3.75-10.62,9.65-.2,9.6-.11,19.2,0,28.8a3.43,3.43,0,0,0,1.38,2.61c9.19,4.19,13.34,11.56,13.72,21.54Zm-87.57,35.71h185V602.1h-185Zm219.93,10.43c0-16.61.21-33-.13-49.42-.11-5.29-5-9.62-10.14-10.62-8.25-1.6-15.32,4.42-15.4,13.42-.13,14.7,0,29.39,0,44.09a16.92,16.92,0,0,0,.39,2.53Zm-229.1,0c0-16.27.13-32.09-.13-47.89a14.41,14.41,0,0,0-2.88-7.48,12.22,12.22,0,0,0-14-4.18,12.78,12.78,0,0,0-8.84,12.55c-.08,14.82,0,29.64,0,44.47a20.12,20.12,0,0,0,.32,2.53Z" transform="translate(-548.06 -359.62)"/><path d="M590,639.07h28c6.92,0,9.14,1,9.2,4.37s-2.39,4.61-9.43,4.61H556a27.4,27.4,0,0,1-3.74-.11c-2.53-.35-4.22-1.8-4.18-4.43,0-2.8,1.77-4.36,4.56-4.39,7.73-.07,15.46,0,23.2,0,1.47,0,2.95,0,5,0v-5q0-99.72,0-199.45c0-25.17,9.32-46,29.5-61.27,36.57-27.62,88.56-11.75,105.26,32.08,2.81,7.37,4.1,15.32,6.24,23.59a40.4,40.4,0,0,1,20.88,9.75c11,9.93,14.29,22.69,13.22,36.92-.22,2.95-2.41,4.17-5.29,4.16-5,0-10-.13-15,.1a4.43,4.43,0,0,0-3.21,2c-3.17,6.37-8,10.24-15.25,10.23s-12.05-3.92-15.22-10.28a4.47,4.47,0,0,0-3.25-2c-5.48-.2-11-.1-16.46-.09-3,0-5.2-1.28-5.41-4.45-1.13-16.55,3.52-30.74,18-40.09,4.91-3.17,10.79-4.84,17.19-7.61-1.17-5-1.9-11.13-4-16.72-9.27-24.47-26.45-39.44-53-42-25.56-2.51-50.75,13.78-60.39,39.43A67.64,67.64,0,0,0,590,431.23c-.36,68.35-.23,136.7-.23,205C589.8,637,589.9,637.76,590,639.07ZM747,470.66c.07-12.85-4.66-22.79-15.66-28.94s-22.1-5.55-32.45,1.55c-9.42,6.47-13.42,15.83-13.12,27.39Zm-35.7,9.3c4.18,4.4,8.75,4.22,11.19,0Z" transform="translate(-548.06 -359.62)"/></svg>