<svg id="Layer_1" data-name="Layer 1" xmlns="http://www.w3.org/2000/svg" viewBox="0 0 207.22 242.25"><path d="M1024.32,591a6.47,6.47,0,0,0-.94-.56c-5-2-7.67-5.81-7.68-11.38q0-21.64,0-43.29,0-36.56-.06-73.1a5.86,5.86,0,0,0-1.39-3.69q-33.72-35-67.56-69.79c-.43-.44-.89-.84-1.72-1.62-.08,1.17-.19,2-.19,2.75,0,7.88,0,15.77,0,23.65-.06,6.48-3.43,10.88-9,11.94a10.77,10.77,0,0,1-12.74-10.74c-.09-12.94,0-25.87,0-38.8,0-5.12,0-10.25,0-15.37,0-6.06,2.72-9.83,8.35-11.8a5.17,5.17,0,0,0,.79-.45H989a6.07,6.07,0,0,0,1,.56c5.32,2.07,8.43,7.12,7.56,12.3a11.29,11.29,0,0,1-11.32,9.69c-7.71.07-15.43,0-23.14,0h-2.76c1,1.14,1.65,1.84,2.3,2.51q35.07,36.19,70.19,72.35a16,16,0,0,1,4.78,12q-.13,59.22,0,118.45c0,8.61-1.58,11.12-9.08,14.39Z" transform="translate(-923 -348.75)"/><path d="M1121.07,348.75c.63.27,1.25.55,1.88.8a11.2,11.2,0,0,1,7.23,10.5q.08,27.56,0,55.11a10.85,10.85,0,0,1-9.55,10.89,10.67,10.67,0,0,1-11.53-7.65,18.66,18.66,0,0,1-.62-5.12c-.06-7.57,0-15.14,0-22.71V387.4c-1.12,1.07-1.78,1.67-2.39,2.31q-21.64,22.32-43.27,44.65c-2.94,3-6.29,4.64-10.52,3.83-8.06-1.56-11.59-11.49-6.39-18.07a28.79,28.79,0,0,1,2.06-2.22q21.3-22,42.63-44a22.72,22.72,0,0,1,2.16-1.73l-.36-.73c-.77,0-1.55-.13-2.32-.13h-22.7a11.3,11.3,0,0,1-5-21.62c.77-.33,1.55-.63,2.32-.95Z" transform="translate(-923 -348.75)"/></svg>