<?xml version="1.0" standalone="no"?>
<!DOCTYPE svg PUBLIC "-//W3C//DTD SVG 20010904//EN"
 "http://www.w3.org/TR/2001/REC-SVG-20010904/DTD/svg10.dtd">
<svg version="1.0" xmlns="http://www.w3.org/2000/svg"
 width="512.000000pt" height="512.000000pt" viewBox="0 0 512.000000 512.000000"
 preserveAspectRatio="xMidYMid meet">

<g transform="translate(0.000000,512.000000) scale(0.100000,-0.100000)"
fill="#000000" stroke="none">
<path d="M905 4615 c-33 -32 -34 -83 -2 -113 23 -22 26 -22 420 -22 218 0 397
-3 397 -8 0 -4 -257 -264 -571 -577 -314 -314 -575 -580 -580 -592 -19 -50 35
-111 88 -98 19 4 216 194 606 583 l577 577 0 -401 0 -401 23 -21 c32 -30 87
-29 115 1 22 23 22 23 22 536 l0 512 -25 24 -24 25 -511 0 -511 0 -24 -25z"/>
<path d="M4044 4630 c-12 -5 -26 -15 -30 -22 -5 -7 -11 -247 -14 -533 l-5
-520 -477 -5 c-441 -5 -479 -6 -495 -23 -17 -16 -18 -50 -21 -447 l-3 -430
-464 0 c-297 0 -474 -4 -491 -10 -55 -21 -53 -7 -54 -537 l0 -493 -459 0 -460
0 -28 -24 -28 -24 -3 -461 -3 -461 -469 0 c-322 0 -477 -3 -493 -11 -49 -22
-61 -86 -22 -124 l24 -25 534 0 c525 0 535 0 561 21 l26 20 0 465 0 464 455 0
c318 0 462 3 479 11 14 7 30 25 36 42 6 19 10 200 10 508 l0 479 483 0 484 0
21 23 c22 23 22 26 22 450 l0 427 454 0 c312 0 463 4 486 11 60 21 60 24 60
579 l0 500 455 0 456 0 24 25 c39 38 27 102 -22 124 -29 13 -996 14 -1029 1z"/>
</g>
</svg>
