<?xml version="1.0" standalone="no"?>
<!DOCTYPE svg PUBLIC "-//W3C//DTD SVG 20010904//EN"
 "http://www.w3.org/TR/2001/REC-SVG-20010904/DTD/svg10.dtd">
<svg version="1.0" xmlns="http://www.w3.org/2000/svg"
 width="512.000000pt" height="512.000000pt" viewBox="0 0 512.000000 512.000000"
 preserveAspectRatio="xMidYMid meet">

<g transform="translate(0.000000,512.000000) scale(0.100000,-0.100000)"
fill="#000000" stroke="none">
<path d="M2509 4867 c-142 -96 -2460 -1785 -2482 -1808 -32 -35 -34 -67 -6
-103 15 -19 30 -26 56 -26 29 0 63 20 194 115 87 63 161 115 164 115 3 0 5
-617 5 -1371 0 -1056 3 -1381 12 -1413 18 -58 82 -120 140 -134 67 -17 3869
-17 3936 0 58 14 122 76 140 134 9 32 12 357 12 1413 0 754 2 1371 5 1371 3 0
77 -52 164 -115 131 -95 165 -115 194 -115 26 0 41 7 56 26 28 36 26 68 -6
103 -16 16 -269 203 -563 417 -294 213 -846 614 -1226 890 -380 276 -700 506
-712 513 -30 16 -45 14 -83 -12z m1040 -877 l971 -705 0 -1429 c0 -1316 -1
-1431 -17 -1448 -15 -17 -89 -18 -1941 -18 -1778 0 -1927 1 -1944 17 -17 15
-18 73 -18 1447 l1 1431 730 530 c402 292 839 610 972 707 133 97 250 176 259
175 9 -1 453 -319 987 -707z"/>
<path d="M2392 3520 c-178 -47 -341 -179 -420 -340 -23 -47 -49 -112 -57 -145
-19 -76 -19 -234 0 -310 47 -184 182 -354 345 -433 47 -23 112 -49 145 -57 76
-19 234 -19 310 0 184 47 354 182 433 345 55 112 72 184 72 300 0 184 -62 332
-195 466 -92 92 -180 143 -301 174 -100 26 -233 26 -332 0z m299 -156 c174
-51 310 -188 355 -358 16 -61 18 -185 4 -241 -43 -164 -166 -303 -317 -357
-73 -26 -206 -35 -282 -18 -182 40 -329 182 -377 365 -18 65 -17 186 0 251 58
218 258 373 482 374 45 0 104 -7 135 -16z"/>
<path d="M1907 2134 c-81 -19 -191 -73 -265 -129 -109 -82 -187 -194 -239
-340 l-28 -80 -3 -384 c-4 -410 -3 -418 45 -440 35 -16 2252 -16 2287 0 46 21
48 41 44 445 l-3 379 -28 80 c-84 239 -261 406 -495 466 -70 18 -113 19 -666
18 -470 0 -603 -4 -649 -15z m1278 -159 c169 -44 308 -171 373 -341 26 -69 26
-71 30 -396 l3 -328 -1030 0 -1031 0 0 293 c0 166 5 319 11 353 35 193 197
366 392 419 80 21 1168 21 1252 0z"/>
</g>
</svg>
