<svg id="Layer_1" data-name="Layer 1" xmlns="http://www.w3.org/2000/svg" viewBox="0 0 19.89 18.33"><defs><style>.cls-1{fill:#4e4e4e;}</style></defs><path class="cls-1" d="M960.06,530.89c2.62,0,5.24,0,7.87,0A2,2,0,0,1,970,533c0,1.28,0,2.56,0,3.84a1.88,1.88,0,0,1-2,2H952.11a1.88,1.88,0,0,1-2-2V532.9a1.88,1.88,0,0,1,2-2Zm0,6.4H968c.4,0,.52-.12.52-.51v-3.87c0-.4-.12-.52-.51-.52H952.13c-.4,0-.52.12-.52.52v3.81c0,.47.1.57.56.57Z" transform="translate(-950.1 -530.88)"/><path class="cls-1" d="M960,549.2c-2.63,0-5.25,0-7.87,0a2,2,0,0,1-2.07-2.06c0-1.28,0-2.56,0-3.84a1.88,1.88,0,0,1,2-2H968a1.88,1.88,0,0,1,2,2v3.91a1.88,1.88,0,0,1-2,2Zm0-1.5H968c.41,0,.53-.11.53-.52v-3.85c0-.41-.11-.53-.52-.53H952.14c-.41,0-.53.12-.53.53v3.79c0,.48.1.58.57.58Z" transform="translate(-950.1 -530.88)"/></svg>