<svg id="Layer_1" data-name="Layer 1" xmlns="http://www.w3.org/2000/svg" viewBox="0 0 231.09 231.34"><path d="M850.33,424.45c5,1.36,10.09,2.76,15.16,4.05,9.47,2.42,19,4.75,28.42,7.16,4.15,1,5,4.08,2,7.12-4.39,4.44-8.84,8.82-13.06,13l77.77,77.78q38.45-38.46,77.75-77.75c-2.84-2.82-6-5.93-9.11-9.05-1.44-1.43-2.91-2.84-4.31-4.32-2.5-2.64-1.66-5.76,1.89-6.7,6.62-1.73,13.27-3.34,19.9-5l23.18-5.83a4.46,4.46,0,0,0,1-.48h5.42v3.62q-5.61,22.4-11.22,44.8c-.43,1.76-.94,3.39-2.87,4s-3.42-.5-4.75-1.85c-4.27-4.35-8.58-8.66-13-13.09-.64.59-1.19,1.07-1.71,1.59q-38.17,38.17-76.38,76.33a5.54,5.54,0,0,0-1.8,4.31q.07,52.76,0,105.5a14.2,14.2,0,0,1-.36,3.57,3.46,3.46,0,0,1-3.77,2.59,3.42,3.42,0,0,1-3.55-2.6,14.62,14.62,0,0,1-.35-3.57q0-52.86-.06-105.72a5.22,5.22,0,0,0-1.15-3.38q-38.73-38.89-77.59-77.68c-.26-.26-.55-.5-1-.92-4,4-7.95,8-11.93,11.94-1.62,1.62-3,3.83-5.84,3s-2.71-3.37-3.25-5.51c-3.42-13.56-6.76-27.13-10.23-40.68-.68-2.65-.34-4.71,2.1-6.19Zm217,8.85-32.39,8.12c8.19,8.2,16.16,16.16,24.28,24.28Zm-213.37,0,7.94,31.74,23.82-23.81Z" transform="translate(-845.21 -424.45)"/></svg>