<?xml version="1.0" standalone="no"?>
<!DOCTYPE svg PUBLIC "-//W3C//DTD SVG 20010904//EN"
 "http://www.w3.org/TR/2001/REC-SVG-20010904/DTD/svg10.dtd">
<svg version="1.0" xmlns="http://www.w3.org/2000/svg"
 width="195.000000pt" height="211.000000pt" viewBox="0 0 195.000000 211.000000"
 preserveAspectRatio="xMidYMid meet">

<g transform="translate(0.000000,211.000000) scale(0.100000,-0.100000)"
fill="#000000" stroke="none">
<path d="M895 2029 c-121 -18 -256 -108 -327 -219 -122 -191 -72 -476 106
-610 197 -149 444 -139 617 27 189 180 195 472 14 662 -105 111 -257 162 -410
140z m220 -159 c67 -32 131 -99 163 -168 22 -46 26 -72 27 -137 0 -71 -4 -88
-33 -147 -60 -123 -169 -190 -309 -190 -55 0 -84 5 -126 25 -74 34 -141 97
-174 166 -24 48 -28 68 -28 146 0 78 4 97 28 147 34 70 109 140 180 167 74 30
202 26 272 -9z"/>
<path d="M531 944 c-201 -54 -379 -236 -426 -435 -9 -40 -15 -114 -15 -200 0
-119 2 -138 18 -152 28 -25 67 -21 91 9 19 24 21 41 21 148 0 70 6 143 14 172
34 130 126 239 253 301 l78 38 378 3 c327 3 386 1 435 -13 82 -24 129 -51 188
-107 115 -108 154 -212 154 -404 0 -111 2 -126 20 -144 26 -26 65 -25 91 1 20
20 21 29 17 173 -6 182 -24 248 -99 360 -84 126 -206 214 -345 250 -87 22
-790 22 -873 0z"/>
</g>
</svg>
