<?xml version="1.0" standalone="no"?>
<!DOCTYPE svg PUBLIC "-//W3C//DTD SVG 20010904//EN"
 "http://www.w3.org/TR/2001/REC-SVG-20010904/DTD/svg10.dtd">
<svg version="1.0" xmlns="http://www.w3.org/2000/svg"
 width="512.000000pt" height="512.000000pt" viewBox="0 0 512.000000 512.000000"
 preserveAspectRatio="xMidYMid meet">

<g transform="translate(0.000000,512.000000) scale(0.100000,-0.100000)"
fill="#000000" stroke="none">
<path d="M1594 4479 l-331 -331 -138 196 c-76 108 -142 195 -146 194 -9 -3
-969 -1363 -969 -1372 0 -3 61 -6 135 -6 l135 0 0 -1375 0 -1375 -115 0 -115
0 0 -50 0 -50 1230 0 1230 0 0 50 0 50 -85 0 -86 0 3 403 3 403 28 42 c56 85
166 124 262 92 51 -17 117 -85 133 -136 8 -30 12 -150 12 -423 l0 -381 -85 0
-85 0 0 -50 0 -50 1230 0 1230 0 0 50 0 50 -115 0 -115 0 0 1375 0 1375 135 0
c74 0 135 3 135 6 0 9 -960 1369 -969 1372 -4 1 -70 -86 -146 -194 l-138 -196
-331 331 -331 331 -635 0 -635 0 -331 -331z m1883 -91 l322 -323 -282 -397
-281 -398 -676 0 -676 0 -281 398 -282 397 322 323 322 322 595 0 595 0 322
-322z m-2132 -528 c197 -278 371 -524 387 -547 l29 -43 -55 0 -55 0 -332 465
c-183 256 -335 465 -338 465 -4 0 -157 -211 -341 -470 l-335 -470 -53 0 c-30
0 -52 4 -50 9 8 22 774 1100 780 1098 3 -1 167 -229 363 -507z m3185 -37 c212
-301 387 -550 388 -555 2 -4 -20 -8 -50 -8 l-54 0 -334 470 c-184 259 -338
470 -341 470 -3 0 -155 -209 -338 -465 l-332 -465 -55 0 -55 0 58 83 c255 365
719 1017 723 1017 3 -1 178 -247 390 -547z m-3246 -211 l296 -412 0 -600 0
-600 -150 0 -150 0 0 -50 0 -50 60 0 60 0 0 -110 0 -110 -160 0 -160 0 0 -430
0 -430 -30 0 c-29 0 -30 -1 -30 -50 l0 -50 190 0 190 0 0 -155 0 -155 -510 0
-510 0 0 155 0 155 280 0 280 0 0 49 c0 47 -2 50 -27 53 l-28 3 -3 428 -2 427
-250 0 -250 0 0 758 0 757 298 417 c163 230 300 417 304 415 3 -1 140 -188
302 -415z m3158 0 l297 -417 1 -757 0 -758 -250 0 -250 0 -2 -427 -3 -428 -27
-3 c-26 -3 -28 -6 -28 -53 l0 -49 280 0 280 0 0 -155 0 -155 -510 0 -510 0 0
155 0 155 190 0 190 0 0 50 c0 49 -1 50 -30 50 l-30 0 0 430 0 430 -160 0
-160 0 0 110 0 110 60 0 60 0 0 50 0 50 -150 0 -150 0 0 600 0 600 298 415
c163 228 299 415 302 415 3 0 139 -188 302 -418z m-1002 -497 l0 -55 -365 0
-365 0 0 -50 0 -50 365 0 365 0 0 -480 0 -480 -880 0 -880 0 0 480 0 480 365
0 365 0 0 50 0 50 -365 0 -365 0 0 55 0 55 880 0 880 0 0 -55z m180 -1270 l0
-55 -455 0 -455 0 0 -50 0 -50 155 0 155 0 0 -540 0 -540 -40 0 -40 0 0 -100
0 -100 -30 0 -30 0 0 395 c0 372 -1 397 -20 449 -26 69 -83 134 -151 171 -49
27 -62 30 -149 30 -80 0 -102 -4 -138 -23 -63 -33 -114 -84 -148 -144 l-29
-53 -3 -412 -3 -413 -29 0 -30 0 0 100 0 100 -40 0 -40 0 0 540 0 540 155 0
155 0 0 50 0 50 -455 0 -455 0 0 55 0 55 1060 0 1060 0 0 -55z m-2042 -797 l2
-638 -40 0 -40 0 0 641 0 640 38 -3 37 -3 3 -637z m240 100 l2 -538 -45 0 -45
0 0 -100 0 -100 -25 0 -25 0 0 640 0 641 68 -3 67 -3 3 -537z m182 2 l0 -540
-40 0 -40 0 0 540 0 540 40 0 40 0 0 -540z m1200 0 l0 -540 -40 0 -40 0 0 540
0 540 40 0 40 0 0 -540z m240 -100 l0 -640 -25 0 -25 0 0 100 0 100 -45 0 -45
0 0 533 c0 294 3 537 7 540 3 4 35 7 70 7 l63 0 0 -640z m180 0 l0 -640 -40 0
-40 0 0 640 0 640 40 0 40 0 0 -640z m-2840 150 l0 -380 -197 2 -198 3 -3 365
c-1 201 0 371 3 377 3 10 52 13 200 13 l195 0 0 -380z m615 0 l0 -375 -107 -3
-108 -3 0 381 0 381 108 -3 107 -3 0 -375z m2545 0 l0 -381 -107 3 -108 3 -3
365 c-1 201 0 371 3 377 3 9 34 13 110 13 l105 0 0 -380z m795 0 l0 -375 -197
-3 -198 -2 0 380 0 380 198 -2 197 -3 0 -375z m-2655 -740 l0 -50 -125 0 -125
0 0 50 0 50 125 0 125 0 0 -50z m1210 0 l0 -50 -125 0 -125 0 0 50 0 50 125 0
125 0 0 -50z"/>
<path d="M2066 4246 c-57 -21 -108 -67 -136 -122 -23 -45 -25 -60 -28 -226
l-4 -178 247 0 247 0 -4 183 c-4 197 -9 218 -67 280 -59 64 -175 93 -255 63z
m140 -102 c65 -31 79 -63 83 -201 l3 -123 -147 0 -147 0 4 118 c4 133 16 165
77 201 44 25 82 26 127 5z"/>
<path d="M2910 4251 c-71 -23 -122 -66 -156 -131 -16 -29 -19 -64 -22 -217
l-4 -183 246 0 246 0 0 150 c0 82 -5 172 -11 199 -22 104 -110 180 -216 187
-32 2 -69 0 -83 -5z m128 -110 c62 -32 76 -68 80 -203 l4 -118 -147 0 -147 0
3 123 c4 107 7 126 26 153 44 61 115 79 181 45z"/>
<path d="M895 3625 c-55 -21 -121 -89 -140 -144 -11 -33 -15 -88 -15 -213 l0
-168 241 0 240 0 -3 188 -3 189 -30 49 c-43 68 -105 105 -187 110 -41 2 -77
-2 -103 -11z m153 -105 c60 -37 72 -70 72 -202 l0 -118 -140 0 -140 0 0 118
c0 99 3 122 20 150 26 42 76 72 120 72 19 0 50 -9 68 -20z"/>
<path d="M560 2530 l0 -340 -45 0 -45 0 0 -50 0 -50 235 0 235 0 0 50 c0 49
-1 50 -30 50 l-30 0 0 340 0 340 -160 0 -160 0 0 -340z m220 -50 l0 -290 -60
0 -60 0 0 290 0 290 60 0 60 0 0 -290z"/>
<path d="M1080 2530 l0 -340 -30 0 c-29 0 -30 -1 -30 -50 l0 -50 220 0 220 0
0 50 c0 49 -1 50 -30 50 l-30 0 0 340 0 340 -160 0 -160 0 0 -340z m220 -50
l0 -290 -60 0 -60 0 0 290 0 290 60 0 60 0 0 -290z"/>
<path d="M4057 3626 c-58 -21 -103 -61 -131 -118 -25 -50 -26 -58 -26 -230 l0
-178 240 0 240 0 0 168 c0 197 -10 238 -71 300 -65 66 -165 89 -252 58z m151
-106 c60 -37 72 -70 72 -202 l0 -118 -141 0 -141 0 4 129 c3 112 6 132 23 151
53 60 124 76 183 40z"/>
<path d="M3720 2530 l0 -340 -30 0 c-29 0 -30 -1 -30 -50 l0 -50 220 0 220 0
0 50 c0 49 -1 50 -30 50 l-30 0 0 340 0 340 -160 0 -160 0 0 -340z m220 -50
l0 -290 -60 0 -60 0 0 290 0 290 60 0 60 0 0 -290z"/>
<path d="M4240 2530 l0 -340 -30 0 c-29 0 -30 -1 -30 -50 l0 -50 235 0 235 0
0 50 0 50 -45 0 -45 0 0 340 0 340 -160 0 -160 0 0 -340z m220 -50 l0 -290
-60 0 -60 0 0 290 0 290 60 0 60 0 0 -290z"/>
<path d="M2510 3010 l0 -50 50 0 50 0 0 50 0 50 -50 0 -50 0 0 -50z"/>
<path d="M1880 2851 c-19 -10 -45 -36 -57 -57 -22 -38 -23 -46 -23 -371 l0
-333 160 0 161 0 -3 339 c-3 326 -4 341 -24 368 -53 71 -141 94 -214 54z m124
-103 c14 -19 16 -64 16 -290 l0 -268 -60 0 -60 0 0 274 c0 236 2 277 16 290
23 24 70 20 88 -6z"/>
<path d="M2464 2858 c-59 -19 -127 -80 -159 -143 l-30 -59 -3 -283 -3 -283
120 0 121 0 0 50 0 50 -71 0 -70 0 3 223 c3 257 9 279 87 328 91 58 221 26
267 -67 17 -34 19 -66 22 -261 l3 -223 -70 0 -71 0 0 -50 0 -50 121 0 120 0
-3 283 -3 283 -30 59 c-34 66 -101 125 -165 144 -45 13 -143 13 -186 -1z"/>
<path d="M3080 2848 c-18 -13 -43 -36 -54 -51 -20 -27 -21 -42 -24 -368 l-3
-339 161 0 161 0 -3 343 -3 342 -24 32 c-48 64 -148 83 -211 41z m124 -94 c14
-13 16 -54 16 -290 l0 -274 -60 0 -60 0 0 268 c0 226 2 271 16 290 18 26 65
30 88 6z"/>
<path d="M2510 1740 l0 -50 50 0 50 0 0 50 0 50 -50 0 -50 0 0 -50z"/>
</g>
</svg>
