<?xml version="1.0" standalone="no"?>
<!DOCTYPE svg PUBLIC "-//W3C//DTD SVG 20010904//EN"
 "http://www.w3.org/TR/2001/REC-SVG-20010904/DTD/svg10.dtd">
<svg version="1.0" xmlns="http://www.w3.org/2000/svg"
 width="512.000000pt" height="512.000000pt" viewBox="0 0 512.000000 512.000000"
 preserveAspectRatio="xMidYMid meet">

<g transform="translate(0.000000,512.000000) scale(0.100000,-0.100000)"
fill="#000000" stroke="none">
<path d="M1150 4224 c-613 -322 -1123 -595 -1133 -606 -15 -17 -17 -42 -17
-178 0 -196 3 -202 104 -208 l66 -4 0 -1374 0 -1374 -60 0 c-51 0 -65 -4 -85
-25 -33 -32 -33 -78 0 -110 l24 -25 2511 0 2511 0 24 25 c33 32 33 78 0 110
-22 22 -32 25 -105 25 l-80 0 0 128 0 129 38 11 c53 16 103 61 137 123 l30 54
3 479 c3 548 3 549 -73 634 -138 153 -381 119 -472 -66 l-28 -57 0 -485 c0
-474 0 -486 21 -531 29 -62 83 -121 139 -150 l45 -24 0 -127 0 -128 -175 0
-175 0 0 1374 0 1374 62 4 c51 4 65 9 85 32 22 26 23 34 23 172 0 105 -4 153
-14 172 -11 22 -237 145 -1134 620 -616 325 -1129 592 -1139 592 -10 0 -520
-264 -1133 -586z m2210 -148 l1055 -555 0 -63 0 -63 -2128 -3 -2128 -2 3 66 3
66 1060 559 c583 307 1065 557 1070 555 6 -2 485 -254 1065 -560z m-2830
-2231 l0 -1375 -100 0 -100 0 0 1375 0 1375 100 0 100 0 0 -1375z m3340 0 l0
-1375 -155 0 -155 0 0 549 c0 525 -1 550 -19 572 l-19 24 -276 3 -276 3 -2
550 -3 551 -24 19 c-22 18 -48 19 -658 19 l-634 0 -24 -25 -25 -24 0 -546 0
-545 -259 0 c-266 0 -313 -6 -331 -40 -6 -12 -10 -228 -10 -564 l0 -546 -155
0 -155 0 0 1375 0 1375 1590 0 1590 0 0 -1375z m370 0 l0 -1375 -100 0 -100 0
0 1375 0 1375 100 0 100 0 0 -1375z m-2218 614 c3 -140 3 -141 31 -165 28 -24
31 -24 227 -24 196 0 199 0 227 24 28 24 28 25 31 165 l4 141 129 0 129 0 0
-490 0 -490 -520 0 -520 0 0 490 0 490 129 0 129 0 4 -141z m358 56 l0 -85
-95 0 -95 0 0 85 0 85 95 0 95 0 0 -85z m2521 -561 c58 -29 59 -40 59 -531 0
-427 -1 -450 -20 -480 -49 -80 -163 -84 -216 -6 -18 26 -19 55 -22 453 -2 234
0 444 3 467 15 99 104 143 196 97z m-3479 -640 c4 -196 -13 -184 255 -184 114
0 212 4 223 10 30 16 40 66 40 196 l0 124 130 0 130 0 0 -495 0 -495 -520 0
-520 0 0 495 0 495 129 0 129 0 4 -146z m356 59 l3 -83 -101 0 -100 0 0 78 c0
43 3 82 7 86 4 4 48 5 98 4 l90 -3 3 -82z m844 -59 c4 -196 -13 -184 255 -184
114 0 212 4 223 10 30 16 40 66 40 196 l0 124 130 0 130 0 0 -495 0 -495 -520
0 -520 0 0 495 0 495 129 0 129 0 4 -146z m358 61 l0 -85 -95 0 -95 0 0 78 c0
43 3 82 7 85 3 4 46 7 95 7 l88 0 0 -85z"/>
</g>
</svg>
