<svg width="24" height="24" viewBox="0 0 24 24" fill="none" xmlns="http://www.w3.org/2000/svg">
<path fill-rule="evenodd" clip-rule="evenodd" d="M6.75 2.25C5.95435 2.25 5.19129 2.56607 4.62868 3.12868C4.06607 3.69129 3.75 4.45435 3.75 5.25V20.25V21C3.75 21.4142 4.08579 21.75 4.5 21.75H18C18.4142 21.75 18.75 21.4142 18.75 21C18.75 20.5858 18.4142 20.25 18 20.25H5.25C5.25 19.8522 5.40804 19.4706 5.68934 19.1893C5.97064 18.908 6.35217 18.75 6.75 18.75H19.5C19.9142 18.75 20.25 18.4142 20.25 18V3C20.25 2.58579 19.9142 2.25 19.5 2.25H6.75ZM6.75 17.25C6.21883 17.25 5.70218 17.3909 5.25 17.6519V5.25C5.25 4.85218 5.40804 4.47064 5.68934 4.18934C5.97064 3.90804 6.35218 3.75 6.75 3.75H18.75V17.25H6.75ZM7 8.25C7 7.83579 7.33579 7.5 7.75 7.5H16.25C16.6642 7.5 17 7.83579 17 8.25C17 8.66421 16.6642 9 16.25 9H7.75C7.33579 9 7 8.66421 7 8.25ZM7.75 10.5C7.33579 10.5 7 10.8358 7 11.25C7 11.6642 7.33579 12 7.75 12H13.25C13.6642 12 14 11.6642 14 11.25C14 10.8358 13.6642 10.5 13.25 10.5H7.75Z" fill="#2C2C2C"/>
</svg>
