<svg width="170" height="182" viewBox="0 0 170 182" fill="none" xmlns="http://www.w3.org/2000/svg">
<path d="M138.42 75.84C138.43 83.2392 136.894 90.5589 133.91 97.33H36.0901C32.8945 90.0546 31.3623 82.1579 31.605 74.2154C31.8478 66.2728 33.8594 58.4844 37.4933 51.4177C41.1272 44.3511 46.2919 38.1841 52.6109 33.3662C58.93 28.5483 66.2444 25.2008 74.021 23.5676C81.7976 21.9345 89.8407 22.0568 97.564 23.9257C105.287 25.7946 112.497 29.363 118.666 34.3709C124.836 39.3787 129.811 45.6999 133.228 52.8739C136.645 60.0478 138.419 67.8937 138.42 75.84Z" fill="#F2F2F2"/>
<path d="M24.5801 97.33H145.42" stroke="#63666A" stroke-width="1.5" stroke-miterlimit="10" stroke-linecap="round"/>
<path d="M103 39.04H56.3101C55.2055 39.04 54.3101 39.9355 54.3101 41.04V105.62C54.3101 106.725 55.2055 107.62 56.3101 107.62H103C104.105 107.62 105 106.725 105 105.62V41.04C105 39.9355 104.105 39.04 103 39.04Z" fill="#D7D7D7" stroke="#63666A" stroke-width="1.5" stroke-miterlimit="10"/>
<path d="M113.69 93.81V113.38C113.687 113.666 113.573 113.939 113.371 114.141C113.169 114.343 112.896 114.457 112.61 114.46H64.08C63.7936 114.46 63.5189 114.346 63.3163 114.144C63.1138 113.941 63 113.666 63 113.38V47C63 46.7136 63.1138 46.4389 63.3163 46.2364C63.5189 46.0338 63.7936 45.92 64.08 45.92H112.61C112.896 45.92 113.171 46.0338 113.374 46.2364C113.576 46.4389 113.69 46.7136 113.69 47V86.27" fill="white"/>
<path d="M113.69 93.81V113.38C113.687 113.666 113.573 113.939 113.371 114.141C113.169 114.343 112.896 114.457 112.61 114.46H64.08C63.7936 114.46 63.5189 114.346 63.3163 114.144C63.1138 113.941 63 113.666 63 113.38V47C63 46.7136 63.1138 46.4389 63.3163 46.2364C63.5189 46.0338 63.7936 45.92 64.08 45.92H112.61C112.896 45.92 113.171 46.0338 113.374 46.2364C113.576 46.4389 113.69 46.7136 113.69 47V86.27" stroke="#63666A" stroke-width="1.5" stroke-linecap="round" stroke-linejoin="round"/>
<path d="M90.38 51.6499H68.97C68.4343 51.6499 68 52.0842 68 52.6199V64.0299C68 64.5656 68.4343 64.9999 68.97 64.9999H90.38C90.9157 64.9999 91.35 64.5656 91.35 64.0299V52.6199C91.35 52.0842 90.9157 51.6499 90.38 51.6499Z" fill="#F2F2F2"/>
<path d="M101.5 64L100.557 63.1497C97.2099 60.0763 95 58.0816 95 55.5967C95 53.5694 96.5599 52 98.575 52C99.133 52.003 99.6837 52.1274 100.189 52.3645C100.694 52.6017 101.141 52.9459 101.5 53.3733C101.859 52.9459 102.306 52.6017 102.811 52.3645C103.316 52.1273 103.867 52.003 104.425 52C106.44 52 108 53.5694 108 55.5967C108 58.0816 105.79 60.0763 102.443 63.1497L101.5 64Z" fill="#CCCCCC"/>
<path d="M106.79 83.02H68.7699C68.1735 83.02 67.6899 83.5036 67.6899 84.1V93.9C67.6899 94.4965 68.1735 94.98 68.7699 94.98H106.79C107.386 94.98 107.87 94.4965 107.87 93.9V84.1C107.87 83.5036 107.386 83.02 106.79 83.02Z" fill="#F2F2F2"/>
<path d="M106.79 96.72H68.7699C68.1735 96.72 67.6899 97.2035 67.6899 97.8V102.15C67.6899 102.746 68.1735 103.23 68.7699 103.23H106.79C107.386 103.23 107.87 102.746 107.87 102.15V97.8C107.87 97.2035 107.386 96.72 106.79 96.72Z" fill="#D7D7D7"/>
<path d="M106.8 69.17H68.8002C68.5138 69.17 68.2391 69.2838 68.0365 69.4864C67.834 69.6889 67.7202 69.9636 67.7202 70.25C67.7202 70.5365 67.834 70.8112 68.0365 71.0137C68.2391 71.2163 68.5138 71.33 68.8002 71.33H106.8C107.087 71.33 107.361 71.2163 107.564 71.0137C107.766 70.8112 107.88 70.5365 107.88 70.25C107.88 69.9636 107.766 69.6889 107.564 69.4864C107.361 69.2838 107.087 69.17 106.8 69.17Z" fill="#D7D7D7"/>
<path d="M106.8 72.65H68.8C68.6501 72.6355 68.4989 72.6526 68.356 72.7C68.2131 72.7475 68.0816 72.8243 67.9702 72.9255C67.8587 73.0267 67.7696 73.1501 67.7087 73.2878C67.6477 73.4255 67.6162 73.5744 67.6162 73.725C67.6162 73.8756 67.6477 74.0245 67.7087 74.1622C67.7696 74.2999 67.8587 74.4233 67.9702 74.5246C68.0816 74.6258 68.2131 74.7026 68.356 74.75C68.4989 74.7975 68.6501 74.8145 68.8 74.8H106.8C106.95 74.8145 107.101 74.7975 107.244 74.75C107.387 74.7026 107.518 74.6258 107.63 74.5246C107.741 74.4233 107.83 74.2999 107.891 74.1622C107.952 74.0245 107.984 73.8756 107.984 73.725C107.984 73.5744 107.952 73.4255 107.891 73.2878C107.83 73.1501 107.741 73.0267 107.63 72.9255C107.518 72.8243 107.387 72.7475 107.244 72.7C107.101 72.6526 106.95 72.6355 106.8 72.65Z" fill="#D7D7D7"/>
<path d="M106.8 76.12H68.8002C68.5138 76.12 68.2391 76.2338 68.0365 76.4363C67.834 76.6389 67.7202 76.9136 67.7202 77.2C67.7202 77.4864 67.834 77.7611 68.0365 77.9637C68.2391 78.1662 68.5138 78.28 68.8002 78.28H106.8C107.087 78.28 107.361 78.1662 107.564 77.9637C107.766 77.7611 107.88 77.4864 107.88 77.2C107.88 76.9136 107.766 76.6389 107.564 76.4363C107.361 76.2338 107.087 76.12 106.8 76.12Z" fill="#D7D7D7"/>
<path d="M106.8 105.33H68.8002C68.5138 105.33 68.2391 105.444 68.0365 105.646C67.834 105.849 67.7202 106.124 67.7202 106.41C67.7202 106.696 67.834 106.971 68.0365 107.174C68.2391 107.376 68.5138 107.49 68.8002 107.49H106.8C106.942 107.49 107.082 107.462 107.214 107.408C107.345 107.353 107.464 107.274 107.564 107.174C107.664 107.073 107.744 106.954 107.798 106.823C107.852 106.692 107.88 106.552 107.88 106.41C107.88 106.268 107.852 106.128 107.798 105.997C107.744 105.866 107.664 105.747 107.564 105.646C107.464 105.546 107.345 105.466 107.214 105.412C107.082 105.358 106.942 105.33 106.8 105.33Z" fill="#D7D7D7"/>
<path d="M3.83691 175.284L5.66895 169.604H6.96094L4.30859 177H3.34473L0.665039 169.604H1.95703L3.83691 175.284ZM12.6348 177C12.5618 176.854 12.5026 176.594 12.457 176.221C11.8691 176.831 11.1673 177.137 10.3516 177.137C9.6224 177.137 9.02311 176.932 8.55371 176.521C8.08887 176.107 7.85645 175.583 7.85645 174.949C7.85645 174.179 8.14811 173.582 8.73145 173.158C9.31934 172.73 10.1442 172.516 11.2061 172.516H12.4365V171.935C12.4365 171.493 12.3044 171.142 12.04 170.882C11.7757 170.618 11.3861 170.485 10.8711 170.485C10.4199 170.485 10.0417 170.599 9.73633 170.827C9.43099 171.055 9.27832 171.331 9.27832 171.654H8.00684C8.00684 171.285 8.13672 170.93 8.39648 170.588C8.66081 170.242 9.01628 169.968 9.46289 169.768C9.91406 169.567 10.4085 169.467 10.9463 169.467C11.7985 169.467 12.4661 169.681 12.9492 170.109C13.4323 170.533 13.6829 171.119 13.7012 171.866V175.271C13.7012 175.95 13.7878 176.49 13.9609 176.891V177H12.6348ZM10.5361 176.036C10.9326 176.036 11.3086 175.934 11.6641 175.729C12.0195 175.523 12.277 175.257 12.4365 174.929V173.411H11.4453C9.89583 173.411 9.12109 173.865 9.12109 174.771C9.12109 175.168 9.25326 175.478 9.51758 175.701C9.7819 175.924 10.1214 176.036 10.5361 176.036ZM11.8076 168.51H10.7207L8.95703 166.5H10.4814L11.8076 168.51ZM21.6377 172.304L23.2783 169.604H24.7549L22.335 173.261L24.8301 177H23.3672L21.6582 174.231L19.9492 177H18.4795L20.9746 173.261L18.5547 169.604H20.0176L21.6377 172.304ZM29.0342 177.137C28.0316 177.137 27.2158 176.809 26.5869 176.152C25.958 175.492 25.6436 174.61 25.6436 173.507V173.274C25.6436 172.541 25.7826 171.887 26.0605 171.312C26.3431 170.734 26.735 170.283 27.2363 169.959C27.7422 169.631 28.2891 169.467 28.877 169.467C29.8385 169.467 30.5859 169.784 31.1191 170.417C31.6523 171.05 31.9189 171.957 31.9189 173.138V173.664H26.9082C26.9264 174.393 27.1383 174.983 27.5439 175.435C27.9541 175.881 28.4736 176.104 29.1025 176.104C29.5492 176.104 29.9274 176.013 30.2373 175.831C30.5472 175.649 30.8184 175.407 31.0508 175.106L31.8232 175.708C31.2035 176.66 30.2738 177.137 29.0342 177.137ZM28.877 170.506C28.3665 170.506 27.9382 170.693 27.5918 171.066C27.2454 171.436 27.0312 171.955 26.9492 172.625H30.6543V172.529C30.6178 171.887 30.4447 171.39 30.1348 171.039C29.8249 170.684 29.4056 170.506 28.877 170.506ZM34.5781 169.604L34.6123 170.424C35.1546 169.786 35.8861 169.467 36.8066 169.467C37.8411 169.467 38.5452 169.863 38.9189 170.656C39.165 170.301 39.484 170.014 39.876 169.795C40.2725 169.576 40.7396 169.467 41.2773 169.467C42.8997 169.467 43.7246 170.326 43.752 172.044V177H42.4873V172.119C42.4873 171.59 42.3665 171.196 42.125 170.937C41.8835 170.672 41.4779 170.54 40.9082 170.54C40.4388 170.54 40.0492 170.681 39.7393 170.964C39.4294 171.242 39.2493 171.618 39.1992 172.092V177H37.9277V172.153C37.9277 171.078 37.4014 170.54 36.3486 170.54C35.5192 170.54 34.9518 170.893 34.6465 171.6V177H33.3818V169.604H34.5781ZM50.5127 177H49.248V166.5H50.5127V177ZM57.1094 177C57.0365 176.854 56.9772 176.594 56.9316 176.221C56.3438 176.831 55.6419 177.137 54.8262 177.137C54.097 177.137 53.4977 176.932 53.0283 176.521C52.5635 176.107 52.3311 175.583 52.3311 174.949C52.3311 174.179 52.6227 173.582 53.2061 173.158C53.7939 172.73 54.6188 172.516 55.6807 172.516H56.9111V171.935C56.9111 171.493 56.779 171.142 56.5146 170.882C56.2503 170.618 55.8607 170.485 55.3457 170.485C54.8945 170.485 54.5163 170.599 54.2109 170.827C53.9056 171.055 53.7529 171.331 53.7529 171.654H52.4814C52.4814 171.285 52.6113 170.93 52.8711 170.588C53.1354 170.242 53.4909 169.968 53.9375 169.768C54.3887 169.567 54.8831 169.467 55.4209 169.467C56.2731 169.467 56.9408 169.681 57.4238 170.109C57.9069 170.533 58.1576 171.119 58.1758 171.866V175.271C58.1758 175.95 58.2624 176.49 58.4355 176.891V177H57.1094ZM55.0107 176.036C55.4072 176.036 55.7832 175.934 56.1387 175.729C56.4941 175.523 56.7516 175.257 56.9111 174.929V173.411H55.9199C54.3704 173.411 53.5957 173.865 53.5957 174.771C53.5957 175.168 53.7279 175.478 53.9922 175.701C54.2565 175.924 54.596 176.036 55.0107 176.036ZM54.2246 178.675C54.2246 178.47 54.2861 178.297 54.4092 178.155C54.5368 178.014 54.7236 177.943 54.9697 177.943C55.2158 177.943 55.4027 178.014 55.5303 178.155C55.6579 178.297 55.7217 178.47 55.7217 178.675C55.7217 178.88 55.6579 179.051 55.5303 179.188C55.4027 179.324 55.2158 179.393 54.9697 179.393C54.7236 179.393 54.5368 179.324 54.4092 179.188C54.2861 179.051 54.2246 178.88 54.2246 178.675ZM61.5322 177H60.2676V169.604H61.5322V177ZM60.165 167.642C60.165 167.437 60.2266 167.263 60.3496 167.122C60.4772 166.981 60.6641 166.91 60.9102 166.91C61.1562 166.91 61.3431 166.981 61.4707 167.122C61.5983 167.263 61.6621 167.437 61.6621 167.642C61.6621 167.847 61.5983 168.018 61.4707 168.154C61.3431 168.291 61.1562 168.359 60.9102 168.359C60.6641 168.359 60.4772 168.291 60.3496 168.154C60.2266 168.018 60.165 167.847 60.165 167.642ZM68.751 167.812V169.604H70.1318V170.581H68.751V175.168C68.751 175.464 68.8125 175.688 68.9355 175.838C69.0586 175.984 69.2682 176.057 69.5645 176.057C69.7103 176.057 69.9108 176.029 70.166 175.975V177C69.8333 177.091 69.5098 177.137 69.1953 177.137C68.6302 177.137 68.2041 176.966 67.917 176.624C67.6299 176.282 67.4863 175.797 67.4863 175.168V170.581H66.1396V169.604H67.4863V167.812H68.751ZM72.9893 177H71.7246V169.604H72.9893V177ZM71.6221 167.642C71.6221 167.437 71.6836 167.263 71.8066 167.122C71.9342 166.981 72.1211 166.91 72.3672 166.91C72.6133 166.91 72.8001 166.981 72.9277 167.122C73.0553 167.263 73.1191 167.437 73.1191 167.642C73.1191 167.847 73.0553 168.018 72.9277 168.154C72.8001 168.291 72.6133 168.359 72.3672 168.359C72.1211 168.359 71.9342 168.291 71.8066 168.154C71.6836 168.018 71.6221 167.847 71.6221 167.642ZM76.2158 169.604L76.2568 170.533C76.8219 169.822 77.5602 169.467 78.4717 169.467C80.0348 169.467 80.8232 170.349 80.8369 172.112V177H79.5723V172.105C79.5677 171.572 79.4447 171.178 79.2031 170.923C78.9661 170.668 78.5947 170.54 78.0889 170.54C77.6787 170.54 77.3187 170.649 77.0088 170.868C76.6989 171.087 76.4574 171.374 76.2842 171.729V177H75.0195V169.604H76.2158ZM93.4355 168.571H92.1504V177H90.9883L90.9268 176.207C90.4209 176.827 89.7168 177.137 88.8145 177.137C87.9577 177.137 87.2581 176.786 86.7158 176.084C86.1781 175.382 85.9092 174.466 85.9092 173.336V173.24C85.9092 172.105 86.1781 171.194 86.7158 170.506C87.2536 169.813 87.9577 169.467 88.8281 169.467C89.694 169.467 90.3799 169.763 90.8857 170.355V168.571H89.0811V167.539H90.8857V166.5H92.1504V167.539H93.4355V168.571ZM87.1738 173.384C87.1738 174.222 87.347 174.879 87.6934 175.353C88.0397 175.826 88.5182 176.063 89.1289 176.063C89.931 176.063 90.5166 175.703 90.8857 174.983V171.586C90.5075 170.889 89.9264 170.54 89.1426 170.54C88.5228 170.54 88.0397 170.779 87.6934 171.258C87.347 171.736 87.1738 172.445 87.1738 173.384ZM99.1504 177C99.0775 176.854 99.0182 176.594 98.9727 176.221C98.3848 176.831 97.6829 177.137 96.8672 177.137C96.138 177.137 95.5387 176.932 95.0693 176.521C94.6045 176.107 94.3721 175.583 94.3721 174.949C94.3721 174.179 94.6637 173.582 95.2471 173.158C95.835 172.73 96.6598 172.516 97.7217 172.516H98.9521V171.935C98.9521 171.493 98.82 171.142 98.5557 170.882C98.2913 170.618 97.9017 170.485 97.3867 170.485C96.9355 170.485 96.5573 170.599 96.252 170.827C95.9466 171.055 95.7939 171.331 95.7939 171.654H94.5225C94.5225 171.285 94.6523 170.93 94.9121 170.588C95.1764 170.242 95.5319 169.968 95.9785 169.768C96.4297 169.567 96.9242 169.467 97.4619 169.467C98.3141 169.467 98.9818 169.681 99.4648 170.109C99.9479 170.533 100.199 171.119 100.217 171.866V175.271C100.217 175.95 100.303 176.49 100.477 176.891V177H99.1504ZM97.0518 176.036C97.4482 176.036 97.8242 175.934 98.1797 175.729C98.5352 175.523 98.7926 175.257 98.9521 174.929V173.411H97.9609C96.4115 173.411 95.6367 173.865 95.6367 174.771C95.6367 175.168 95.7689 175.478 96.0332 175.701C96.2975 175.924 96.637 176.036 97.0518 176.036ZM100.025 166.719C100.025 167.211 99.8841 167.61 99.6016 167.915C99.3236 168.22 98.9749 168.373 98.5557 168.373C98.3688 168.373 98.207 168.35 98.0703 168.305C97.9336 168.259 97.7536 168.166 97.5303 168.024C97.3115 167.883 97.152 167.799 97.0518 167.771C96.9561 167.74 96.8444 167.724 96.7168 167.724C96.5299 167.724 96.3704 167.797 96.2383 167.942C96.1061 168.084 96.04 168.266 96.04 168.489L95.1924 168.441C95.1924 167.954 95.3291 167.55 95.6025 167.231C95.8805 166.912 96.2314 166.753 96.6553 166.753C96.8148 166.753 96.9583 166.776 97.0859 166.821C97.2135 166.867 97.3867 166.956 97.6055 167.088C97.8242 167.22 97.9906 167.307 98.1045 167.348C98.223 167.389 98.3529 167.409 98.4941 167.409C98.6901 167.409 98.8519 167.332 98.9795 167.177C99.1117 167.022 99.1777 166.842 99.1777 166.637L100.025 166.719ZM107.046 177H105.781V166.5H107.046V177ZM116.972 169.016C116.972 169.836 116.803 170.415 116.466 170.752C116.133 171.085 115.602 171.26 114.873 171.278V177H113.67L113.643 176.269C113.15 176.847 112.428 177.137 111.476 177.137C110.687 177.137 110.086 176.909 109.671 176.453C109.261 175.993 109.053 175.314 109.049 174.416V169.604H110.313V174.382C110.313 175.503 110.769 176.063 111.681 176.063C112.647 176.063 113.289 175.703 113.608 174.983V169.604H114.873V170.499C115.183 170.49 115.415 170.447 115.57 170.369C115.725 170.287 115.835 170.164 115.898 170C115.967 169.836 116.001 169.508 116.001 169.016H116.972ZM122.311 176.269C121.818 176.847 121.096 177.137 120.144 177.137C119.355 177.137 118.754 176.909 118.339 176.453C117.929 175.993 117.721 175.314 117.717 174.416V169.604H118.981V174.382C118.981 175.503 119.437 176.063 120.349 176.063C121.315 176.063 121.957 175.703 122.276 174.983V169.604H123.541V177H122.338L122.311 176.269ZM130.657 167.812V169.604H132.038V170.581H130.657V175.168C130.657 175.464 130.719 175.688 130.842 175.838C130.965 175.984 131.174 176.057 131.471 176.057C131.617 176.057 131.817 176.029 132.072 175.975V177C131.74 177.091 131.416 177.137 131.102 177.137C130.536 177.137 130.11 176.966 129.823 176.624C129.536 176.282 129.393 175.797 129.393 175.168V170.581H128.046V169.604H129.393V167.812H130.657ZM138.088 177C138.015 176.854 137.956 176.594 137.91 176.221C137.322 176.831 136.62 177.137 135.805 177.137C135.076 177.137 134.476 176.932 134.007 176.521C133.542 176.107 133.31 175.583 133.31 174.949C133.31 174.179 133.601 173.582 134.185 173.158C134.772 172.73 135.597 172.516 136.659 172.516H137.89V171.935C137.89 171.493 137.757 171.142 137.493 170.882C137.229 170.618 136.839 170.485 136.324 170.485C135.873 170.485 135.495 170.599 135.189 170.827C134.884 171.055 134.731 171.331 134.731 171.654H133.46C133.46 171.285 133.59 170.93 133.85 170.588C134.114 170.242 134.469 169.968 134.916 169.768C135.367 169.567 135.862 169.467 136.399 169.467C137.252 169.467 137.919 169.681 138.402 170.109C138.885 170.533 139.136 171.119 139.154 171.866V175.271C139.154 175.95 139.241 176.49 139.414 176.891V177H138.088ZM135.989 176.036C136.386 176.036 136.762 175.934 137.117 175.729C137.473 175.523 137.73 175.257 137.89 174.929V173.411H136.898C135.349 173.411 134.574 173.865 134.574 174.771C134.574 175.168 134.706 175.478 134.971 175.701C135.235 175.924 135.575 176.036 135.989 176.036ZM135.203 178.675C135.203 178.47 135.265 178.297 135.388 178.155C135.515 178.014 135.702 177.943 135.948 177.943C136.194 177.943 136.381 178.014 136.509 178.155C136.636 178.297 136.7 178.47 136.7 178.675C136.7 178.88 136.636 179.051 136.509 179.188C136.381 179.324 136.194 179.393 135.948 179.393C135.702 179.393 135.515 179.324 135.388 179.188C135.265 179.051 135.203 178.88 135.203 178.675ZM142.511 177H141.246V169.604H142.511V177ZM141.144 167.642C141.144 167.437 141.205 167.263 141.328 167.122C141.456 166.981 141.643 166.91 141.889 166.91C142.135 166.91 142.322 166.981 142.449 167.122C142.577 167.263 142.641 167.437 142.641 167.642C142.641 167.847 142.577 168.018 142.449 168.154C142.322 168.291 142.135 168.359 141.889 168.359C141.643 168.359 141.456 168.291 141.328 168.154C141.205 168.018 141.144 167.847 141.144 167.642ZM155.232 168.571H153.947V177H152.785L152.724 176.207C152.218 176.827 151.514 177.137 150.611 177.137C149.755 177.137 149.055 176.786 148.513 176.084C147.975 175.382 147.706 174.466 147.706 173.336V173.24C147.706 172.105 147.975 171.194 148.513 170.506C149.05 169.813 149.755 169.467 150.625 169.467C151.491 169.467 152.177 169.763 152.683 170.355V168.571H150.878V167.539H152.683V166.5H153.947V167.539H155.232V168.571ZM148.971 173.384C148.971 174.222 149.144 174.879 149.49 175.353C149.837 175.826 150.315 176.063 150.926 176.063C151.728 176.063 152.313 175.703 152.683 174.983V171.586C152.304 170.889 151.723 170.54 150.939 170.54C150.32 170.54 149.837 170.779 149.49 171.258C149.144 171.736 148.971 172.445 148.971 173.384ZM160.947 177C160.874 176.854 160.815 176.594 160.77 176.221C160.182 176.831 159.48 177.137 158.664 177.137C157.935 177.137 157.336 176.932 156.866 176.521C156.401 176.107 156.169 175.583 156.169 174.949C156.169 174.179 156.461 173.582 157.044 173.158C157.632 172.73 158.457 172.516 159.519 172.516H160.749V171.935C160.749 171.493 160.617 171.142 160.353 170.882C160.088 170.618 159.699 170.485 159.184 170.485C158.732 170.485 158.354 170.599 158.049 170.827C157.743 171.055 157.591 171.331 157.591 171.654H156.319C156.319 171.285 156.449 170.93 156.709 170.588C156.973 170.242 157.329 169.968 157.775 169.768C158.227 169.567 158.721 169.467 159.259 169.467C160.111 169.467 160.779 169.681 161.262 170.109C161.745 170.533 161.995 171.119 162.014 171.866V175.271C162.014 175.95 162.1 176.49 162.273 176.891V177H160.947ZM158.849 176.036C159.245 176.036 159.621 175.934 159.977 175.729C160.332 175.523 160.59 175.257 160.749 174.929V173.411H159.758C158.208 173.411 157.434 173.865 157.434 174.771C157.434 175.168 157.566 175.478 157.83 175.701C158.094 175.924 158.434 176.036 158.849 176.036ZM161.467 168.373V168.441H160.421L159.396 167.279L158.377 168.441H157.331V168.359L159.013 166.5H159.778L161.467 168.373ZM166.307 175.147L168.029 169.604H169.383L166.409 178.142C165.949 179.372 165.217 179.987 164.215 179.987L163.976 179.967L163.504 179.878V178.853L163.846 178.88C164.274 178.88 164.607 178.793 164.844 178.62C165.085 178.447 165.284 178.13 165.438 177.67L165.719 176.918L163.08 169.604H164.461L166.307 175.147Z" fill="#999999"/>
<path fill-rule="evenodd" clip-rule="evenodd" d="M66.8329 142.6C65.4233 142.6 64.1999 143.846 64.1999 145.486C64.1999 146.266 64.4881 147.005 64.9878 147.543L70.0499 152.995L75.112 147.543C75.6117 147.005 75.8999 146.266 75.8999 145.486C75.8999 143.846 74.6765 142.6 73.2669 142.6C72.5848 142.6 71.9199 142.891 71.4218 143.428L70.5262 144.392C70.4032 144.525 70.2306 144.6 70.0499 144.6C69.8692 144.6 69.6966 144.525 69.5736 144.392L68.678 143.428C68.1799 142.891 67.515 142.6 66.8329 142.6ZM62.8999 145.486C62.8999 143.22 64.6162 141.3 66.8329 141.3C67.8922 141.3 68.8974 141.754 69.6306 142.543L70.0499 142.995L70.4692 142.543L70.9455 142.986L70.4692 142.543C71.2024 141.754 72.2076 141.3 73.2669 141.3C75.4836 141.3 77.1999 143.22 77.1999 145.486C77.1999 146.581 76.7964 147.64 76.0646 148.428L70.5262 154.392C70.4032 154.525 70.2306 154.6 70.0499 154.6C69.8692 154.6 69.6966 154.525 69.5736 154.392L64.0352 148.428L64.5115 147.986L64.0352 148.428C63.3034 147.64 62.8999 146.581 62.8999 145.486Z" fill="#2C2C2C"/>
<path d="M30.3477 153V143.047H33.6016C34.6816 143.047 35.4928 143.27 36.0352 143.717C36.582 144.163 36.8555 144.824 36.8555 145.699C36.8555 146.164 36.7233 146.576 36.459 146.937C36.1947 147.292 35.8346 147.568 35.3789 147.764C35.9167 147.914 36.3405 148.201 36.6504 148.625C36.9648 149.044 37.1221 149.546 37.1221 150.129C37.1221 151.022 36.8327 151.724 36.2539 152.234C35.6751 152.745 34.8571 153 33.7998 153H30.3477ZM31.6602 148.345V151.927H33.8271C34.4378 151.927 34.9186 151.77 35.2695 151.455C35.625 151.136 35.8027 150.699 35.8027 150.143C35.8027 148.944 35.151 148.345 33.8477 148.345H31.6602ZM31.6602 147.292H33.6426C34.2168 147.292 34.6748 147.148 35.0166 146.861C35.363 146.574 35.5361 146.185 35.5361 145.692C35.5361 145.146 35.3766 144.749 35.0576 144.503C34.7386 144.252 34.2533 144.127 33.6016 144.127H31.6602V147.292ZM43.4385 153C43.3656 152.854 43.3063 152.594 43.2607 152.221C42.6729 152.831 41.971 153.137 41.1553 153.137C40.4261 153.137 39.8268 152.932 39.3574 152.521C38.8926 152.107 38.6602 151.583 38.6602 150.949C38.6602 150.179 38.9518 149.582 39.5352 149.158C40.123 148.73 40.9479 148.516 42.0098 148.516H43.2402V147.935C43.2402 147.493 43.1081 147.142 42.8438 146.882C42.5794 146.618 42.1898 146.485 41.6748 146.485C41.2236 146.485 40.8454 146.599 40.54 146.827C40.2347 147.055 40.082 147.331 40.082 147.654H38.8105C38.8105 147.285 38.9404 146.93 39.2002 146.588C39.4645 146.242 39.82 145.968 40.2666 145.768C40.7178 145.567 41.2122 145.467 41.75 145.467C42.6022 145.467 43.2699 145.681 43.7529 146.109C44.236 146.533 44.4867 147.119 44.5049 147.866V151.271C44.5049 151.95 44.5915 152.49 44.7646 152.891V153H43.4385ZM41.3398 152.036C41.7363 152.036 42.1123 151.934 42.4678 151.729C42.8232 151.523 43.0807 151.257 43.2402 150.929V149.411H42.249C40.6995 149.411 39.9248 149.865 39.9248 150.771C39.9248 151.168 40.057 151.478 40.3213 151.701C40.5856 151.924 40.9251 152.036 41.3398 152.036ZM41.374 142.712H42.4131L44.3955 144.51H43.0488L41.8936 143.423L40.7314 144.51H39.3779L41.374 142.712ZM44.8604 141.529H46.2275L44.8535 143.3H43.8896L44.8604 141.529ZM47.6768 145.604L47.7109 146.424C48.2533 145.786 48.9847 145.467 49.9053 145.467C50.9398 145.467 51.6439 145.863 52.0176 146.656C52.2637 146.301 52.5827 146.014 52.9746 145.795C53.3711 145.576 53.8382 145.467 54.376 145.467C55.9984 145.467 56.8232 146.326 56.8506 148.044V153H55.5859V148.119C55.5859 147.59 55.4652 147.196 55.2236 146.937C54.9821 146.672 54.5765 146.54 54.0068 146.54C53.5374 146.54 53.1478 146.681 52.8379 146.964C52.528 147.242 52.348 147.618 52.2979 148.092V153H51.0264V148.153C51.0264 147.078 50.5 146.54 49.4473 146.54C48.6178 146.54 48.0505 146.893 47.7451 147.6V153H46.4805V145.604H47.6768Z" fill="#999999"/>
<path d="M89.1758 144.571H87.8906V153H86.7285L86.667 152.207C86.1611 152.827 85.457 153.137 84.5547 153.137C83.6979 153.137 82.9984 152.786 82.4561 152.084C81.9183 151.382 81.6494 150.466 81.6494 149.336V149.24C81.6494 148.105 81.9183 147.194 82.4561 146.506C82.9938 145.813 83.6979 145.467 84.5684 145.467C85.4342 145.467 86.1201 145.763 86.626 146.355V144.571H84.8213V143.539H86.626V142.5H87.8906V143.539H89.1758V144.571ZM82.9141 149.384C82.9141 150.222 83.0872 150.879 83.4336 151.353C83.7799 151.826 84.2585 152.063 84.8691 152.063C85.6712 152.063 86.2568 151.703 86.626 150.983V147.586C86.2477 146.889 85.6667 146.54 84.8828 146.54C84.263 146.54 83.7799 146.779 83.4336 147.258C83.0872 147.736 82.9141 148.445 82.9141 149.384ZM93.3936 153.137C92.391 153.137 91.5752 152.809 90.9463 152.152C90.3174 151.492 90.0029 150.61 90.0029 149.507V149.274C90.0029 148.541 90.1419 147.887 90.4199 147.312C90.7025 146.734 91.0944 146.283 91.5957 145.959C92.1016 145.631 92.6484 145.467 93.2363 145.467C94.1979 145.467 94.9453 145.784 95.4785 146.417C96.0117 147.05 96.2783 147.957 96.2783 149.138V149.664H91.2676C91.2858 150.393 91.4977 150.983 91.9033 151.435C92.3135 151.881 92.833 152.104 93.4619 152.104C93.9085 152.104 94.2868 152.013 94.5967 151.831C94.9066 151.649 95.1777 151.407 95.4102 151.106L96.1826 151.708C95.5628 152.66 94.6331 153.137 93.3936 153.137ZM93.2363 146.506C92.7259 146.506 92.2975 146.693 91.9512 147.066C91.6048 147.436 91.3906 147.955 91.3086 148.625H95.0137V148.529C94.9772 147.887 94.804 147.39 94.4941 147.039C94.1842 146.684 93.765 146.506 93.2363 146.506ZM95.7314 144.619H94.5693L93.2227 143.348L91.876 144.619H90.7207L92.5801 142.828H93.8652L95.7314 144.619ZM95.1641 143.676L95.1572 142.78C95.4535 142.762 95.6676 142.723 95.7998 142.664C95.9365 142.605 96.0049 142.5 96.0049 142.35C96.0049 142.044 95.6836 141.892 95.041 141.892L95.0752 141.263C95.6585 141.263 96.1029 141.363 96.4082 141.563C96.7135 141.764 96.8662 142.031 96.8662 142.363C96.8662 142.632 96.7819 142.842 96.6133 142.992C96.4447 143.143 96.2236 143.234 95.9502 143.266L95.9434 143.676H95.1641ZM102.595 153H101.33V142.5H102.595V153ZM112.521 145.016C112.521 145.836 112.352 146.415 112.015 146.752C111.682 147.085 111.151 147.26 110.422 147.278V153H109.219L109.191 152.269C108.699 152.847 107.977 153.137 107.024 153.137C106.236 153.137 105.634 152.909 105.22 152.453C104.81 151.993 104.602 151.314 104.598 150.416V145.604H105.862V150.382C105.862 151.503 106.318 152.063 107.229 152.063C108.196 152.063 108.838 151.703 109.157 150.983V145.604H110.422V146.499C110.732 146.49 110.964 146.447 111.119 146.369C111.274 146.287 111.383 146.164 111.447 146C111.516 145.836 111.55 145.508 111.55 145.016H112.521ZM117.859 152.269C117.367 152.847 116.645 153.137 115.692 153.137C114.904 153.137 114.302 152.909 113.888 152.453C113.478 151.993 113.27 151.314 113.266 150.416V145.604H114.53V150.382C114.53 151.503 114.986 152.063 115.897 152.063C116.864 152.063 117.506 151.703 117.825 150.983V145.604H119.09V153H117.887L117.859 152.269ZM126.206 143.812V145.604H127.587V146.581H126.206V151.168C126.206 151.464 126.268 151.688 126.391 151.838C126.514 151.984 126.723 152.057 127.02 152.057C127.165 152.057 127.366 152.029 127.621 151.975V153C127.288 153.091 126.965 153.137 126.65 153.137C126.085 153.137 125.659 152.966 125.372 152.624C125.085 152.282 124.941 151.797 124.941 151.168V146.581H123.595V145.604H124.941V143.812H126.206ZM130.444 153H129.18V145.604H130.444V153ZM129.077 143.642C129.077 143.437 129.139 143.263 129.262 143.122C129.389 142.981 129.576 142.91 129.822 142.91C130.068 142.91 130.255 142.981 130.383 143.122C130.51 143.263 130.574 143.437 130.574 143.642C130.574 143.847 130.51 144.018 130.383 144.154C130.255 144.291 130.068 144.359 129.822 144.359C129.576 144.359 129.389 144.291 129.262 144.154C129.139 144.018 129.077 143.847 129.077 143.642ZM133.671 145.604L133.712 146.533C134.277 145.822 135.015 145.467 135.927 145.467C137.49 145.467 138.278 146.349 138.292 148.112V153H137.027V148.105C137.023 147.572 136.9 147.178 136.658 146.923C136.421 146.668 136.05 146.54 135.544 146.54C135.134 146.54 134.774 146.649 134.464 146.868C134.154 147.087 133.912 147.374 133.739 147.729V153H132.475V145.604H133.671Z" fill="#999999"/>
</svg>
