<svg id="Layer_1" data-name="Layer 1" xmlns="http://www.w3.org/2000/svg" viewBox="0 0 408.86 408.85"><defs><style>.cls-1{fill:#fff;}</style></defs><path class="cls-1" d="M973,745.4H949a20.89,20.89,0,0,0-3.08-.66c-28.53-1.94-55.65-9.29-80.56-23.24-67.18-37.62-103.72-95.1-108.46-172a187.24,187.24,0,0,1,23.74-104.43c37.52-67,95-103.43,171.76-108.17,36.87-2.27,72,5.85,104.45,23.68q86.48,47.56,105.31,144.82c1.49,7.78,2.16,15.73,3.22,23.6v24a27.67,27.67,0,0,0-.68,3.45c-2,28.51-9.53,55.52-23.33,80.5-31.79,57.57-80.09,92.83-144.78,105.25C988.81,743.67,980.86,744.34,973,745.4Zm-8.2-367.9c-89.37-1.89-165,68.83-167.21,159.73-2.16,89.36,68.77,165,159.67,167.21,89.36,2.16,165-68.78,167.21-159.68C1126.6,455.4,1055.66,380,964.77,377.5Z" transform="translate(-756.54 -336.55)"/><path class="cls-1" d="M911.47,541c0-18.36,0-36.71,0-55.07a37.14,37.14,0,0,1,.78-8.3c2.29-9.76,10.08-13.77,19.46-10.14a47.23,47.23,0,0,1,6.43,3.15q47.66,27.47,95.26,55a44.5,44.5,0,0,1,5.65,3.73c8.46,6.64,8.45,16.66,0,23.28a54.17,54.17,0,0,1-6.32,4.15Q985.8,584,938.81,611a42.57,42.57,0,0,1-11,4.43,12,12,0,0,1-14.58-8,36.7,36.7,0,0,1-1.7-10.93C911.38,578,911.47,559.46,911.47,541Z" transform="translate(-756.54 -336.55)"/></svg>