<svg xmlns="http://www.w3.org/2000/svg" id="Layer_1" data-name="Layer 1" viewBox="0 0 488.67 488.78"><defs><style>.cls-1{fill:#fff;}</style></defs><path class="cls-1" d="M935.49,296c8.78,1.26,17.63,2.18,26.34,3.83,42.31,8,78.53,27.69,108.67,58.31,27.43,27.86,45.56,61,53.34,99.35,9.79,48.25,3,94.27-21.14,137.22-7.75,13.76-17.54,26.37-26.4,39.51l-2.52,1c1.58.81,3.47,1.29,4.68,2.47q60.07,59,120,118.12c2.85,2.82,4.8,6.55,7.17,9.86v6.68c-5,10.62-12.55,14.78-21.3,11.26a24.69,24.69,0,0,1-7.68-5.44q-60.47-59.33-120.79-118.79c-1.23-1.21-2.51-2.37-3.8-3.59-6.48,4.44-12.62,8.93-19,13-36,22.7-75.47,33.31-117.85,31.72-55.91-2.09-103.56-23.58-142.44-63.88-29.22-30.29-47.34-66.41-53.4-108-7.88-54.05,3.88-103.71,36.31-147.88,31.21-42.5,72.95-69.17,124.54-80.2,8.05-1.72,16.33-2.38,24.5-3.57,1.38-.2,2.74-.57,4.11-.86Zm-187,201.31c.38,7.08.36,13,1,18.82,4.4,36.91,18.45,69.65,44.09,96.73C838.49,660.2,893.93,678,957.47,665.67c55.7-10.83,97.34-42.88,122-94.43,24.87-52,23.36-104.47-4.48-154.68-28.54-51.46-73.57-80.8-132-88-46.12-5.67-88.53,5.54-125.7,33.71C772.38,396.34,750,442.23,748.47,497.26Z" transform="translate(-716.94 -295.95)"/></svg>
