<svg id="Layer_1" data-name="Layer 1" xmlns="http://www.w3.org/2000/svg" viewBox="0 0 353.3 353.34"><defs><style>.cls-1{fill:#fff;}</style></defs><path class="cls-1" d="M1137.4,540.93q0,78.75,0,157.49a45.61,45.61,0,0,1-.23,5.61,14.91,14.91,0,0,1-12.93,13.1,43.83,43.83,0,0,1-5.61.28H802.89a41.2,41.2,0,0,1-6-.34,14.87,14.87,0,0,1-12.51-12.66,38.18,38.18,0,0,1-.29-5.24q0-158.42,0-316.85a38.12,38.12,0,0,1,.29-5.23,14.87,14.87,0,0,1,12.51-12.67,42.65,42.65,0,0,1,6-.33h315.72a42.57,42.57,0,0,1,6,.33,14.85,14.85,0,0,1,12.51,12.67,44.12,44.12,0,0,1,.29,6Q1137.41,462,1137.4,540.93ZM998,493.27a16.65,16.65,0,0,1-2.19,3.33q-88.62,88.73-177.43,177.29c-4,3.93-3.9,7.82-3.3,12.46H1106.7V682c0-25.37,0-50.75.07-76.12a9.23,9.23,0,0,0-3-7.17c-23.31-23.35-46.47-46.85-69.79-70.19C1022.38,516.9,1010.59,505.56,998,493.27Zm-183,33c1.41-1.33,2.39-2.22,3.33-3.16q19.23-19.22,38.46-38.43c7.33-7.3,16.19-7.32,23.46-.07q15.68,15.6,31.26,31.3c3.51,3.53,6.91,7.17,10.5,10.91,1.37-1.31,2.37-2.22,3.33-3.18Q956,493,986.64,462.4c8.36-8.35,16.75-8.31,25.08.08q45,45.36,90,90.75a49.06,49.06,0,0,1,3.61,4.6l1.07-.88V395.12H815ZM868.22,517a6.52,6.52,0,0,0-.88.69q-25.47,25.44-50.85,51a7.23,7.23,0,0,0-1.62,4.64c-.11,19-.07,38-.07,57,0,1,.11,1.91.14,2.48,28.25-28.24,56.52-56.51,84.52-84.52Z" transform="translate(-784.1 -364.08)"/><path class="cls-1" d="M922.37,402.59A38.34,38.34,0,1,1,884,440.9,38.3,38.3,0,0,1,922.37,402.59ZM914.78,441a7.47,7.47,0,0,0,7.56,7.53,7.59,7.59,0,1,0-.15-15.18A7.39,7.39,0,0,0,914.78,441Z" transform="translate(-784.1 -364.08)"/></svg>