<svg
  xmlns="http://www.w3.org/2000/svg"
  version="1.0"
  viewBox="0 0 285.000000 177.000000"
  preserveAspectRatio="xMidYMid meet"
>
  <g transform="translate(0.000000,177.000000) scale(0.100000,-0.100000)" fill="#000000" stroke="none">
    <path
      d="M1120 1405 l-44 -45 34 -34 c19 -18 131 -124 248 -236 117 -111 211 -206 210 -210 -2 -4 -111 -110 -243 -235 -132 -125 -241 -230 -243 -234 -1 -4 18 -26 42 -50 l45 -44 53 49 c30 27 166 155 302 284 l248 235 -55 50 c-30 28 -164 154 -296 280 -133 127 -245 231 -249 233 -4 1 -28 -18 -52 -43z"
    />
  </g>
</svg>
