<svg
  xmlns="http://www.w3.org/2000/svg"
  version="1.0"
  viewBox="0 0 920.000000 512.000000"
  preserveAspectRatio="xMidYMid meet"
>
  <g transform="translate(0.000000,512.000000) scale(0.100000,-0.100000)" fill="#000000" stroke="none">
    <path
      d="M3320 5112 c0 -3 84 -169 186 -369 102 -201 184 -366 182 -368 -1 -2 -39 -17 -83 -35 -281 -111 -587 -318 -800 -542 -573 -602 -778 -1429 -553 -2233 167 -601 599 -1126 1164 -1416 105 -53 323 -144 330 -136 2 1 -37 31 -86 66 -108 76 -287 244 -372 349 -434 538 -566 1249 -352 1891 143 429 412 780 794 1036 114 76 341 195 374 195 7 0 18 -12 25 -27 7 -16 92 -183 189 -373 l176 -344 12 39 c7 22 98 303 202 625 105 322 226 695 270 830 44 135 77 248 73 251 -5 6 -303 104 -1378 452 -194 63 -353 112 -353 109z"
    />
    <path
      d="M5460 5092 c371 -255 635 -593 780 -1002 79 -220 112 -413 112 -660 0 -334 -64 -608 -212 -903 -202 -400 -529 -717 -947 -913 l-112 -53 -187 367 c-102 202 -190 371 -194 375 -3 4 -12 -12 -19 -35 -12 -42 -244 -759 -449 -1388 -55 -168 -97 -308 -93 -311 3 -4 231 -80 506 -169 275 -89 662 -215 860 -279 198 -65 362 -117 364 -115 1 1 -81 168 -184 369 -103 202 -185 368 -183 370 1 2 38 17 81 34 294 117 589 317 808 549 332 351 546 792 615 1268 22 148 24 478 5 609 -81 552 -297 985 -674 1358 -230 226 -521 413 -806 516 -96 35 -106 37 -71 13z"
    />
  </g>
</svg>
