<svg
  xmlns="http://www.w3.org/2000/svg"
  version="1.0"
  viewBox="0 0 900.000000 460.000000"
  preserveAspectRatio="xMidYMid meet"
>
  <g transform="translate(0.000000,460.000000) scale(0.100000,-0.100000)" fill="#000000" stroke="none">
    <path
      d="M5426 4548 c-214 -369 -336 -584 -336 -593 0 -5 40 -32 88 -59 48 -27 123 -70 167 -96 44 -26 247 -143 450 -260 1080 -622 1269 -731 1280 -741 5 -5 -1397 -9 -3533 -9 l-3542 0 0 -370 0 -370 3508 0 3507 -1 -30 -24 c-16 -14 -102 -76 -190 -138 -216 -153 -1549 -1099 -1554 -1103 -2 -1 93 -138 210 -303 l213 -301 25 17 c26 16 660 465 781 553 36 26 175 125 310 220 135 96 344 244 465 330 121 86 564 401 985 700 421 298 766 544 768 545 1 1 -246 145 -550 320 -774 446 -1077 621 -1423 820 -706 407 -1464 844 -1517 874 l-57 32 -25 -43z m2194 -2068 c0 -5 -9 -14 -20 -20 -18 -10 -20 -8 -20 20 0 28 2 30 20 20 11 -6 20 -15 20 -20z"
    />
  </g>
</svg>
