<svg xmlns="http://www.w3.org/2000/svg" version="1.0" width="225.000000pt" height="225.000000pt" viewBox="0 0 225.000000 225.000000" preserveAspectRatio="xMidYMid meet">

  <g transform="translate(0.000000,225.000000) scale(0.100000,-0.100000)" fill="#000000" stroke="none">
    <path d="M210 2040 c-12 -12 -20 -33 -20 -53 0 -29 38 -70 410 -442 226 -225 410 -414 410 -420 0 -6 -184 -195 -410 -420 -372 -372 -410 -413 -410 -442 0 -43 30 -73 73 -73 29 0 70 38 442 410 225 226 414 410 420 410 6 0 195 -185 420 -410 372 -372 413 -410 442 -410 43 0 73 30 73 73 0 29 -38 70 -410 442 -225 225 -410 414 -410 420 0 6 185 195 410 420 372 372 410 413 410 442 0 43 -30 73 -73 73 -29 0 -70 -38 -442 -410 -225 -225 -414 -410 -420 -410 -6 0 -195 185 -420 410 -372 372 -413 410 -442 410 -20 0 -41 -8 -53 -20z"/>
  </g>
</svg>
