<svg id="Layer_1" data-name="Layer 1" xmlns="http://www.w3.org/2000/svg" viewBox="0 0 314.89 384"><path d="M915,732.75H902.25c-11.29-2.48-21.64-7.12-30-15.09a174.09,174.09,0,0,1-19.51-21.14c-19.39-25.77-31.72-55-40.63-85.8-8.19-28.32-11.8-56.94-5.84-86.21,6.62-32.42,23-58,52.63-74,23.86-12.86,48.62-16.71,74.6-6.33,7.63,3.05,15.53,5.43,23.3,8.16a19,19,0,0,0,13.87-.36c6-2.41,12.12-4.62,18.15-7,24.2-9.59,48.6-10.26,73.23-1.74,22.65,7.83,39.14,22.79,50.77,43.57-5.88,4.62-11.71,9.11-17.44,13.72-36.46,29.33-32.63,87,8.58,110.43a83,83,0,0,1,8.5,5.46c5.52,4.09,7.19,8.39,4.45,14.64-6.36,14.48-12.61,29.08-20.08,43-9.27,17.25-21,32.83-36.6,45.09-13.21,10.37-28,15.67-44.76,11.89-8.57-1.93-16.8-5.44-25.08-8.53-10.26-3.82-20.67-6.33-31.46-3C944.3,724,930.27,730.42,915,732.75Z" transform="translate(-803.29 -348.75)"/><path d="M1032,348.75c1.76,29.12-12.32,62.43-41,77.44a55.61,55.61,0,0,1-30.14,6.67,48.15,48.15,0,0,1,2.06-25.48c10.1-29,29.23-48.82,59.16-57.46,1.54-.45,3.11-.78,4.66-1.17Z" transform="translate(-803.29 -348.75)"/></svg>