<svg id="Layer_1" data-name="Layer 1" xmlns="http://www.w3.org/2000/svg" viewBox="0 0 384 384"><defs><style>.cls-1{fill:#1c35a5;}.cls-2{fill:#1b358e;}.cls-3{fill:#fefefe;}.cls-4{fill:#bf1d1d;}.cls-5{fill:#1b368f;}.cls-6{fill:#7786be;}.cls-7{fill:#da1c1c;}.cls-8{fill:#fcfcfd;}.cls-9{fill:#fdfcfc;}.cls-10{fill:#fdfbfc;}.cls-11{fill:#f9f5f7;}.cls-12{fill:#f9f9fc;}.cls-13{fill:#f9fafc;}.cls-14{fill:#db1e1e;}.cls-15{fill:#2548b6;}.cls-16{fill:#d8d3d4;}.cls-17{fill:#d7d4d6;}.cls-18{fill:#bf1c1d;}.cls-19{fill:#dbd9d9;}.cls-20{fill:#d9d7d9;}.cls-21{fill:#dbd5d5;}.cls-22{fill:#bf2425;}.cls-23{fill:#1e388f;}.cls-24{fill:#263e92;}.cls-25{fill:#da1d1d;}</style></defs><path class="cls-1" d="M1152,525v31.5a6,6,0,0,0-.73,1.49c-1.45,8.7-2.28,17.55-4.37,26.09-13.38,54.55-44.75,95.74-93.35,123.68a181.65,181.65,0,0,1-74,23.31c-3.41-.43-6.83-.89-10.25-1.31A169.7,169.7,0,0,1,924.8,717.7a184.71,184.71,0,0,1-48.21-28.77A206.79,206.79,0,0,1,845.29,657a191.48,191.48,0,0,1-27.6-49.74,194.47,194.47,0,0,1-12.16-61.08,197.56,197.56,0,0,1,3.71-44.46l.75-1.52,19.31-18.59v44h53.47V482.46c1.48,1.38,2.48,2.24,3.4,3.17q18.95,18.93,37.9,37.84c.92.91,2.17,2,3.31,2.09,5.33.22,10.67.09,16.23.09v-7.79l0-17.53c.82-3.89-.41-6.78-3.44-9.51-5.18-4.66-9.94-9.79-14.87-14.73-1.17-1.17-2.31-2.37-4.24-4.35h22.53V457.87q0-20.08.08-40.17V403.32H907.13c11.8-11.75,23-22.91,34.22-34.14a7.43,7.43,0,0,0,2.26-4,72.32,72.32,0,0,0-.09-8.95l.53-.75c7.2-1.58,14.37-3.33,21.62-4.69,4.8-.9,9.7-1.25,14.55-1.85,8.92,1.56,18,2.52,26.74,4.77,46.5,12,83.55,37.83,111.09,77.11a184.46,184.46,0,0,1,31.73,79.62C1150.5,515.31,1151.26,520.15,1152,525ZM1025.94,648.79l.07-.48-.43.07.43.36,7.6,12.2-13.51,8.92,16.19,1.36-2.18,15.58.76.29,10.63-11.6,10.68,11.67.71-.37c-.73-5.09-1.47-10.18-2.25-15.58l16.29-1.35-13.68-9c2.7-4.05,5.23-7.86,7.77-11.66l-.42-.76-14.06,4.93c-1.62-5-3.18-9.74-5.06-15.48-1.86,5.72-3.42,10.48-5,15.47-1.75-.61-3.24-1.18-4.76-1.65C1032.43,650.69,1029.18,649.75,1025.94,648.79Zm-60-147,0-.55-.35,0,.41.47L973.66,514l-13.52,8.93,16.26,1.33c-.82,5.66-1.56,10.75-2.46,16.94,4.39-4.76,8-8.66,11.61-12.62l10.77,11.59.63-.4c-.73-5.1-1.45-10.19-2.2-15.5l16.18-1.38-13.6-9,7.77-11.69-.57-.76-13.92,5c-1.65-5.08-3.18-9.74-5.05-15.49-1.9,5.77-3.46,10.51-5.09,15.44-1.7-.61-3.07-1.16-4.48-1.59C972.64,503.76,969.28,502.79,965.92,501.79ZM861.86,670.67l23.9-26.21,23.54,25.87.7-.28c-1.71-11.47-3.42-22.94-5.16-34.59l34.43-2.58-28.95-19,17.54-26.18-.48-.75-31.1,11.38-10.55-32.88L875.2,598.27,844.13,586.9l-.52.78,17.57,26.17-28.83,19,34.31,2.58c-.81,5.41-1.62,10.33-2.28,15.26-.87,6.64-1.63,13.29-2.43,19.93h-.2Zm237.14-201-14.1-5.06-.44.8,7.81,11.74-13.53,9.1,16.18,1.26c-.83,5.62-1.58,10.74-2.5,17l11.66-12.64,10.64,11.6.72-.41-2.2-15.45,16.2-1.4-13.57-9c2.72-4.17,5.25-8,7.79-11.9l-.55-.59-14,5-5-15.48C1102.19,460,1100.67,464.62,1099,469.71Zm-62.7-44.18-2.36,16.92,11.59-12.57,10.72,11.74.65-.28c-.73-5.19-1.47-10.39-2.23-15.74l16.26-1.37-13.65-9c2.74-4.17,5.34-8.12,8.51-13l-15.24,5.46c-1.66-5.08-3.21-9.8-5.07-15.48-1.89,5.78-3.42,10.46-5,15.43l-15.33-5.41,8.63,12.94-13.61,9.06Zm100,129.94c0-7.7-4.49-12.49-11.7-12.47-7,0-12.23,5.07-12.31,11.8a11.81,11.81,0,0,0,11.87,12.2C1131.63,567,1136.24,562.64,1136.26,555.47Zm-69.43,13.64-.14.81c2.82,2.05,5.59,4.18,8.49,6.11,1.74,1.17,2.15,2.31,1.36,4.35-1.32,3.37-2.23,6.9-3.58,11.21l11.76-8.41,10.52,7.29.8-.68c-1-3.15-2-6.33-3.11-9.43-.74-2-.35-3.14,1.44-4.31,3-1.94,5.76-4.16,9.56-6.94-4.27,0-7.46-.21-10.61.06-3,.24-4.54-.56-5.21-3.67-.7-3.27-2-6.39-3.32-10.28-1.21,3.53-2.57,6.37-3.1,9.37-.71,3.92-2.73,5-6.44,4.58A73.85,73.85,0,0,0,1066.83,569.11Zm57.79-47.86c-5.15,0-8.61,3.3-8.62,8.22s3.52,8.86,8.13,9c4.17.1,9-4.34,9.1-8.43A8.38,8.38,0,0,0,1124.62,521.25Z" transform="translate(-768 -348)"/><path class="cls-2" d="M809.24,501.72a197.56,197.56,0,0,0-3.71,44.46,194.47,194.47,0,0,0,12.16,61.08A191.48,191.48,0,0,0,845.29,657a206.79,206.79,0,0,0,31.3,31.93A184.71,184.71,0,0,0,924.8,717.7a169.7,169.7,0,0,0,44.46,12.06c3.42.42,6.84.88,10.25,1.31l-3.76.93H943.5a6.42,6.42,0,0,0-1.49-.73c-10.72-1.93-21.66-3-32.11-5.88-52.38-14.45-91.75-45.83-118.42-93a177.7,177.7,0,0,1-21.26-62.53c-.64-4.46-1.48-8.88-2.22-13.32V525.75l8.41-.17c5.47.81,9.82-.42,13.79-4.92C796.1,514,802.85,508,809.24,501.72Z" transform="translate(-768 -348)"/><path class="cls-3" d="M975.75,732l3.76-.93a181.65,181.65,0,0,0,74-23.31c48.6-27.94,80-69.13,93.35-123.68,2.09-8.54,2.92-17.39,4.37-26.09a6,6,0,0,1,.73-1.49V732Z" transform="translate(-768 -348)"/><path class="cls-3" d="M1152,525c-.74-4.85-1.5-9.69-2.22-14.54a184.46,184.46,0,0,0-31.73-79.62c-27.54-39.28-64.59-65.15-111.09-77.11-8.74-2.25-17.82-3.21-26.74-4.77l-4.47-1H1152Z" transform="translate(-768 -348)"/><path class="cls-3" d="M768,556.5c.74,4.44,1.58,8.86,2.22,13.32a177.7,177.7,0,0,0,21.26,62.53c26.67,47.21,66,78.59,118.42,93,10.45,2.88,21.39,4,32.11,5.88a6.42,6.42,0,0,1,1.49.73H768Z" transform="translate(-768 -348)"/><path class="cls-3" d="M768,523.5V348H943.5l-.06.75-4.69.13-21.32,3.71-13,3.42-22,8.44-10.3,4.7a162.31,162.31,0,0,0-32.91,21.58,38.15,38.15,0,0,0-4.14,3.06c-2.87,2.76-5.6,5.66-8.38,8.51l-15.2,15.51a207.82,207.82,0,0,0-24.88,38.93q-3,7.41-5.95,14.83l-5.15,13.61c-.51,2.14-1.08,4.27-1.52,6.42-1.52,7.42-3,14.85-4.48,22.27Z" transform="translate(-768 -348)"/><path class="cls-4" d="M768,523.5c.52-3.21,1-6.42,1.55-9.63,11.68-11.58,23.52-23,35-34.84,3.43-3.55,6.88-4.95,11.5-4-.33,1.81-.61,3.64-1,5.44-.6,2.63-1.3,5.25-2,7.88l-.77,1.43-35.84,35.82-8.41.17Z" transform="translate(-768 -348)"/><path class="cls-5" d="M975.75,348l4.47,1c-4.85.6-9.75,1-14.55,1.85-7.25,1.36-14.42,3.11-21.62,4.69q.09-3.37.2-6.75l2.25-.75Z" transform="translate(-768 -348)"/><path class="cls-6" d="M946.5,348l-2.25.75h-.81l.06-.75Z" transform="translate(-768 -348)"/><path class="cls-7" d="M943.64,417.7q0,20.08-.08,40.17H872.1v67.72H839.81V457.77H824.32c3.76-7,7.29-14.14,11.33-21,6.93-11.74,15.94-21.92,25.19-31.85,3.35-3.59,7.45-6.48,11.21-9.69V417.7Z" transform="translate(-768 -348)"/><path class="cls-8" d="M861.94,670.63c.81-6.65,1.57-13.3,2.44-19.94.66-4.93,1.47-9.85,2.28-15.26l-34.31-2.58,28.83-19-17.57-26.17.52-.78,31.07,11.37,10.53-32.85,10.55,32.88,31.1-11.38.48.75-17.54,26.18,28.95,19-34.43,2.58c1.74,11.65,3.45,23.12,5.16,34.59l-.7.28-23.54-25.87-23.9,26.21Z" transform="translate(-768 -348)"/><path class="cls-9" d="M872.1,525.59V457.87h71.46v13.87H921c1.93,2,3.07,3.18,4.24,4.35,4.93,4.94,9.69,10.07,14.87,14.73,3,2.73,4.26,5.62,3.44,9.51-7.79-7.71-15.57-15.43-23.4-23.08-.93-.91-2.17-2-3.31-2.09-5.17-.22-10.35-.09-16.28-.09,1.31,1.42,2.09,2.32,2.92,3.15q17.06,17.05,34.11,34.08c1.93,1.92,4,3.71,6,5.56v7.79c-5.56,0-10.9.13-16.23-.09-1.14,0-2.39-1.18-3.31-2.09q-19-18.87-37.9-37.84c-.92-.93-1.92-1.79-3.4-3.17v43.13Z" transform="translate(-768 -348)"/><path class="cls-10" d="M943.64,417.7H872.05V395.24c.11-.24.21-.49.32-.73,1.11-.78,2.19-1.61,3.34-2.34,2.32-1.49,4.67-2.93,7-4.39v16.34a18.48,18.48,0,0,0,3.2-2q18.89-18.88,37.7-37.83l.16-.16,1-1.15,2.21-1.5,1-1.11.05-.11a24.43,24.43,0,0,0,3.84-.48c3.88-1.11,7.73-2.36,11.6-3.56a72.32,72.32,0,0,1,.09,8.95,7.43,7.43,0,0,1-2.26,4c-11.17,11.23-22.42,22.39-34.22,34.14h36.51Z" transform="translate(-768 -348)"/><path class="cls-11" d="M824.32,457.77h15.49v67.82H829.3v-44L810,500.2q1.13-5.22,2.26-10.44l.77-1.43,12.62-13-8.19-.47a12.81,12.81,0,0,1,.44-2.41c1.84-4.73,3.75-9.43,5.63-14.14Z" transform="translate(-768 -348)"/><path class="cls-12" d="M1099,469.71c1.67-5.09,3.19-9.76,5.06-15.46l5,15.48,14-5,.55.59c-2.54,3.87-5.07,7.73-7.79,11.9l13.57,9-16.2,1.4,2.2,15.45-.72.41-10.64-11.6-11.66,12.64c.92-6.24,1.67-11.36,2.5-17l-16.18-1.26,13.53-9.1-7.81-11.74.44-.8Z" transform="translate(-768 -348)"/><path class="cls-13" d="M965.92,501.79c3.36,1,6.72,2,10.07,3,1.41.43,2.78,1,4.48,1.59,1.63-4.93,3.19-9.67,5.09-15.44,1.87,5.75,3.4,10.41,5.05,15.49l13.92-5,.57.76-7.77,11.69,13.6,9-16.18,1.38c.75,5.31,1.47,10.4,2.2,15.5l-.63.4-10.77-11.59c-3.64,4-7.22,7.86-11.61,12.62.9-6.19,1.64-11.28,2.46-16.94l-16.26-1.33L973.66,514,966,501.74Z" transform="translate(-768 -348)"/><path class="cls-13" d="M1036.3,425.53l-16.18-1.27,13.61-9.06-8.63-12.94,15.33,5.41c1.63-5,3.16-9.65,5-15.43,1.86,5.68,3.41,10.4,5.07,15.48l15.24-5.46c-3.17,4.84-5.77,8.79-8.51,13l13.65,9-16.26,1.37c.76,5.35,1.5,10.55,2.23,15.74l-.65.28-10.72-11.74-11.59,12.57Z" transform="translate(-768 -348)"/><path class="cls-13" d="M1025.94,648.79c3.24,1,6.49,1.9,9.73,2.89,1.52.47,3,1,4.76,1.65,1.63-5,3.19-9.75,5-15.47,1.88,5.74,3.44,10.51,5.06,15.48l14.06-4.93.42.76c-2.54,3.8-5.07,7.61-7.77,11.66l13.68,9-16.29,1.35c.78,5.4,1.52,10.49,2.25,15.58l-.71.37-10.68-11.67-10.63,11.6-.76-.29,2.18-15.58-16.19-1.36,13.51-8.92-7.6-12.2Z" transform="translate(-768 -348)"/><path class="cls-14" d="M943.61,517.86c-2-1.85-4.06-3.64-6-5.56q-17.07-17-34.11-34.08c-.83-.83-1.61-1.73-2.92-3.15,5.93,0,11.11-.13,16.28.09,1.14,0,2.38,1.18,3.31,2.09,7.83,7.65,15.61,15.37,23.4,23.08Z" transform="translate(-768 -348)"/><path class="cls-15" d="M1136.26,555.47c0,7.17-4.63,11.55-12.14,11.53a11.81,11.81,0,0,1-11.87-12.2c.08-6.73,5.35-11.78,12.31-11.8C1131.77,543,1136.27,547.77,1136.26,555.47Z" transform="translate(-768 -348)"/><path class="cls-13" d="M1066.83,569.11a73.85,73.85,0,0,1,8.42.06c3.71.43,5.73-.66,6.44-4.58.53-3,1.89-5.84,3.1-9.37,1.29,3.89,2.62,7,3.32,10.28.67,3.11,2.25,3.91,5.21,3.67,3.15-.27,6.34-.06,10.61-.06-3.8,2.78-6.59,5-9.56,6.94-1.79,1.17-2.18,2.35-1.44,4.31,1.16,3.1,2.09,6.28,3.11,9.43l-.8.68-10.52-7.29L1073,591.59c1.35-4.31,2.26-7.84,3.58-11.21.79-2,.38-3.18-1.36-4.35-2.9-1.93-5.67-4.06-8.49-6.11Z" transform="translate(-768 -348)"/><path class="cls-16" d="M812.25,489.76Q811.13,495,810,500.2l-.75,1.52c-6.39,6.28-13.14,12.23-19,18.94-4,4.5-8.32,5.73-13.79,4.92Z" transform="translate(-768 -348)"/><path class="cls-15" d="M1124.62,521.25a8.38,8.38,0,0,1,8.61,8.77c-.14,4.09-4.93,8.53-9.1,8.43-4.61-.12-8.14-4-8.13-9S1119.47,521.25,1124.62,521.25Z" transform="translate(-768 -348)"/><path class="cls-17" d="M943.52,356.25c-3.87,1.2-7.72,2.45-11.6,3.56a24.43,24.43,0,0,1-3.84.48l10.67-11.41,4.69-.13h.81q-.11,3.38-.2,6.75Z" transform="translate(-768 -348)"/><path class="cls-13" d="M966,501.74l-.41-.47.35,0c0,.19,0,.37,0,.55Z" transform="translate(-768 -348)"/><path class="cls-13" d="M1026,648.74l-.43-.36.43-.07c0,.16,0,.32-.07.48Z" transform="translate(-768 -348)"/><polygon class="cls-8" points="93.86 322.67 93.75 322.62 93.95 322.62 93.86 322.67"/><path class="cls-18" d="M824.32,457.77l-.8.55c-1.36-.06-2.72-.15-4.08-.16q-16-.11-32-.17l-.6-.44-.21-.81a207.82,207.82,0,0,1,24.88-38.93h27.72V390.73a162.31,162.31,0,0,1,32.91-21.58l.21,25.36c-.11.24-.21.49-.32.73-3.76,3.21-7.86,6.1-11.21,9.69-9.25,9.93-18.26,20.11-25.19,31.85C831.61,443.63,828.08,450.77,824.32,457.77Z" transform="translate(-768 -348)"/><path class="cls-19" d="M786.65,456.74l.21.81.6.44q16,.09,32,.17c1.36,0,2.72.1,4.08.16-1.88,4.71-3.79,9.41-5.63,14.14a12.81,12.81,0,0,0-.44,2.41L816,475c-4.62-.93-8.07.47-11.5,4-11.43,11.82-23.27,23.26-35,34.84,1.49-7.42,3-14.85,4.48-22.27.44-2.15,1-4.28,1.52-6.42l14.84-13-9.69-.6Q783.69,464.16,786.65,456.74Z" transform="translate(-768 -348)"/><path class="cls-20" d="M872.37,394.51l-.21-25.36,10.3-4.7v15c8-8,15-15,22.07-22.13.21-.21,0-.86-.07-1.31l13-3.42q-7.14,7.31-14.27,14.63c-4.12,4.26-8.21,8.56-12.31,12.84l.07,0-1.2,1-.18.23a.44.44,0,0,0-.47.42l-6.35,6c-2.34,1.46-4.69,2.9-7,4.39C874.56,392.9,873.48,393.73,872.37,394.51Z" transform="translate(-768 -348)"/><path class="cls-21" d="M839.25,390.73v27.08H811.53l15.2-15.51c2.78-2.85,5.51-5.75,8.38-8.51A38.15,38.15,0,0,1,839.25,390.73Z" transform="translate(-768 -348)"/><path class="cls-22" d="M890.85,380.06c4.1-4.28,8.19-8.58,12.31-12.84q7.11-7.34,14.27-14.63l21.32-3.71-10.67,11.41-.05.11-1,1.11-2.21,1.5-1,1.15-.16.16c-1,0-2.27-.27-3.13.15-6.15,3-12.24,6.21-18.31,9.4C898.37,375.87,894.63,378,890.85,380.06Z" transform="translate(-768 -348)"/><path class="cls-23" d="M904.46,356c0,.45.28,1.1.07,1.31-7,7.09-14.08,14.14-22.07,22.13v-15Z" transform="translate(-768 -348)"/><path class="cls-24" d="M780.7,471.57l9.69.6-14.84,13Z" transform="translate(-768 -348)"/><path class="cls-14" d="M816,475l1.45-.14,8.19.47-12.62,13c.66-2.63,1.36-5.25,2-7.88C815.39,478.65,815.67,476.82,816,475Z" transform="translate(-768 -348)"/><path class="cls-25" d="M890.85,380.06c3.78-2.07,7.52-4.19,11.33-6.19,6.07-3.19,12.16-6.35,18.31-9.4.86-.42,2.08-.12,3.13-.15q-18.84,18.93-37.7,37.83a18.48,18.48,0,0,1-3.2,2V387.78l6.35-6a1.13,1.13,0,0,0,.47-.42l.18-.23,1.2-1Z" transform="translate(-768 -348)"/><path class="cls-25" d="M923.78,364.16l1-1.15Z" transform="translate(-768 -348)"/><path class="cls-17" d="M927,361.51l1-1.11Z" transform="translate(-768 -348)"/><path class="cls-7" d="M787.46,458l-.6-.44Z" transform="translate(-768 -348)"/><path class="cls-22" d="M890.92,380.08l-1.2,1Z" transform="translate(-768 -348)"/><path class="cls-22" d="M889.54,381.31a1.13,1.13,0,0,1-.47.42A.44.44,0,0,1,889.54,381.31Z" transform="translate(-768 -348)"/></svg>