<svg id="Layer_1" data-name="Layer 1" xmlns="http://www.w3.org/2000/svg" viewBox="0 0 409.13 409.06"><defs><style>.cls-1{fill:#1d66ff;}</style></defs><path class="cls-1" d="M1119.84,744.52h-83c-2.2-1.75-1.91-4.26-1.92-6.62-.07-19.68,0-39.36,0-59q0-33.71,0-67.42c0-8.93.38-9.27,9.14-9.32,7.85-.05,15.7-.1,23.54,0,4.31.06,6.9-1.75,8.49-5.75,6.38-16.07,12.87-32.09,19.21-48.17,1.82-4.64.83-6-4.29-6-15.42-.07-30.85,0-46.28,0-1.46,0-2.93,0-4.39-.1-4.17-.33-5.23-1.18-5.3-5.37-.25-16.22-.36-32.45,0-48.67.18-7.63,4-11.46,11.58-13,5.8-1.15,11.67-.47,17.51-.6,5.32-.11,10.64.08,16-.07,4.37-.13,5.77-1.46,5.8-5.83q.18-24.13,0-48.27c0-4.18-1.45-5.69-5.51-5.72-16.22-.12-32.5-.95-48.66.19-35.58,2.5-62.89,28.31-68.68,63.75a84.15,84.15,0,0,0-.9,13.91c0,14.09.08,28.19,0,42.29-.06,6.68-.75,7.37-7.33,7.44-12.11.13-24.21,0-36.31.06-6.31,0-7.36,1.09-7.38,7.51q-.06,22.55,0,45.09c0,6.1,1.19,7.28,7.2,7.32,11.84.06,23.68,0,35.51,0,7.68,0,8.31.62,8.32,8.11q.11,63.84,0,127.67c0,2.36.28,4.87-1.91,6.62H799.78c-8.66-.71-16.83-2.67-23.95-8.09-13.4-10.2-20.47-23.28-20.43-40.46q.26-116.31.08-232.63c0-26.47.16-52.93-.06-79.4-.14-16.82,7-29.66,20.06-39.7,8.3-6.39,17.77-8.78,28.06-8.78q156.62,0,313.23,0c21.19,0,35.31,10.8,44.63,29,2.59,5,2.19,10.73,3.13,16.13V700.62c-.67,9.1-2.91,17.59-8.82,24.88-9,11.1-19.78,18.79-34.79,18.63A1.56,1.56,0,0,0,1119.84,744.52Z" transform="translate(-755.4 -335.46)"/></svg>