<svg id="Layer_1" data-name="Layer 1" xmlns="http://www.w3.org/2000/svg" viewBox="0 0 345.08 384"><defs><style>.cls-1{fill:#f02254;}.cls-2{fill:#02d66f;}.cls-3{fill:#01ee6d;}.cls-4{fill:#fd3644;}.cls-5{fill:#fb3147;}.cls-6{fill:#fec900;}.cls-7{fill:#f82e4a;}.cls-8{fill:#fece01;}.cls-9{fill:#f62a4d;}.cls-10{fill:#f32650;}.cls-11{fill:#fed301;}.cls-12{fill:#01e66d;}.cls-13{fill:#fed902;}.cls-14{fill:#01dd6e;}.cls-15{fill:#00d5fe;}.cls-16{fill:#00ddfe;}.cls-17{fill:#00c3fe;}.cls-18{fill:#00c9fe;}.cls-19{fill:#01cefe;}.cls-20{fill:#03e1fe;}.cls-21{fill:#fec300;}.cls-22{fill:#fdbd00;}</style></defs><path class="cls-1" d="M804.75,732.75l-9.22-5.88L831,691.43a24.07,24.07,0,0,0,2.44,3.56c5.91,6.15,11.9,12.23,17.86,18.33-7,4.07-13.94,8.31-21.09,12.14-5.08,2.72-10.45,4.88-15.69,7.29Z" transform="translate(-788.3 -348.75)"/><path class="cls-2" d="M795.53,354.61l10-5.86h9l12.93,5.9c-4.27,4.37-8.57,8.7-12.77,13.12a25.9,25.9,0,0,0-2.45,3.6Z" transform="translate(-788.3 -348.75)"/><path class="cls-3" d="M881.34,385.21c14.55,8.19,29.12,16.33,43.63,24.57q58.51,33.21,117,66.49c.75.42,1.46.93,2.18,1.4L1036.4,486l-23.93,24-30.84,30.81h-.54c-1-1.1-2-2.24-3-3.3L857.25,416.61c-1-1.06-2-2.2-3-3.31q12.91-12.74,25.79-25.51A9.51,9.51,0,0,0,881.34,385.21Z" transform="translate(-788.3 -348.75)"/><path class="cls-4" d="M981.09,540.74h.54l30.84,30.8,24.76,24.76,6.89,7.54-36.87,20.76a16.43,16.43,0,0,0-1.78-2.73q-24.94-25-50-50a17,17,0,0,0-3-1.93l12.64-13.17Q973.09,548.79,981.09,540.74Z" transform="translate(-788.3 -348.75)"/><path class="cls-5" d="M952.44,570a17,17,0,0,1,3,1.93q25,24.95,50,50a16.43,16.43,0,0,1,1.78,2.73q-18.71,10.68-37.4,21.37c-1-1.13-1.85-2.33-2.89-3.37q-20.15-20.21-40.32-40.39a27.84,27.84,0,0,1-2.69-3.85l3.06-3.6,20.07-20Z" transform="translate(-788.3 -348.75)"/><path class="cls-6" d="M1044.12,603.85l-6.89-7.54a41.77,41.77,0,0,0,.74-5.52q.06-50.06,0-100.1c0-1.58-1-3.15-1.53-4.73l7.73-8.29,17.12,9.82q0,53.26,0,106.54Z" transform="translate(-788.3 -348.75)"/><path class="cls-7" d="M924,598.37a27.84,27.84,0,0,0,2.69,3.85q20.11,20.24,40.32,40.39c1,1,1.93,2.24,2.89,3.37q-17.29,9.93-34.61,19.86a4.24,4.24,0,0,1-1.45.24,12.74,12.74,0,0,0-1.1-1.49q-17.69-17.72-35.41-35.4a17.45,17.45,0,0,0-2.4-1.73Z" transform="translate(-788.3 -348.75)"/><path class="cls-8" d="M1061.26,594q0-53.26,0-106.54l23.35,13.21c-.28,3.82-.79,7.64-.81,11.47q-.13,28.58,0,57.16c0,3.83.53,7.65.82,11.48Q1072.93,587.41,1061.26,594Z" transform="translate(-788.3 -348.75)"/><path class="cls-9" d="M894.88,627.46a17.45,17.45,0,0,1,2.4,1.73q17.73,17.67,35.41,35.4a12.74,12.74,0,0,1,1.1,1.49q-18.06,10.56-36.13,21.09a9.3,9.3,0,0,1-2.08.62c-1.46-1.82-2.77-3.78-4.39-5.43-7.46-7.57-15-15-22.49-22.59a23.28,23.28,0,0,1-2.47-3.59c.91-1,1.78-2,2.73-3q11.77-11.94,23.56-23.86Z" transform="translate(-788.3 -348.75)"/><path class="cls-10" d="M866.23,656.18a23.28,23.28,0,0,0,2.47,3.59c7.46,7.56,15,15,22.49,22.59,1.62,1.65,2.93,3.61,4.39,5.43l-44.3,25.53c-6-6.1-11.95-12.18-17.86-18.33a24.07,24.07,0,0,1-2.44-3.56l14.33-14.9Z" transform="translate(-788.3 -348.75)"/><path class="cls-11" d="M1084.61,580.81c-.29-3.83-.8-7.65-.82-11.48q-.13-28.58,0-57.16c0-3.83.53-7.65.81-11.47L1106.24,513v55.43Z" transform="translate(-788.3 -348.75)"/><path class="cls-12" d="M881.34,385.21a9.51,9.51,0,0,1-1.32,2.58q-12.84,12.81-25.79,25.51l-24-24a20.68,20.68,0,0,1,2.19-3.29c4.14-4.26,8.43-8.37,12.55-12.66,1.77-1.85,3.24-4,4.84-6q12.47,7.13,24.94,14.26C876.93,382.85,879.14,384,881.34,385.21Z" transform="translate(-788.3 -348.75)"/><path class="cls-13" d="M1106.24,568.47V513c6.58,4.19,13.84,7.62,19.62,12.73,10,8.89,10,21.07,0,30C1120.08,560.84,1112.83,564.28,1106.24,568.47Z" transform="translate(-788.3 -348.75)"/><path class="cls-14" d="M849.81,367.35c-1.6,2-3.07,4.15-4.84,6-4.12,4.29-8.41,8.4-12.55,12.66a20.68,20.68,0,0,0-2.19,3.29l-18-17.93a25.9,25.9,0,0,1,2.45-3.6c4.2-4.42,8.5-8.75,12.77-13.12q9.65,5.48,19.3,10.94Z" transform="translate(-788.3 -348.75)"/><path class="cls-15" d="M894.88,627.46l-2.36,1.86a19.6,19.6,0,0,0-2.2-3.33q-49-49.1-98.12-98.1c-1-1-2.46-1.44-3.71-2.14v-67.5c1.67.88,3.69,1.41,5,2.69q65.63,65.44,131.11,131c.88.88,1.63,1.87,2.44,2.81l-3.06,3.6Z" transform="translate(-788.3 -348.75)"/><path class="cls-16" d="M788.49,525.75c1.25.7,2.73,1.17,3.71,2.14q49.11,49,98.12,98.1a19.6,19.6,0,0,1,2.2,3.33Q880.74,641.24,869,653.18c-1,1-1.82,2-2.73,3l-20.92,20.35c-1.11-1-2.29-1.91-3.34-3q-24.37-24.33-48.78-48.65c-1.19-1.18-3.12-1.63-4.71-2.43-.05-18.8-.13-37.6-.14-56.4C788.34,552.64,788.44,539.19,788.49,525.75Z" transform="translate(-788.3 -348.75)"/><path class="cls-17" d="M812.21,371.37l18,17.93,24,24c1,1.11,2,2.25,3,3.31L978.06,537.44c1.06,1.06,2,2.2,3,3.3q-8,8-16,16.07c-1.33-1.12-2.76-2.14-4-3.36q-84.06-84-168.11-168c-1.24-1.24-3-2-4.5-2.94-.45-7.59-.33-15.14,3-22.16a42.35,42.35,0,0,1,4-5.73Z" transform="translate(-788.3 -348.75)"/><path class="cls-18" d="M788.49,382.5c1.51,1,3.26,1.7,4.5,2.94q84.09,84,168.11,168c1.22,1.22,2.65,2.24,4,3.36L952.44,570l-5.36,4.81c-1.33-1.11-2.76-2.12-4-3.34Q868.42,496.81,793.73,422.2c-1.37-1.36-3.48-2-5.24-2.95Z" transform="translate(-788.3 -348.75)"/><path class="cls-19" d="M788.49,419.25c1.76,1,3.87,1.59,5.24,2.95q74.74,74.57,149.37,149.25c1.22,1.22,2.65,2.23,4,3.34l-20.07,20c-.81-.94-1.56-1.93-2.44-2.81q-65.52-65.54-131.11-131c-1.28-1.28-3.3-1.81-5-2.69Z" transform="translate(-788.3 -348.75)"/><path class="cls-20" d="M788.48,622.49c1.59.8,3.52,1.25,4.71,2.43q24.48,24.24,48.78,48.65c1,1,2.23,2,3.34,3L831,691.43l-35.45,35.44c-5.12-5.07-7-11.6-7-18.39C788.3,679.82,788.45,651.16,788.48,622.49Z" transform="translate(-788.3 -348.75)"/><path class="cls-21" d="M1036.4,486c.53,1.58,1.53,3.15,1.53,4.73q.13,50.05,0,100.1a41.77,41.77,0,0,1-.74,5.52l-24.76-24.76a30.83,30.83,0,0,0,.75-4.7q.07-26.1,0-52.2a30.76,30.76,0,0,0-.75-4.71Z" transform="translate(-788.3 -348.75)"/><path class="cls-22" d="M1012.47,509.94a30.76,30.76,0,0,1,.75,4.71q.07,26.1,0,52.2a30.83,30.83,0,0,1-.75,4.7l-30.84-30.8Z" transform="translate(-788.3 -348.75)"/></svg>