<svg id="Layer_1" data-name="Layer 1" xmlns="http://www.w3.org/2000/svg" viewBox="0 0 344.08 307.72"><path d="M812.46,557.44c6.79,0,12.65,0,18.5,0,25.74.06,44.84,19,44.93,44.7.05,16.38.15,32.75,0,49.13-.25,22.39-16.64,40.27-39.15,43.07-20.85,2.59-41.32-11.81-46.55-32.93A43.65,43.65,0,0,1,788.93,651c-.07-32.37-.63-64.76.18-97.11,1.15-46.21,18.86-85.67,51.81-118,28.35-27.83,62.65-43.67,102.1-48,85.13-9.33,165.53,47.79,185,131.16a174.32,174.32,0,0,1,4.68,39.72c0,30.12.08,60.25,0,90.37-.07,25.33-19.21,44.7-43.79,44.54-22.14-.14-41.43-17.12-42.64-39.28a484.76,484.76,0,0,1,.07-58.06c1.48-22.36,20.49-38.65,43-38.92,6.23-.07,12.47,0,19.51,0-1.37-48.54-19.82-88.7-58.64-117.42-50.24-37.15-105-41.56-160-12.14C839.6,454.94,815.12,499.69,812.46,557.44Zm.58,24.18c-.11,1.09-.25,1.83-.25,2.56,0,22.22-.1,44.44,0,66.66.07,11.11,8.33,19.47,18.93,19.66a19.32,19.32,0,0,0,20-19.44q.4-25.08,0-50.18c-.16-10.42-7.23-18.22-17.45-19.14C827.37,581.12,820.36,581.62,813,581.62Zm295.4,0c-7.3,0-14.31-.5-21.22.12-10.21.92-17.28,8.75-17.43,19.14-.25,16.6-.21,33.21,0,49.81a19.44,19.44,0,0,0,38.87.14c.25-22.34.07-44.68.07-67A20.84,20.84,0,0,0,1108.44,581.62Z" transform="translate(-788.67 -386.92)"/></svg>