<svg id="Layer_1" data-name="Layer 1" xmlns="http://www.w3.org/2000/svg" viewBox="0 0 384 384"><defs><style>.cls-1{fill:#efefef;}.cls-2{fill:#a1001d;}.cls-3{fill:#fefdfd;}.cls-4{fill:#fefefe;}</style></defs><path class="cls-1" d="M768,561V540h384v21a38.94,38.94,0,0,0-1.59,5.17c-2.78,17-7,33.57-14,49.44a190.72,190.72,0,0,1-33.4,52.39c-17.18,18.93-37.07,34.35-60.27,45.3a187.42,187.42,0,0,1-54.07,16.53A57.91,57.91,0,0,0,981,732H939c-.6-.49-1.14-1.31-1.81-1.43-3.42-.61-6.87-1-10.3-1.55-22.1-3.35-42.58-11.36-61.95-22.19-19.88-11.12-36.81-25.89-51.67-43.12a183.45,183.45,0,0,1-25.62-38.9,181.54,181.54,0,0,1-17.5-56.47C769.82,565.84,768.73,563.44,768,561Z" transform="translate(-768 -348)"/><path class="cls-2" d="M1152,540H768V524.25a13.43,13.43,0,0,0,.78-2.26c1.41-8.48,2.27-17.09,4.25-25.44C791.47,419,853.05,362.34,932,350.08c4.34-.68,8.69-1.39,13-2.08h30a5.6,5.6,0,0,0,1.47.73c8.26,1.27,16.6,2.1,24.76,3.8,76.7,16,137.69,81.33,148.64,159.07.63,4.48,1.42,8.93,2.13,13.4Z" transform="translate(-768 -348)"/><path class="cls-3" d="M945,348c-4.34.69-8.69,1.4-13,2.08C853.05,362.34,791.47,419,773,496.55c-2,8.35-2.84,17-4.25,25.44a13.43,13.43,0,0,1-.78,2.26V348Z" transform="translate(-768 -348)"/><path class="cls-3" d="M1152,525c-.71-4.47-1.5-8.92-2.13-13.4-10.95-77.74-71.94-143.1-148.64-159.07-8.16-1.7-16.5-2.53-24.76-3.8A5.6,5.6,0,0,1,975,348h177Z" transform="translate(-768 -348)"/><path class="cls-4" d="M768,561c.73,2.44,1.82,4.84,2.15,7.34a181.54,181.54,0,0,0,17.5,56.47,183.45,183.45,0,0,0,25.62,38.9c14.86,17.23,31.79,32,51.67,43.12,19.37,10.83,39.85,18.84,61.95,22.19,3.43.53,6.88.94,10.3,1.55.67.12,1.21.94,1.81,1.43H768Z" transform="translate(-768 -348)"/><path class="cls-4" d="M981,732a57.91,57.91,0,0,1,7.71-2.17,187.42,187.42,0,0,0,54.07-16.53c23.2-10.95,43.09-26.37,60.27-45.3a190.72,190.72,0,0,0,33.4-52.39c6.93-15.87,11.18-32.43,14-49.44A38.94,38.94,0,0,1,1152,561V732Z" transform="translate(-768 -348)"/></svg>