<svg id="Layer_1" data-name="Layer 1" xmlns="http://www.w3.org/2000/svg" viewBox="0 0 384 384"><path d="M1152.75,528v26.25a21.76,21.76,0,0,0-.65,2.46c-1,7-1.65,14.13-3,21.09-15,77.66-76.95,138.52-154.55,152-6.73,1.17-13.53,2-20.3,2.94h-27a14.94,14.94,0,0,0-2.49-.64c-24-2-47-8-68.46-19Q790,668.92,771.71,573.43c-1.4-7.32-2-14.78-3-22.18v-21a28.28,28.28,0,0,0,.62-3.28c3.52-45.35,20.81-84.76,51.84-117.89,29-31,64.69-50,106.48-57.43,6.73-1.2,13.54-1.94,20.31-2.9h25.5a21.07,21.07,0,0,0,2.87.63c18.29,1.43,36.13,5.14,53.06,12.15C1095.57,388.92,1136,437.64,1149.87,508,1151.17,514.62,1151.81,521.34,1152.75,528Zm-108.06-80.25A321.32,321.32,0,0,1,967,458.69v75.85h91.78A297.26,297.26,0,0,0,1044.69,447.75Zm-90.07,86.84V458.65a319.67,319.67,0,0,1-77.83-10.9A292.45,292.45,0,0,0,863,534.59Zm-91.7,12.24a291.65,291.65,0,0,0,13.93,86.33,319.51,319.51,0,0,1,77.61-11V546.83Zm181.79,86.29A293.77,293.77,0,0,0,1058.55,547H966.9V622.2A316.14,316.14,0,0,1,1044.71,633.12ZM781.25,534.55H850c1.63-15.24,2.59-30.47,5-45.45s6.39-29.68,9.61-44.21l-42.25-18.71C800.38,447.76,778.43,505.12,781.25,534.55Zm359.37,0c-1.89-41.2-15.73-77.45-41.3-108.44l-43.23,19.13a305.35,305.35,0,0,1,14.55,89.31ZM822,654.85l43.22-19.2a304.27,304.27,0,0,1-14.34-88.58H781C781.93,586,797.65,627.21,822,654.85Zm248.64-108a306.76,306.76,0,0,1-14.27,88.71L1099.8,655c25.32-31.14,39-67.18,40.8-108.07ZM966.94,720.2c8.2-.66,15.48-3.45,22.39-7.32,10.84-6.08,19.59-14.56,27.18-24.3,10.36-13.29,18-28,24.19-44.1a294.6,294.6,0,0,0-73.76-10.18Zm-86.06-75.5c6.06,15.77,13.64,30.44,23.92,43.63,8.3,10.64,17.88,19.86,30.08,26,6.14,3.08,12.54,5.41,19.56,5.87V634.45C936.78,633.6,896.59,639.17,880.88,644.7Zm0-208.33a295.8,295.8,0,0,0,73.54,10.18V361.46c-8.8.24-20.66,5-30.29,12.38C903.24,389.9,891,412,880.93,436.37Zm159.42-.33c-7.09-17.85-16-34.6-28.86-49.07-8.48-9.55-18.18-17.52-30.21-22.16-4.52-1.74-9.36-2.68-14.32-4.05V446.3C981.64,447.7,1029.21,441.06,1040.35,436Zm12.05,211.11c-10.24,25.71-23.35,48.43-43.4,66.65,31.82-8.74,59-25,82.64-49.61ZM829.9,664.21c23.84,24.59,50.91,40.91,82.64,49.6-20.18-18.13-33.12-40.95-43.39-66.65Zm261-247.27c-19.08-21.74-63.9-48.3-82.3-49,20.38,17.89,33.25,40.49,43.5,65.85ZM912.56,367.68c-31.59,8.72-58.63,24.85-82.17,49.21l39,16.83C879.67,408.23,892.56,385.65,912.56,367.68Z" transform="translate(-768.75 -348.75)"/></svg>