<svg id="Layer_1" data-name="Layer 1" xmlns="http://www.w3.org/2000/svg" viewBox="0 0 346.05 408.75"><defs><style>.cls-1{fill:#020202;}</style></defs><path class="cls-1" d="M955.41,745.4c-14.06-4.37-23-15.73-33.47-24.86-25.1-21.84-49.55-44.38-71.14-69.81-21.25-25-39.53-51.89-51.38-82.84-15.56-40.61-15.63-81.42.7-121.31,24.49-59.82,69.15-96.62,133.11-107.49,92.28-15.7,180,45.91,197.59,137.53,6.87,35.87,2,70.26-13.2,103.38-14.33,31.29-34.68,58.37-57.79,83.54-24.33,26.52-51.74,49.79-78.42,73.82-4.74,4.27-10.44,6.39-16.42,8Zm5.34-385.1c-6.76.62-13.8,1-20.78,1.93a142.1,142.1,0,0,0-52.39,17.84,147.85,147.85,0,0,0-56.59,57,146.1,146.1,0,0,0-18.8,75.19c.45,26.27,9.12,50.2,21.58,72.92a282.7,282.7,0,0,0,49.31,65.35c23.74,23.44,48.58,45.76,73,68.5,3.87,3.59,6.12,3.39,10.38-.47,17.66-16,35.58-31.67,52.84-48,26.62-25.25,50.71-52.66,68.71-84.93,9.36-16.79,16.68-34.44,19.79-53.45,5.87-35.76-.74-69.43-20-100.06C1058.61,385.48,1015.64,362.51,960.75,360.3Z" transform="translate(-787.81 -336.64)"/><path class="cls-1" d="M1037.13,502.9c.11,41.79-34,76.1-76,76.32-41.69.21-75.92-33.88-76.29-76-.37-41.86,34.1-76.45,76.16-76.42A76.24,76.24,0,0,1,1037.13,502.9Zm-24-.12a52.18,52.18,0,1,0-104.35.37c.18,28.83,23.73,52.27,52.36,52.11A52.39,52.39,0,0,0,1013.17,502.78Z" transform="translate(-787.81 -336.64)"/></svg>