<svg id="Layer_1" data-name="Layer 1" xmlns="http://www.w3.org/2000/svg" viewBox="0 0 384 384"><defs><style>.cls-1{fill:#0152b3;}.cls-2{fill:#efefef;}.cls-3{fill:#d70128;}.cls-4{fill:#fdfdfe;}.cls-5{fill:#fefdfe;}.cls-6{fill:#fefefe;}.cls-7{fill:#d70329;}.cls-8{fill:#efeced;}.cls-9{fill:#efeeee;}.cls-10{fill:#d70027;}.cls-11{fill:#fbd845;}</style></defs><path class="cls-1" d="M768,540V523.5a7.81,7.81,0,0,0,.79-1.85c.72-4.81,1.23-9.66,2.07-14.44,14.38-81.82,79.07-145,160.72-157.08,4.48-.67,8.95-1.42,13.42-2.13h15l.13,41.68V489.84q-.07,25-.13,50c-1.37,0-2.74.12-4.11.12ZM914.61,421.24l.91.11-.36-.75c-14.12-12.37-30.65-16.48-48.79-13.06-33.81,6.37-54.45,40.28-45.13,73.4,9.2,32.68,44.81,50.62,76.81,38.61a44.79,44.79,0,0,0,17.28-10.9,15.87,15.87,0,0,0-3.93,1,47.47,47.47,0,0,1-53.57-73.38C869.69,420.53,891.87,412,914.61,421.24Zm13.54,41c2.82-5.89,5.47-11.4,8.39-17.49L917.61,449c-2.87-5.86-5.57-11.35-8.55-17.44-3,6.29-5.71,11.86-8.4,17.43l-18.94-4.25,8.41,17.5L875,474.4l19.1,4.39v19.3l15-12,15.19,12.08c0-5.7.27-10.56-.09-15.37-.25-3.42,1.17-4.49,4.18-5,4.78-.88,9.49-2.11,14.9-3.35Z" transform="translate(-768 -348)"/><path class="cls-2" d="M768,540H955.89c1.37,0,2.74-.08,4.11-.12s2.74.12,4.11.12H1152v21a8,8,0,0,0-1.44,2.29c-1.83,9-3.57,18-5.33,27-1,0-2-.08-3-.08H777.77c-1,0-2,0-3,.09-1.77-9-3.5-18-5.34-27A8,8,0,0,0,768,561Z" transform="translate(-768 -348)"/><path class="cls-3" d="M1152,540H964.11c-1.37,0-2.74-.08-4.11-.12q.06-25,.13-50h185.08c1.52,7,3.14,14,4.53,21.09.92,4.66,1.52,9.38,2.26,14.07Z" transform="translate(-768 -348)"/><path class="cls-4" d="M945,348c-4.47.71-8.94,1.46-13.42,2.13-81.65,12.06-146.34,75.26-160.72,157.08-.84,4.78-1.35,9.63-2.07,14.44a7.81,7.81,0,0,1-.79,1.85V348Z" transform="translate(-768 -348)"/><path class="cls-5" d="M768,561a8,8,0,0,1,1.44,2.29c1.84,9,3.57,18,5.34,27a173.61,173.61,0,0,0,21.74,50.11c6.11,8.45,11.55,17.51,18.51,25.19,8,8.81,17.28,16.4,26,24.52a14.44,14.44,0,0,0,1.53,1.59,189,189,0,0,0,88.67,38.08c4.35.66,8.68,1.46,13,2.19H768Z" transform="translate(-768 -348)"/><path class="cls-6" d="M1145.23,590.31c1.76-9,3.5-18,5.33-27A8,8,0,0,1,1152,561V732H974.25a5.36,5.36,0,0,1,1.55-.67,188.61,188.61,0,0,0,89.56-30.88c4.76-3.13,9.11-6.87,13.65-10.33a27.84,27.84,0,0,0,4-2.76c8.31-8.21,17-16.11,24.66-24.87,6-6.78,10.64-14.67,15.88-22.06A173.37,173.37,0,0,0,1145.23,590.31Z" transform="translate(-768 -348)"/><path class="cls-6" d="M1152,525c-.74-4.69-1.34-9.41-2.26-14.07-1.39-7.05-3-14.06-4.53-21.09a192.21,192.21,0,0,0-54.8-90.72c-3.73-3.43-7.91-6.36-11.88-9.52a12.22,12.22,0,0,0-1.67-1.9,189.2,189.2,0,0,0-88.4-37.57A52.61,52.61,0,0,1,981,348h171Z" transform="translate(-768 -348)"/><path class="cls-7" d="M1079,690.12c-4.54,3.46-8.89,7.2-13.65,10.33a188.61,188.61,0,0,1-89.56,30.88,5.36,5.36,0,0,0-1.55.67h-30c-4.34-.73-8.67-1.53-13-2.19a189,189,0,0,1-88.67-38.08,14.44,14.44,0,0,1-1.53-1.59q73.08,0,146.17,0Q1033.1,690.18,1079,690.12Z" transform="translate(-768 -348)"/><path class="cls-8" d="M981,348a52.61,52.61,0,0,0,7.46,2.13,189.2,189.2,0,0,1,88.4,37.57,12.22,12.22,0,0,1,1.67,1.9l-118.4.08L960,348Z" transform="translate(-768 -348)"/><path class="cls-9" d="M1123.5,439.5a179.11,179.11,0,0,1,21.71,50.34H960.13V439.69h158.51C1120.26,439.68,1121.88,439.56,1123.5,439.5Z" transform="translate(-768 -348)"/><path class="cls-10" d="M1123.5,439.5c-1.62.06-3.24.18-4.86.18H960.13v-50l118.4-.08c4,3.16,8.15,6.09,11.88,9.52A178.35,178.35,0,0,1,1123.5,439.5Z" transform="translate(-768 -348)"/><path class="cls-11" d="M914.61,421.24c-22.74-9.22-44.92-.71-56.78,15a47.47,47.47,0,0,0,53.57,73.38,15.87,15.87,0,0,1,3.93-1,44.79,44.79,0,0,1-17.28,10.9c-32,12-67.61-5.93-76.81-38.61-9.32-33.12,11.32-67,45.13-73.4,18.14-3.42,34.67.69,48.79,13.06Z" transform="translate(-768 -348)"/><path class="cls-11" d="M928.15,462.27l15.18,12.13c-5.41,1.24-10.12,2.47-14.9,3.35-3,.55-4.43,1.62-4.18,5,.36,4.81.09,9.67.09,15.37l-15.19-12.08-15,12v-19.3L875,474.4l15.13-12.13-8.41-17.5L900.66,449c2.69-5.57,5.36-11.14,8.4-17.43,3,6.09,5.68,11.58,8.55,17.44l18.93-4.25C933.62,450.87,931,456.38,928.15,462.27Z" transform="translate(-768 -348)"/><path class="cls-11" d="M915.16,420.6l.36.75-.91-.11C914.79,421,915,420.81,915.16,420.6Z" transform="translate(-768 -348)"/><path class="cls-3" d="M1145.23,590.31a173.37,173.37,0,0,1-21.73,50.12c-1,0-2-.11-3-.11h-321c-1,0-2,.07-3,.11a173.61,173.61,0,0,1-21.74-50.11c1,0,2-.09,3-.09h364.46C1143.23,590.23,1144.23,590.28,1145.23,590.31Z" transform="translate(-768 -348)"/><path class="cls-2" d="M796.52,640.43c1,0,2-.11,3-.11h321c1,0,2,.07,3,.11-5.24,7.39-9.93,15.28-15.88,22.06-7.68,8.76-16.35,16.66-24.66,24.87a27.84,27.84,0,0,1-4,2.76q-45.9,0-91.81.06-73.08,0-146.17,0c-8.72-8.12-18-15.71-26-24.52C808.07,657.94,802.63,648.88,796.52,640.43Z" transform="translate(-768 -348)"/></svg>