<svg id="Layer_1" data-name="Layer 1" xmlns="http://www.w3.org/2000/svg" viewBox="0 0 377.94 378.28"><path d="M770.74,455.66c.55-4.37.85-8.79,1.71-13.1a54.69,54.69,0,0,1,14.61-28.09c10.15-10.39,20-21.21,30.88-30.72,16.65-14.47,34.72-14.39,50.74.62,17.06,16,33.4,32.76,49.34,49.87,11.83,12.7,11.71,32.18.22,45.25-8.51,9.69-17.9,18.63-27,27.75-1.76,1.76-2.1,2.91-1,5.25,9.16,18.54,22.11,34.29,36.1,49.25a249.19,249.19,0,0,0,47.87,40.37c5.06,3.22,10.46,5.88,16.08,9,6.89-7,13.43-14,20.43-20.54,5.09-4.75,10.32-9.69,16.32-13.06a32.16,32.16,0,0,1,38.39,4.73c17.46,16.82,34.68,33.92,51.29,51.56,12.35,13.12,12.45,33,.51,46.54-10.46,11.91-21.66,23.22-33,34.26-8.71,8.44-19.64,12.92-31.7,14.48a15.73,15.73,0,0,0-2.45.69h-14c-.81-.22-1.61-.51-2.44-.66-8-1.45-16.07-2.37-23.88-4.42-27.74-7.27-53-20.17-77.09-35.38q-90.44-57.26-139.09-152.79c-9.12-17.89-16.25-36.61-20.16-56.39-1.26-6.36-1.75-12.87-2.59-19.31Zm21.75,3.16c.4,4.29.74,8.58,1.22,12.85a54.79,54.79,0,0,0,1.13,5.79c5.84,26.09,16.78,50.1,30.71,72.7,37.08,60.17,86.42,107.2,150.13,138.55,19.61,9.65,39.86,17.44,61.93,19.36,13.61,1.17,25.57-2.05,35.27-12.19,8-8.35,16.18-16.54,24.26-24.82a41.89,41.89,0,0,0,3.4-3.89c5.19-6.74,5.21-13.79-.53-20.1s-12-12.36-18.09-18.46c-9.46-9.51-18.91-19.05-28.49-28.44-6.94-6.79-14.33-6.83-21.61-.4-1.1,1-2.15,2-3.2,3.06-8.45,8.44-16.85,16.92-25.36,25.3-5.92,5.82-12.52,7.23-19.56,3.73a233.64,233.64,0,0,1-21-11.54c-23.06-14.59-43-32.89-60.82-53.42-12.23-14-23.39-28.87-31.33-45.86-6.72-14.37-5.82-18.28,5.71-29.4,8.24-7.95,16.43-15.95,24.28-24.28,6.42-6.81,6.22-13.64.17-20.78-.71-.84-1.46-1.67-2.24-2.45Q877,422.56,855.39,401a25,25,0,0,0-5.52-4.26q-9.48-5.19-19.28,4.43c-8.17,8-16.05,16.34-24.35,24.23C796.61,434.57,792,445.57,792.49,458.82Z" transform="translate(-770.74 -351.5)"/><path d="M981,351.5c4.53.93,10,1.82,15.35,3.18a202.39,202.39,0,0,1,87.08,46.22c26.12,23.52,45.33,51.73,56.66,85,3.56,10.43,5.85,21.31,8.3,32.08,1.4,6.14-2.18,11.13-8,12.46a10.42,10.42,0,0,1-12.55-7.56c-1.69-6-2.71-12.23-4.37-18.27-11.12-40.64-34-73.35-67.55-98.55a176.5,176.5,0,0,0-73.61-32.42,36.67,36.67,0,0,1-6.07-1.52,10.66,10.66,0,0,1-6.6-11.91C970.47,355.31,975,351.53,981,351.5Z" transform="translate(-770.74 -351.5)"/><path d="M978.11,420.18a109.94,109.94,0,0,1,29.58,8.77q59.13,27.53,72.27,91.48c1.3,6.32-2.12,12-8,13.36-5.61,1.33-11.1-2.16-12.94-8.22-2.45-8.1-4-16.59-7.52-24.22-14.85-32.55-40.1-52.42-75.19-59.69-6.37-1.32-9.81-5-9.87-10.55C966.34,424.88,971.12,420.1,978.11,420.18Z" transform="translate(-770.74 -351.5)"/></svg>