<svg id="Layer_1" data-name="Layer 1" xmlns="http://www.w3.org/2000/svg" viewBox="0 0 328.14 312"><path d="M960.76,696.75H835.17c-9.94,0-14.53-4.49-14.46-14.37.09-12.62-.25-25.27.62-37.84,2.31-33.38,31.73-63.45,65-67a131.44,131.44,0,0,1,13.45-.73q62.05-.07,124.09,0c36.94,0,67.38,24.38,75.09,60.39,1.45,6.77,1.51,13.88,1.75,20.85.28,8.36.1,16.74,0,25.11,0,8.94-4.78,13.63-13.71,13.63Q1023.93,696.77,960.76,696.75Zm116-24.17c0-7.3.22-14.17,0-21-1.06-28.43-23.38-50.66-51.3-50.76q-64.68-.25-129.36,0c-15.15.05-27.81,6.17-38.1,17.29-14.52,15.7-14,34.92-13,54.48Z" transform="translate(-820.71 -384.75)"/><path d="M884.83,460.47a75.92,75.92,0,1,1,75.74,76.33A75.87,75.87,0,0,1,884.83,460.47Zm24,.26a51.92,51.92,0,1,0,51.93-52A52,52,0,0,0,908.83,460.73Z" transform="translate(-820.71 -384.75)"/><path d="M1104,432.57c28.54.29,50.25,26.85,43.6,53.45a27.78,27.78,0,0,1-13.74,17.88,75.78,75.78,0,0,1-8.68,4.37,13.44,13.44,0,0,0-8.75,10.72,11.8,11.8,0,0,1-12.77,9.72,12.13,12.13,0,0,1-10.72-14.4c2.16-11.94,8.4-20.91,19.34-26.42,2.45-1.24,5-2.38,7.4-3.61,4.6-2.29,5.54-4.07,4.93-9.24a20.46,20.46,0,0,0-17.72-18.12,21.09,21.09,0,0,0-22.23,12.41,25.31,25.31,0,0,1-2.45,5A11.93,11.93,0,0,1,1061.52,463c5.9-16.23,17.48-26,34.36-29.49C1098.55,433,1101.32,432.88,1104,432.57Z" transform="translate(-820.71 -384.75)"/><path d="M1104,568.65a12,12,0,0,1,0-24,12.16,12.16,0,0,1,12,12.25A11.94,11.94,0,0,1,1104,568.65Z" transform="translate(-820.71 -384.75)"/></svg>