<svg id="Layer_1" data-name="Layer 1" xmlns="http://www.w3.org/2000/svg" viewBox="0 0 180.22 336.14"><path d="M1022.59,540.41a40.71,40.71,0,0,1-4.14-3.09q-71.37-71.25-142.71-142.54c-2.85-2.84-5.08-5.84-5-10.07a12,12,0,0,1,19.2-9.55,27.08,27.08,0,0,1,3.28,3.06q76,75.94,151.92,151.91c7.67,7.67,7.7,13.54.11,21.13Q968.91,627.61,892.58,704c-4,4-8.27,6-13.81,4.09a12,12,0,0,1-5.24-19c.72-.86,1.55-1.63,2.35-2.43q71.21-71.16,142.41-142.31C1019.35,543.25,1020.51,542.29,1022.59,540.41Z" transform="translate(-870.7 -372.66)"/></svg>