<svg id="Layer_1" data-name="Layer 1" xmlns="http://www.w3.org/2000/svg" viewBox="0 0 383.75 385"><defs><style>.cls-1{fill:#fff;stroke:#fff;stroke-miterlimit:10;}</style></defs><path class="cls-1" d="M717.58,746h-5.23c-11.57-3.31-15.21-11.54-16-23-1.65-22.91-4.4-45.73-6.71-68.58q-4-39.32-7.91-78.63c-.56-5.56-.43-5.5-6-6q-31.62-3.1-63.23-6.3c-28.52-2.87-57-6-85.55-8.53-10.2-.89-17.65-4.44-21.18-14.46V533c2.29-7.24,7.11-11.82,14-14.92q130-58.26,260-116.75C809.14,388.14,838.61,375.11,868,362h6c15.53,5.14,17.1,18.05,11.53,30.39q-76,168.42-151.1,337.21C730.89,737.6,726.35,743.77,717.58,746ZM595,524.54l.21.74q27.45,2.75,54.92,5.48c16.62,1.68,33.25,3.23,49.84,5.17,8.09,1,14.09,7.33,15.3,15.3.38,2.47.57,5,.82,7.45q4.26,41.37,8.52,82.74c.51,4.88,1.08,9.76,1.62,14.63l.79.08c35.51-79.43,71-158.87,106.94-239.27Z" transform="translate(-505.25 -361.5)"/></svg>