<svg id="Layer_1" data-name="Layer 1" xmlns="http://www.w3.org/2000/svg" viewBox="0 0 384 384"><defs><style>.cls-1{fill:#efefef;}.cls-2{fill:#d70127;}.cls-3{fill:#fefdfd;}.cls-4{fill:#fefefe;}.cls-5{fill:#efeced;}.cls-6{fill:#efeaea;}.cls-7{fill:#eee9ea;}.cls-8{fill:#eee7e9;}</style></defs><path class="cls-1" d="M768,561V540h384v21a38.94,38.94,0,0,0-1.59,5.17c-2.78,17-7,33.57-14,49.44a190.72,190.72,0,0,1-33.4,52.39c-17.18,18.93-37.07,34.35-60.27,45.3a187.42,187.42,0,0,1-54.07,16.53A57.91,57.91,0,0,0,981,732H939c-.6-.49-1.14-1.31-1.81-1.43-3.42-.61-6.87-1-10.3-1.55-22.1-3.35-42.58-11.36-61.95-22.19-19.88-11.12-36.81-25.89-51.67-43.12a183.45,183.45,0,0,1-25.62-38.9,181.54,181.54,0,0,1-17.5-56.47C769.82,565.84,768.73,563.44,768,561Z" transform="translate(-768 -348)"/><path class="cls-2" d="M1152,540H768V524.25a8.9,8.9,0,0,0,.76-1.89c.72-5.06,1.23-10.16,2.11-15.19,14.26-81.66,79.17-145.07,160.68-157,4.74-.7,9.47-1.43,14.2-2.14H975a5.51,5.51,0,0,0,1.48.73c8.25,1.27,16.59,2.1,24.75,3.8,76.71,16,137.7,81.34,148.64,159.06.63,4.48,1.42,8.94,2.13,13.41ZM930,391.19c-22.64-5.68-48.2,5.28-61.2,25.87a58.48,58.48,0,0,0,4.29,68.2c14.25,17.53,38.41,24.79,56.28,19.79-30.67-8.56-43.31-33.67-44.37-53.23a57.38,57.38,0,0,1,8.62-34.29C902.05,404,914.22,395.43,930,391.19Zm15,40.53c-4.34,0-7.57.22-10.75-.12a4.84,4.84,0,0,1-3.35-2.39c-1.34-3-2.19-6.31-3.44-10.13-1.28,3.86-2.14,7.11-3.49,10.14a4.83,4.83,0,0,1-3.34,2.38c-3.17.34-6.39.12-10.64.12,3.4,2.49,5.81,4.46,8.42,6.1,2,1.25,2.25,2.54,1.43,4.65-1.11,2.85-1.88,5.83-3.11,9.78l10.74-7.73L938,452c-.82-2.79-1.33-4.64-1.91-6.47-1.91-5.95-1.92-5.95,3-9.52Zm30,0c3.49,2.56,6,4.55,8.72,6.34,1.63,1.09,2,2.17,1.25,4.05-1.17,3-2,6.12-3.28,10.17l10.8-7.77,10.71,7.69c-1.24-4-2-6.94-3.14-9.8-.83-2.14-.38-3.4,1.55-4.61,2.6-1.64,5-3.59,8.38-6.07-4.28,0-7.52.22-10.69-.12a4.84,4.84,0,0,1-3.34-2.39c-1.35-3-2.2-6.26-3.47-10.07-1.21,3.56-2.4,6.45-3.12,9.44-.63,2.58-1.93,3.38-4.48,3.19C982,431.55,979,431.72,975.06,431.72Zm-32.7-25.14,10.87,8c-1.32,4.21-2.53,8-4,12.71a90.55,90.55,0,0,0,7.65-5.61c2.34-2.16,4.16-1.88,6.4.09s4.51,3.34,7.5,5.5l-4-12.6,10.83-8.16h-13.5c-.69-2.1-1.29-4-1.92-5.86s-1.3-3.77-2.26-6.53c-1.35,4.11-2.18,7.25-3.45,10.2a4.33,4.33,0,0,1-3,2.19C950.18,406.76,946.85,406.58,942.36,406.58ZM923.68,469.3l-1.3.9c10.88,3.53,12.31,10.05,6.45,18.86l1.18.21,10-7.19,10.76,7.72a76.33,76.33,0,0,0-2.54-7.73c-1.62-3.48-1.24-6,2.44-7.86,2.13-1.09,3.94-2.81,6.79-4.91-4.33,0-7.54-.1-10.73,0-2,.09-2.88-.6-3.41-2.53-.85-3.18-2-6.28-3.33-10.16-1.28,3.89-2.39,7-3.32,10.24a3,3,0,0,1-3.47,2.46C930,469.19,926.86,469.3,923.68,469.3Zm45.92,19.41.71.34,9.75-7,9.57,6.91a30.51,30.51,0,0,0-2.12-9.35c-.77-1.92-.28-3,1.3-4,2.63-1.78,5.16-3.72,7.73-5.58a36.25,36.25,0,0,0-9.75-.69,2.94,2.94,0,0,1-3.46-2.46c-.93-3.21-2.05-6.36-3.32-10.24-1.25,3.76-2.44,6.73-3.21,9.8-.57,2.24-1.6,3.06-3.9,2.9-3-.2-6-.05-9.08-.05a28.37,28.37,0,0,0,6.75,5.81c2.18,1.34,2.77,2.73,1.75,5.18C971.19,483,970.49,485.9,969.6,488.71Z" transform="translate(-768 -348)"/><path class="cls-3" d="M945.75,348c-4.73.71-9.46,1.44-14.2,2.14-81.51,12-146.42,75.37-160.68,157-.88,5-1.39,10.13-2.11,15.19a8.9,8.9,0,0,1-.76,1.89V348Z" transform="translate(-768 -348)"/><path class="cls-3" d="M1152,525c-.71-4.47-1.5-8.93-2.13-13.41-10.94-77.72-71.93-143.08-148.64-159.06-8.16-1.7-16.5-2.53-24.75-3.8A5.51,5.51,0,0,1,975,348h177Z" transform="translate(-768 -348)"/><path class="cls-4" d="M768,561c.73,2.44,1.82,4.84,2.15,7.34a181.54,181.54,0,0,0,17.5,56.47,183.45,183.45,0,0,0,25.62,38.9c14.86,17.23,31.79,32,51.67,43.12,19.37,10.83,39.85,18.84,61.95,22.19,3.43.53,6.88.94,10.3,1.55.67.12,1.21.94,1.81,1.43H768Z" transform="translate(-768 -348)"/><path class="cls-4" d="M981,732a57.91,57.91,0,0,1,7.71-2.17,187.42,187.42,0,0,0,54.07-16.53c23.2-10.95,43.09-26.37,60.27-45.3a190.72,190.72,0,0,0,33.4-52.39c6.93-15.87,11.18-32.43,14-49.44A38.94,38.94,0,0,1,1152,561V732Z" transform="translate(-768 -348)"/><path class="cls-5" d="M930,391.19c-15.78,4.24-28,12.8-36.38,26.34A57.38,57.38,0,0,0,885,451.82c1.06,19.56,13.7,44.67,44.37,53.23-17.87,5-42-2.26-56.28-19.79a58.48,58.48,0,0,1-4.29-68.2C881.8,396.47,907.36,385.51,930,391.19Z" transform="translate(-768 -348)"/><path class="cls-6" d="M945,431.72l-5.94,4.33c-4.9,3.57-4.89,3.57-3,9.52.58,1.83,1.09,3.68,1.91,6.47l-10.52-7.52-10.74,7.73c1.23-3.95,2-6.93,3.11-9.78.82-2.11.55-3.4-1.43-4.65-2.61-1.64-5-3.61-8.42-6.1,4.25,0,7.47.22,10.64-.12a4.83,4.83,0,0,0,3.34-2.38c1.35-3,2.21-6.28,3.49-10.14,1.25,3.82,2.1,7.09,3.44,10.13a4.84,4.84,0,0,0,3.35,2.39C937.44,431.94,940.67,431.72,945,431.72Z" transform="translate(-768 -348)"/><path class="cls-7" d="M975.06,431.72c4,0,7-.17,9.89,0,2.55.19,3.85-.61,4.48-3.19.72-3,1.91-5.88,3.12-9.44,1.27,3.81,2.12,7.06,3.47,10.07a4.84,4.84,0,0,0,3.34,2.39c3.17.34,6.41.12,10.69.12-3.39,2.48-5.78,4.43-8.38,6.07-1.93,1.21-2.38,2.47-1.55,4.61,1.11,2.86,1.9,5.84,3.14,9.8l-10.71-7.69-10.8,7.77c1.28-4,2.11-7.18,3.28-10.17.73-1.88.38-3-1.25-4.05C981.09,436.27,978.55,434.28,975.06,431.72Z" transform="translate(-768 -348)"/><path class="cls-8" d="M942.36,406.58c4.49,0,7.82.18,11.11-.11a4.33,4.33,0,0,0,3-2.19c1.27-2.95,2.1-6.09,3.45-10.2,1,2.76,1.63,4.64,2.26,6.53s1.23,3.76,1.92,5.86h13.5l-10.83,8.16,4,12.6c-3-2.16-5.4-3.65-7.5-5.5s-4.06-2.25-6.4-.09a90.55,90.55,0,0,1-7.65,5.61c1.47-4.66,2.68-8.5,4-12.71Z" transform="translate(-768 -348)"/><path class="cls-7" d="M923.68,469.3c3.18,0,6.35-.11,9.52.05a3,3,0,0,0,3.47-2.46c.93-3.2,2-6.35,3.32-10.24,1.29,3.88,2.48,7,3.33,10.16.53,1.93,1.44,2.62,3.41,2.53,3.19-.14,6.4,0,10.73,0-2.85,2.1-4.66,3.82-6.79,4.91-3.68,1.88-4.06,4.38-2.44,7.86a76.33,76.33,0,0,1,2.54,7.73L940,482.08l-10,7.19-1.18-.21c5.86-8.81,4.43-15.33-6.45-18.86Z" transform="translate(-768 -348)"/><path class="cls-7" d="M969.6,488.71c.89-2.81,1.59-5.71,2.72-8.42,1-2.45.43-3.84-1.75-5.18a28.37,28.37,0,0,1-6.75-5.81c3,0,6.06-.15,9.08.05,2.3.16,3.33-.66,3.9-2.9.77-3.07,2-6,3.21-9.8,1.27,3.88,2.39,7,3.32,10.24a2.94,2.94,0,0,0,3.46,2.46,36.25,36.25,0,0,1,9.75.69c-2.57,1.86-5.1,3.8-7.73,5.58-1.58,1.06-2.07,2.1-1.3,4a30.51,30.51,0,0,1,2.12,9.35l-9.57-6.91-9.75,7Z" transform="translate(-768 -348)"/></svg>