<svg id="Layer_1" data-name="Layer 1" xmlns="http://www.w3.org/2000/svg" viewBox="0 0 384 384"><defs><style>.cls-1{fill:#0052b3;}.cls-2{fill:#d70127;}.cls-3{fill:#fefdfe;}.cls-4{fill:#efefef;}</style></defs><path class="cls-1" d="M1152,525v30.75a9.7,9.7,0,0,0-.78,2.25,195.7,195.7,0,0,1-10,45.48,24,24,0,0,1-1.93,3.45c-1.24,0-2.49-.15-3.73-.15H784.46c-1.24,0-2.49.1-3.73.15a9.14,9.14,0,0,1-1.51-2.41c-3-11.79-6.09-23.57-8.93-35.41-1-4.39-1.54-8.9-2.29-13.36V523.5a9.23,9.23,0,0,0,.83-2.22,197.93,197.93,0,0,1,9.83-44.41,25.52,25.52,0,0,1,2.07-3.8c1.24.05,2.49.15,3.73.15h351.08c1.24,0,2.49-.1,3.73-.15a9.57,9.57,0,0,1,1.52,2.4c3,11.79,6.1,23.58,8.91,35.42C1150.8,515.52,1151.25,520.29,1152,525Z" transform="translate(-768 -348)"/><path class="cls-2" d="M945,348h30a21,21,0,0,0,2.65.77c7.5,1.17,15.1,1.9,22.51,3.5,42,9,76.88,30.09,105.22,62.23-1.49.09-3,.26-4.47.27q-140.91,0-281.81,0c-1.49,0-3-.17-4.46-.27,31.69-35.82,71.07-57.53,118.43-64.64C937.05,349.25,941,348.62,945,348Z" transform="translate(-768 -348)"/><path class="cls-2" d="M975,732H944.25a14.46,14.46,0,0,0-2.63-.81,196.05,196.05,0,0,1-40.88-8.52c-34-11.12-62.53-30.37-86.11-57.14,1.49-.11,3-.29,4.46-.29q140.91,0,281.81,0c1.49,0,3,.18,4.47.27-31.53,35.56-70.57,57.41-117.72,64.47C983.43,730.6,979.22,731.32,975,732Z" transform="translate(-768 -348)"/><path class="cls-3" d="M814.63,665.53c23.58,26.77,52.16,46,86.11,57.14a196.05,196.05,0,0,0,40.88,8.52,14.46,14.46,0,0,1,2.63.81H768V555.75c.75,4.46,1.24,9,2.29,13.36,2.84,11.84,5.89,23.62,8.93,35.41a9.14,9.14,0,0,0,1.51,2.41c2.72,6.77,5,13.75,8.26,20.26A194,194,0,0,0,814.63,665.53Z" transform="translate(-768 -348)"/><path class="cls-3" d="M975,732c4.22-.68,8.43-1.4,12.65-2,47.15-7.06,86.19-28.91,117.72-64.47a6.57,6.57,0,0,1,.59-1c12.33-13.88,21.71-29.64,29.41-46.43,1.64-3.58,2.62-7.45,3.9-11.19a24,24,0,0,0,1.93-3.45,195.7,195.7,0,0,0,10-45.48,9.7,9.7,0,0,1,.78-2.25V732Z" transform="translate(-768 -348)"/><path class="cls-3" d="M1105.38,414.5c-28.34-32.14-63.26-53.19-105.22-62.23-7.41-1.6-15-2.33-22.51-3.5A21,21,0,0,1,975,348h177V525c-.75-4.71-1.2-9.48-2.3-14.11-2.81-11.84-5.88-23.63-8.91-35.42a9.57,9.57,0,0,0-1.52-2.4,17.15,17.15,0,0,0-.83-4c-3.94-8.3-7.36-16.94-12.17-24.72C1119.89,434.05,1112.4,424.42,1105.38,414.5Z" transform="translate(-768 -348)"/><path class="cls-3" d="M945,348c-4,.62-8,1.25-11.93,1.85-47.36,7.11-86.74,28.82-118.43,64.64a58.65,58.65,0,0,0-3.76,4.61c-7.29,11-15,21.7-21.57,33-3.76,6.45-5.78,13.91-8.58,20.92a25.52,25.52,0,0,0-2.07,3.8,197.93,197.93,0,0,0-9.83,44.41,9.23,9.23,0,0,1-.83,2.22V348Z" transform="translate(-768 -348)"/><path class="cls-4" d="M780.73,473.07c2.8-7,4.82-14.47,8.58-20.92,6.62-11.35,14.28-22.09,21.57-33a58.65,58.65,0,0,1,3.76-4.61c1.49.1,3,.27,4.46.27q140.91,0,281.81,0c1.49,0,3-.18,4.47-.27,7,9.92,14.51,19.55,20.89,29.87,4.81,7.78,8.23,16.42,12.17,24.72a17.15,17.15,0,0,1,.83,4c-1.24.05-2.49.15-3.73.15H784.46C783.22,473.22,782,473.12,780.73,473.07Z" transform="translate(-768 -348)"/><path class="cls-4" d="M1139.27,606.93c-1.28,3.74-2.26,7.61-3.9,11.19-7.7,16.79-17.08,32.55-29.41,46.43a6.57,6.57,0,0,0-.59,1c-1.49-.09-3-.27-4.47-.27q-140.91,0-281.81,0c-1.48,0-3,.18-4.46.29A194,194,0,0,1,789,627.19c-3.25-6.51-5.54-13.49-8.26-20.26,1.24,0,2.49-.15,3.73-.15h351.08C1136.78,606.78,1138,606.88,1139.27,606.93Z" transform="translate(-768 -348)"/></svg>