<svg id="Layer_1" data-name="Layer 1" xmlns="http://www.w3.org/2000/svg" viewBox="0 0 384 384"><defs><style>.cls-1{fill:#d70027;}.cls-2{fill:#fed844;}</style></defs><path class="cls-1" d="M975,732.75H945a14.22,14.22,0,0,0-2.63-.81c-21.5-2.24-42.3-7.29-61.75-16.79-61.52-30-98.34-78.72-109.78-146.37q-1-6.15-2.09-12.28V524.25a11.7,11.7,0,0,0,.83-2.22c1.06-6.77,1.74-13.63,3.15-20.33,16.52-79,79.91-138.7,160-150.86,4.35-.66,8.69-1.39,13-2.09h30a7.19,7.19,0,0,0,1.89.72c27.85,2.52,54.1,10.31,78.18,24.57,53.11,31.45,84.86,77.65,94.83,138.68l2.1,13V556.5c-.56,3.35-1.2,6.7-1.68,10.06-5.38,37.78-20.27,71.3-45.44,100-31.11,35.49-70.06,57-116.81,64.08ZM906.74,615.08c2.14-1.25,3.43-1.88,4.58-2.71,15.37-11.14,30.77-22.25,46-33.52,2.47-1.82,4.12-2,6.72-.09,15.25,11.3,30.66,22.39,46,33.54,1.06.77,2.19,1.45,3.28,2.17a9.77,9.77,0,0,0-.46-5c-5.81-17.92-11.6-35.84-17.54-53.72-.88-2.64-.59-4.13,1.81-5.84,15.75-11.26,31.37-22.69,47-34.08,1-.76,2-1.62,3.84-3.07h-5c-19.24,0-38.48-.07-57.72.06-2.85,0-4.14-.83-5-3.58-5.9-18.54-12-37-18-55.54-.38-1.18-.86-2.33-1.61-4.35-.75,2.23-1.15,3.4-1.53,4.58-5.95,18.26-12,36.5-17.76,54.82-1,3.23-2.5,4.12-5.79,4.09-19.11-.17-38.23-.09-57.34-.08-1.28,0-2.56.12-4.61.22,1.67,1.29,2.61,2.07,3.59,2.78,15.76,11.46,31.49,23,47.32,34.31,2.12,1.52,2.5,2.81,1.7,5.23C919.8,574.82,913.48,594.37,906.74,615.08Z" transform="translate(-768.75 -348.75)"/><path class="cls-2" d="M906.74,615.08c6.74-20.71,13.06-40.26,19.52-59.77.8-2.42.42-3.71-1.7-5.23-15.83-11.35-31.56-22.85-47.32-34.31-1-.71-1.92-1.49-3.59-2.78,2.05-.1,3.33-.22,4.61-.22,19.11,0,38.23-.09,57.34.08,3.29,0,4.77-.86,5.79-4.09,5.77-18.32,11.81-36.56,17.76-54.82.38-1.18.78-2.35,1.53-4.58.75,2,1.23,3.17,1.61,4.35,6,18.5,12.08,37,18,55.54.87,2.75,2.16,3.6,5,3.58,19.24-.13,38.48-.06,57.72-.06h5c-1.81,1.45-2.79,2.31-3.84,3.07-15.65,11.39-31.27,22.82-47,34.08-2.4,1.71-2.69,3.2-1.81,5.84,5.94,17.88,11.73,35.8,17.54,53.72a9.77,9.77,0,0,1,.46,5c-1.09-.72-2.22-1.4-3.28-2.17-15.36-11.15-30.77-22.24-46-33.54-2.6-1.92-4.25-1.73-6.72.09-15.27,11.27-30.67,22.38-46,33.52C910.17,613.2,908.88,613.83,906.74,615.08Z" transform="translate(-768.75 -348.75)"/></svg>