<svg id="Layer_1" data-name="Layer 1" xmlns="http://www.w3.org/2000/svg" viewBox="0 0 384 384"><defs><style>.cls-1{fill:#fe0000;}.cls-2{fill:#fe0505;}</style></defs><path class="cls-1" d="M1127.25,732.75H792.75a8.27,8.27,0,0,0-1.74-1.09q-16.21-5-21.18-21.16a8,8,0,0,0-1.08-1.75v-336a7.84,7.84,0,0,0,1.07-1.75q5-16.22,21.18-21.18a7.84,7.84,0,0,0,1.75-1.07h334.5c.24.24.44.64.71.69,12.49,2.35,20.07,10,23.8,21.89a19.27,19.27,0,0,0,1,2.17V708.75a29.62,29.62,0,0,0-1.51,3.17A30.27,30.27,0,0,1,1132.65,731C1130.89,731.65,1129.05,732.16,1127.25,732.75ZM961.13,468.57v0c-21.25,0-42.5-.29-63.74.08s-37.33,16.46-37.66,37.75q-.53,34.29,0,68.61c.33,21.28,16.38,37.56,37.65,37.74q63.36.51,126.73,0c21.3-.18,37.3-16.38,37.65-37.73q.57-34.3,0-68.62c-.36-21.64-16.59-37.51-38.39-37.81C1002.63,468.35,981.88,468.57,961.13,468.57Z" transform="translate(-768.75 -348.75)"/><path class="cls-2" d="M934.29,571.65V509.86l53.12,30.88Z" transform="translate(-768.75 -348.75)"/></svg>