<svg id="Layer_1" data-name="Layer 1" xmlns="http://www.w3.org/2000/svg" viewBox="0 0 515.7 492.26"><defs><style>.cls-1{fill:#1d66ff;}.cls-1,.cls-2,.cls-3,.cls-5,.cls-6,.cls-7,.cls-8{stroke:#1d66ff;}.cls-1,.cls-2,.cls-3,.cls-4,.cls-5,.cls-6,.cls-7,.cls-8{stroke-miterlimit:10;}.cls-2{fill:#0682c8;}.cls-3{fill:#0983c8;}.cls-4{fill:#fefefe;stroke:#fff;}.cls-5{fill:#268cc5;}.cls-6{fill:#258bc4;}.cls-7{fill:#268bc4;}.cls-8{fill:#fcfdfd;}</style></defs><path class="cls-1" d="M995.9,338.07v6c-.94,1.73-.48,3.6-.48,5.39q0,166.05,0,332.09c0,1.79-.46,3.66.48,5.39v8c-1.67,8.25-1.39,16.82-5,24.76-10.71,23.3-28.65,37-53.79,41.44a96.6,96.6,0,0,1-16.91,1.14q-132.7-.06-265.39,0c-8.84,0-17.59-1.62-26.44-1.06-17.62,1.13-35.27,1-52.92,1-12.49,0-25.1.19-37.32-2.13-25.27-4.81-42.12-20.3-51.38-44.06-2.23-5.72-1.31-12.15-2.62-18.15v-7c.94-1.73.48-3.6.48-5.39q0-168,0-336.09c0-1.79.46-3.66-.48-5.39v-7c1.1-2.34.64-4.91.85-7.34,2-22.66,15.37-37.27,33.87-48.11,12.52-7.34,26.32-9.9,40.77-9.9q180.39.09,360.79,0c30.21,0,52.46,13.52,68.27,38.72,4.77,7.6,6.1,16.06,6.75,24.75C995.47,336.17,995.22,337.2,995.9,338.07Z" transform="translate(-483.59 -270.55)"/><path class="cls-2" d="M484.09,344.07c1.32,1.76,1,3.82,1,5.79q0,167.64,0,335.29c0,2,.34,4-1,5.79Z" transform="translate(-483.59 -270.55)"/><path class="cls-3" d="M995.9,686.94c-1.32-1.76-1-3.82-1-5.79q0-165.64,0-331.29c0-2-.34-4,1-5.79Z" transform="translate(-483.59 -270.55)"/><path class="cls-4" d="M585.19,693.82c-1.8-1.61-5.9.29-6.09-3.07-.16-2.74,3.3-3.37,5.29-4.68,13.83-9.14,27-18.94,36.06-33.26,1.24-2,2.4-4,3.44-6.07,4.2-8.38,3.34-16.11-3.21-23-11.3-11.81-22.25-23.89-31.59-37.35-29.91-43.1-42.19-90.75-36.28-142.84,8.28-73,46.85-126.5,107.41-165.78a41,41,0,0,1,23.68-6.76c80.46.29,160.93.13,241.4.2,33.29,0,60.53,19.57,70.08,50a81.44,81.44,0,0,1,3.36,24.63q0,132.45,0,264.89c0,2,0,4,.06,6-4.69,9-12.86,14.76-20.38,20.94-40.23,33-86.85,51.24-138,58.22-32,4.36-63.72,2.33-95.18-4.68a296.13,296.13,0,0,1-34.12-9.57,34.1,34.1,0,0,0-21-.45c-18.45,5.06-36.58,11.32-55.56,14.41-13.75,2.24-27.55,1.75-41.34,1.29C590.41,696.82,587,697.05,585.19,693.82Z" transform="translate(-483.59 -270.55)"/><path class="cls-5" d="M615,735.89a10.83,10.83,0,0,1,7.06,7A32.73,32.73,0,0,1,615,735.89Z" transform="translate(-483.59 -270.55)"/><path class="cls-6" d="M597.94,719.89c3.34.9,5.21,3.51,7.11,6.09C601.76,725,600,722.33,597.94,719.89Z" transform="translate(-483.59 -270.55)"/><path class="cls-7" d="M583,705.9a5.26,5.26,0,0,1,4.1,3.08A6,6,0,0,1,583,705.9Z" transform="translate(-483.59 -270.55)"/><path class="cls-1" d="M656.64,510.25c15.61,0,29.92,0,44.23,0a49,49,0,0,1,8,.54c7.1,1.16,10.5,5.24,10.53,12.27s-3.52,11.22-10.42,12.49a31.24,31.24,0,0,1-5.47.37Q672.23,536,641,536a45.65,45.65,0,0,1-10.42-.84c-9.67-2.24-14.39-11.33-10.23-20.31a39.27,39.27,0,0,1,4.92-7.48q25-31.83,50-63.62c1-1.21,3.07-2.36,2.16-4.06s-3-.7-4.61-.71c-10.83-.09-21.65,0-32.48-.13a55.82,55.82,0,0,1-10.41-1,11.61,11.61,0,0,1,0-22.64,50,50,0,0,1,9.91-1c19.15-.09,38.3-.06,57.46,0a38.81,38.81,0,0,1,6.45.54c12.16,2,16.23,10.16,10.15,21-7.2,12.84-17.34,23.58-26.27,35.16C677.69,483.79,667.51,496.48,656.64,510.25Z" transform="translate(-483.59 -270.55)"/><path class="cls-1" d="M812.87,490.33c0,10.48,0,21,0,31.44,0,6.38-2.14,11.4-8.21,14.12S793.43,537.4,788,532c-1.62-1.61-2.78-2.26-5.07-.92-28.79,16.88-58.55,2.5-63.84-30.76-3.86-24.24,4.06-42.3,23.38-53.07,13.83-7.71,27.34-7.35,40.14,2.26,2.41,1.81,3.47,1.8,5.5-.46,4.72-5.25,10.28-6.46,16.22-4,6.17,2.54,8.56,7.43,8.53,13.86C812.83,469.36,812.87,479.84,812.87,490.33Z" transform="translate(-483.59 -270.55)"/><path class="cls-1" d="M957.21,490.48c-.41,19.62-7.66,35.61-26.27,43.93s-36.77,6.9-52.88-6.48c-14.95-12.43-19.66-35.44-12-56,6.89-18.53,23.71-29.95,43.64-29.62,21.44.35,38.16,11.73,44.74,30.47A50.22,50.22,0,0,1,957.21,490.48Z" transform="translate(-483.59 -270.55)"/><path class="cls-1" d="M853,470.37q0,24.74,0,49.48a36.09,36.09,0,0,1-.17,5,14.34,14.34,0,0,1-13.59,12.37c-7,.29-12.09-3.8-13.75-11.17a18,18,0,0,1-.42-3.95c0-34.32-.1-68.64,0-103,0-10.53,7.49-16.34,17.54-14.2,6.59,1.4,10.3,6.4,10.34,14.46C853,436.38,852.94,453.38,853,470.37Z" transform="translate(-483.59 -270.55)"/><path class="cls-8" d="M785,490c0,12.61-7,22-16.79,23-12.06,1.17-21-6.78-22-19.68a27.88,27.88,0,0,1,3.37-15.84c3.69-6.72,9.46-9.84,17.23-9.54,7.27.28,12.15,3.9,15.37,10.09A23.93,23.93,0,0,1,785,490Z" transform="translate(-483.59 -270.55)"/><path class="cls-8" d="M929.11,490.48a24.55,24.55,0,0,1-3.65,14.21c-4,6.46-11.56,9.6-19.39,8.24-7-1.22-13.56-8.17-15-16.17a31.9,31.9,0,0,1,.36-13.82c2.67-10.3,10.33-15.65,21-14.89,8.18.57,15.45,8.48,16.46,18C929,487.49,929,489,929.11,490.48Z" transform="translate(-483.59 -270.55)"/></svg>